<?xml version="1.0" encoding="utf-8"?>
<!-- Generator: Adobe Illustrator 19.2.1, SVG Export Plug-In . SVG Version: 6.00 Build 0)  -->
<svg version="1.1" id="Layer_1" xmlns="http://www.w3.org/2000/svg" xmlns:xlink="http://www.w3.org/1999/xlink" x="0px" y="0px"
	 viewBox="0 0 33.1 62.8" style="enable-background:new 0 0 33.1 62.8;" xml:space="preserve">
<style type="text/css">
	.st0{fill:#010101;}
	.st1{fill:#F59E22;}
</style>
<g>
	<g>
		<path class="st0" d="M29.8,52H3.3V10.8h26.5V52z M5.1,50.3h23V12.5h-23V50.3z"/>
	</g>
	<g>
		<g id="XMLID_3_">
			<g>
				<path class="st1" d="M19.9,56.6c0,1.9-1.5,3.4-3.4,3.4c-1.8,0-3.3-1.5-3.3-3.4c0-1.8,1.5-3.3,3.3-3.3
					C18.4,53.3,19.9,54.8,19.9,56.6z M18.2,56.6c0-0.9-0.7-1.6-1.6-1.6c-0.9,0-1.6,0.7-1.6,1.6c0,0.9,0.7,1.6,1.6,1.6
					C17.5,58.2,18.2,57.5,18.2,56.6z"/>
			</g>
			<g>
			</g>
		</g>
	</g>
	<path class="st0" d="M26.5,1.7c2.7,0,4.9,2.2,4.9,4.9v49.4c0,2.7-2.2,4.9-4.9,4.9H6.7c-2.7,0-4.9-2.2-4.9-4.9V6.7
		C1.7,4,4,1.7,6.7,1.7L26.5,1.7 M26.5,0H6.7C3,0,0,3,0,6.7v49.4c0,3.7,3,6.7,6.7,6.7h19.8c3.7,0,6.7-3,6.7-6.7V6.7
		C33.1,3,30.1,0,26.5,0L26.5,0z"/>
</g>
</svg>
