<?xml version="1.0" encoding="utf-8"?>
<!-- Generator: Adobe Illustrator 19.2.1, SVG Export Plug-In . SVG Version: 6.00 Build 0)  -->
<svg version="1.1" id="Layer_1" xmlns="http://www.w3.org/2000/svg" xmlns:xlink="http://www.w3.org/1999/xlink" x="0px" y="0px"
	 viewBox="0 0 66.6 61.9" style="enable-background:new 0 0 66.6 61.9;" xml:space="preserve">
<style type="text/css">
	.st0{fill:#F59E22;}
	.st1{fill:#010101;}
</style>
<g id="XMLID_11_">
	<g>
		<path class="st0" d="M43.5,15.4v14.8l-13.8-9.5c0-0.3,0.1-0.6,0.1-0.9c0,0,0,0,0,0c0,0,0,0,0-0.1c0-1.4-0.3-2.6-0.8-3.8V5.4
			L43.5,15.4z"/>
		<path class="st1" d="M45.4,55.4L43.2,54l-0.5,0.4l2.8,1.7V55.4z M29.7,19.7C29.7,19.8,29.7,19.8,29.7,19.7
			C29.7,19.8,29.7,19.8,29.7,19.7c0,0.4,0,0.7-0.1,1l13.8,9.5V15.4L28.9,5.4v10.6C29.4,17.1,29.7,18.4,29.7,19.7z M46.4,56
			l19.1-13.3v-0.5L46.4,55.5V56z M48.8,48c-0.9,0.6-2,1.3-2.4,1.6c-0.1,1.4-0.8,2.7-1.9,3.4l-0.5,0.4l2,1.2l19.1-13.3L50.1,31.1
			c0,1.4,0,2.3,0,2.3c0,0.2-0.1,0.3-0.2,0.4l-1,0.7c0.2,0.1,0.3,0.3,0.5,0.3c0.5,0.2,0.9,0.2,1.4,0v0c1.2-0.4,2.5,0.3,2.9,1.5
			c0.4,1.1-0.2,2.3-1.4,2.9c-0.4,0.2-2.5,1.4-2.8,2.8c1,0.4,1.5,1.4,1.5,2.3C51,45.9,50.3,47,48.8,48z M50,44.4
			c0-1.2-1.2-1.5-1.7-1.5c-0.9,0-1.7,0.1-2.7,0.7c-0.6,0.5-1.3,0.9-1.8,1.2c1.3,0.7,2.3,2,2.5,3.6c0.5-0.4,1.3-0.8,1.9-1.3
			C49.4,46.4,50,45.6,50,44.4z M47.6,34.3l1.5-1.1c0-2,0.1-14.8,0.1-17.4c0-2.5-3.2-5.8-9.1-9.5c0,0,0,0,0,0C34.7,2.6,31.6,1,30,1
			h-2l18.8,13c0.1,0.1,0.2,0.2,0.2,0.4v20.4l0.6-0.4c0,0,0,0,0,0L47.6,34.3z M9.9,27.1v-2.3l-3.1,2.3H9.9z M26.8,36.4
			c1.1,1.3,2.4,2.7,3.4,3.8c1.2,1.3,2.2,2.4,2.7,3c0,0,0,0,0,0c0.9,1.5,1.5,3.1,1.7,4.8l4-2.9c0.8-0.6,1.8-0.9,2.8-0.9
			c0.5,0,0.9,0.1,1.3,0.2l-0.1-0.1c0,0,1.2-0.8,2.2-1.5c1.2-0.8,2.3-0.9,3.2-0.9c0.1,0,0.1,0,0.2,0c0.5-1.8,2.6-3.1,3.3-3.5
			c0.3-0.2,1.2-0.7,0.9-1.7c-0.2-0.5-0.7-0.9-1.3-0.9c-0.1,0-0.2,0-0.3,0c-0.3,0.1-0.7,0.2-1.1,0.2S49.3,36,49,35.8
			c-0.4-0.2-0.7-0.4-1-0.7l-1.3,0.9c0,0,0,0-0.1,0c0,0,0,0,0,0c0,0,0,0,0,0c0,0-0.1,0-0.1,0c0,0,0,0,0,0c0,0-0.1,0-0.1,0
			c0,0-0.1,0-0.1,0c0,0,0,0,0,0c0,0-0.1,0-0.1,0c0,0,0,0,0,0c0,0,0,0,0,0L28.3,23.7c-0.1,0.1-0.2,0.3-0.4,0.4v3.6l15.9,11.2
			c0.1,0.1,0.2,0.3,0.2,0.4c0,0.2-0.1,0.3-0.2,0.4l-6.3,4.2C37.5,44,37.4,44,37.3,44s-0.2,0-0.3-0.1L26.8,36.4z M26.8,1.4v11.4
			c0.4,0.4,0.7,0.8,1,1.3V4.4c0-0.2,0.1-0.3,0.3-0.4c0.2-0.1,0.4-0.1,0.5,0l15.6,10.8c0.1,0.1,0.2,0.3,0.2,0.4v16
			c0,0.2-0.1,0.4-0.3,0.4c-0.1,0-0.2,0.1-0.2,0.1c-0.1,0-0.2,0-0.3-0.1l-14.3-9.8c-0.1,0.4-0.3,0.7-0.5,1l17,11.9V14.6L26.8,1.4z
			 M21.5,33.6c3-0.2,5.4-2.7,5.4-5.8v-2.9c-1,0.7-2.3,1.1-3.6,1.1c-1,0-1.8,0.8-1.8,1.8v5C21.6,33.1,21.6,33.3,21.5,33.6z
			 M23.4,25.1c2.9,0,5.3-2.4,5.3-5.3c0-4.9-4-8.8-8.9-8.8c-4.9,0-8.9,4-8.9,8.9v8.1c0,4,3.3,7.3,7.3,7.3c1.3,0,2.4-1.1,2.4-2.4v-5
			C20.6,26.3,21.9,25.1,23.4,25.1z M29.5,40.9c-2.9-3.1-5-5.4-5.6-6.9c-0.9,0.4-1.8,0.6-2.8,0.6v0c-0.6,1-1.7,1.6-2.9,1.6
			c-4.5,0-8.2-3.6-8.3-8.2H6.8c-3.2,0-5.8,2.6-5.8,5.8v7.2c0,2.4,1.3,5.3,2.5,6.1c1.3,0.9,2.6,1.8,2.7,1.9l17.1,11
			c0.9,0.5,2,0.8,3,0.8c1.1,0,2.1-0.3,3.1-0.9c-1.8-0.9-3.1-2.8-3.1-5v-4.8c0-0.3,0.2-0.5,0.5-0.5c0.3,0,0.5,0.2,0.5,0.5v4.8
			c0,2.5,2.1,4.6,4.6,4.6c0.9,0,1.7-0.3,2.5-0.7h0l9.6-6.7c0.9-0.6,1.4-1.8,1.4-3c0-2.2-1.8-3.9-3.9-3.9c-0.8,0-1.6,0.2-2.3,0.7
			l-4.5,3.3c0,0.1,0,0.2,0,0.3v0.1c0,0.5,0.4,0.9,0.9,0.9c0.3,0,0.5,0.2,0.5,0.5c0,0.3-0.2,0.5-0.5,0.5c-1,0-1.7-0.7-1.9-1.6
			c0,0,0-0.1,0-0.1v0c0-2.1-0.6-4.2-1.7-6C31.7,43.2,30.7,42.1,29.5,40.9z M25.8,12V0.5c0,0,0-0.1,0-0.1c0,0,0,0,0,0
			c0,0,0-0.1,0-0.1c0,0,0,0,0,0c0,0,0-0.1,0.1-0.1c0,0,0,0,0,0c0,0,0,0,0.1-0.1c0,0,0,0,0,0c0,0,0,0,0,0c0,0,0.1,0,0.1,0
			c0,0,0.1,0,0.1,0H30c1.3,0,3.6,0.6,10.6,5.4c6.4,4,9.6,7.4,9.6,10.4c0,2,0,9.6,0,14.2l16.2,10.9c0.1,0.1,0.2,0.3,0.2,0.4
			c0,0,0,0,0,0v1.7c0,0.2-0.1,0.3-0.2,0.4l-20.1,14c-0.1,0.1-0.2,0.1-0.3,0.1c-0.1,0-0.2,0-0.2,0c0,0,0,0,0,0l-1-0.6v0.4h0v-0.4
			l-3-1.8l-6.8,4.7l0,0c-0.9,0.6-2,0.9-3,0.9c-0.4,0-0.9-0.1-1.3-0.2c-1.2,0.9-2.7,1.4-4.2,1.4c-1.2,0-2.4-0.3-3.5-1l0,0
			c0,0-0.1,0-0.1-0.1l-17-11C5.5,49.8,4.3,49,2.9,48C1.4,46.9,0,43.7,0,41.1v-7.2c0-3,2-5.6,4.7-6.5l5.2-3.9v-3.7
			c0-5.4,4.4-9.9,9.9-9.9C22.1,10,24.2,10.7,25.8,12z M24.8,33.5c0,0.1,0,0.2,0.1,0.3l12.4,9.1l5.4-3.7L27.9,28.8
			c-0.1,0.4-0.2,0.8-0.3,1.2l12.8,9c0.2,0.2,0.3,0.5,0.1,0.7c-0.1,0.1-0.3,0.2-0.4,0.2c-0.1,0-0.2,0-0.3-0.1l-12.6-8.9
			c-0.2,0.5-0.5,0.9-0.9,1.3l12,8.4c0.2,0.2,0.3,0.5,0.1,0.7c-0.1,0.1-0.3,0.2-0.4,0.2c-0.1,0-0.2,0-0.3-0.1L25.6,33
			C25.3,33.2,25.1,33.4,24.8,33.5z"/>
	</g>
	<g>
	</g>
</g>
</svg>
