<?xml version="1.0" encoding="utf-8"?>
<!-- Generator: Adobe Illustrator 19.2.1, SVG Export Plug-In . SVG Version: 6.00 Build 0)  -->
<svg version="1.1" id="Layer_1" xmlns="http://www.w3.org/2000/svg" xmlns:xlink="http://www.w3.org/1999/xlink" x="0px" y="0px"
	 viewBox="0 0 43.6 55.8" style="enable-background:new 0 0 43.6 55.8;" xml:space="preserve">
<style type="text/css">
	.st0{fill:#010101;}
	.st1{fill:#F59E22;}
</style>
<g>
	<path class="st0" d="M34.6,24.1H21.7c-0.4,0-0.7-0.3-0.7-0.7c0-0.4,0.3-0.7,0.7-0.7h12.9c0.4,0,0.7,0.3,0.7,0.7
		C35.3,23.8,34.9,24.1,34.6,24.1z"/>
</g>
<g>
	<path class="st0" d="M34.6,21.3H21.7c-0.4,0-0.7-0.3-0.7-0.7s0.3-0.7,0.7-0.7h12.9c0.4,0,0.7,0.3,0.7,0.7S34.9,21.3,34.6,21.3z"/>
</g>
<g>
	<path class="st0" d="M34.6,18.6H21.7c-0.4,0-0.7-0.3-0.7-0.7c0-0.4,0.3-0.7,0.7-0.7h12.9c0.4,0,0.7,0.3,0.7,0.7
		C35.3,18.3,34.9,18.6,34.6,18.6z"/>
</g>
<g>
	<g id="XMLID_13_">
		<g>
			<path class="st1" d="M16,20.1c0.4,0,0.7,0.3,0.7,0.7c0,0.4-0.3,0.7-0.7,0.7H8.1c-0.4,0-0.7-0.3-0.7-0.7c0-0.4,0.3-0.7,0.7-0.7H16
				z"/>
		</g>
		<g>
		</g>
	</g>
</g>
<g>
	<path class="st0" d="M12,25.4c-0.4,0-0.7-0.3-0.7-0.7v-7.9c0-0.4,0.3-0.7,0.7-0.7c0.4,0,0.7,0.3,0.7,0.7v7.9
		C12.7,25.1,12.4,25.4,12,25.4z"/>
</g>
<g>
	<g id="XMLID_12_">
		<g>
			<path class="st1" d="M12.7,16.8v7.9c0,0.4-0.3,0.7-0.7,0.7s-0.7-0.3-0.7-0.7v-7.9c0-0.4,0.3-0.7,0.7-0.7S12.7,16.4,12.7,16.8z"/>
		</g>
		<g>
		</g>
	</g>
</g>
<g>
	<path class="st0" d="M36.2,55.6c-0.4,0-0.7-0.3-0.7-0.7v-4.4c0-1.6,1.3-2.9,2.9-2.9h4.4c0.4,0,0.7,0.3,0.7,0.7S43.2,49,42.8,49
		h-4.4c-0.8,0-1.5,0.7-1.5,1.5v4.4C36.9,55.2,36.5,55.6,36.2,55.6z"/>
</g>
<g>
	<path class="st0" d="M25.5,40.4c-0.3,0-0.6-0.1-0.6-0.4l-2.2-5.6l-0.8,2.4c-0.1,0.3-0.3,0.5-0.6,0.5H8.9c-0.4,0-0.7-0.3-0.7-0.7
		S8.5,36,8.9,36h11.8l1.3-3.6c0.1-0.3,0.3-0.5,0.6-0.5l0,0c0.3,0,0.6,0.1,0.6,0.4l2.1,5.4l2.5-8.7c0.1-0.3,0.3-0.5,0.7-0.5l0,0
		c0.3,0,0.6,0.2,0.6,0.6l1.4,6.9h4.3c0.4,0,0.7,0.3,0.7,0.7s-0.3,0.7-0.7,0.7h-4.8c-0.3,0-0.6-0.2-0.7-0.6l-1-4.7l-2.3,8
		C26.1,40.2,25.9,40.4,25.5,40.4C25.6,40.4,25.5,40.4,25.5,40.4z"/>
</g>
<g>
	<path class="st0" d="M21.7,6.3c-1.7,0-3-1.4-3-3s1.4-3,3-3s3,1.4,3,3S23.4,6.3,21.7,6.3z M21.7,1.7c-0.9,0-1.7,0.8-1.7,1.7
		S20.8,5,21.7,5s1.7-0.8,1.7-1.7S22.6,1.7,21.7,1.7z"/>
</g>
<g>
	<path class="st0" d="M26.5,11.3h-9.4c-1.9,0-3.4-1.5-3.4-3.4V6.4c0-1.9,1.5-3.4,3.4-3.4c0.4,0,0.7,0.3,0.7,0.7s-0.3,0.7-0.7,0.7
		c-1.2,0-2.1,0.9-2.1,2.1v1.4c0,1.2,0.9,2.1,2.1,2.1h9.5c1.2,0,2.1-0.9,2.1-2.1V6.4c0-1.2-0.9-2.1-2.1-2.1c-0.4,0-0.7-0.3-0.7-0.7
		S26.1,3,26.5,3C28.5,3,30,4.5,30,6.4v1.4C29.9,9.7,28.4,11.3,26.5,11.3z"/>
</g>
<g>
	<path class="st0" d="M36,55.8H7.6c-4.2,0-7.6-3.4-7.6-7.6V14.9c0-4.2,3.4-7.6,7.6-7.6C8,7.4,8.3,7.6,8.3,8c0,0.4-0.3,0.7-0.7,0.7
		c-3.4,0-6.2,2.8-6.2,6.2v33.4c0,3.4,2.8,6.2,6.2,6.2H36c3.4,0,6.2-2.8,6.2-6.2V14.9c0-3.4-2.8-6.2-6.2-6.2c-0.4,0-0.7-0.3-0.7-0.7
		c0-0.4,0.3-0.7,0.7-0.7c4.2,0,7.6,3.4,7.6,7.6v33.4C43.5,52.5,40.2,55.8,36,55.8z"/>
</g>
</svg>
