<?xml version="1.0" encoding="utf-8"?>
<!-- Generator: Adobe Illustrator 19.2.1, SVG Export Plug-In . SVG Version: 6.00 Build 0)  -->
<svg version="1.1" id="Layer_1" xmlns="http://www.w3.org/2000/svg" xmlns:xlink="http://www.w3.org/1999/xlink" x="0px" y="0px"
	 viewBox="0 0 56.2 53.5" style="enable-background:new 0 0 56.2 53.5;" xml:space="preserve">
<style type="text/css">
	.st0{fill:#010101;}
	.st1{fill:#F59E22;}
</style>
<g id="иконки_7_">
	<g id="XMLID_14_">
		<g>
			<path class="st0" d="M43.8,26.5c0.8,0,1.5,0.7,1.5,1.5c0,0.8-0.7,1.5-1.5,1.5c-0.8,0-1.5-0.7-1.5-1.5
				C42.3,27.2,43,26.5,43.8,26.5z"/>
			<path class="st0" d="M41.7,24.4c0,0.8-0.7,1.5-1.5,1.5c-0.8,0-1.5-0.7-1.5-1.5c0-0.8,0.7-1.5,1.5-1.5
				C41.1,22.9,41.7,23.6,41.7,24.4z"/>
			<path class="st0" d="M41.7,31.6c0,0.8-0.7,1.5-1.5,1.5c-0.8,0-1.5-0.7-1.5-1.5s0.7-1.5,1.5-1.5C41.1,30.1,41.7,30.8,41.7,31.6z"
				/>
			<path class="st1" d="M36.7,26.5c0.8,0,1.5,0.7,1.5,1.5c0,0.8-0.7,1.5-1.5,1.5c-0.8,0-1.5-0.7-1.5-1.5
				C35.1,27.2,35.8,26.5,36.7,26.5z"/>
			<path class="st0" d="M34.1,37.6c0.5,0,0.9,0.4,0.9,0.9s-0.4,0.9-0.9,0.9h-3.3c-0.5,0-0.9-0.4-0.9-0.9s0.4-0.9,0.9-0.9H34.1z"/>
			<path class="st0" d="M40.2,34.9c3.8,0,6.9-3.1,6.9-6.9S44,21,40.2,21c-3.8,0-6.9,3.1-6.9,6.9S36.5,34.9,40.2,34.9z M48.7,28
				c0,4.7-3.8,8.4-8.4,8.4c-1.6,0-3.1-0.4-4.4-1.2c-2.4-1.5-4.1-4.1-4.1-7.2c0-4.7,3.8-8.4,8.4-8.4c3.7,0,7,2.4,8,5.9
				C48.5,26.2,48.7,27.1,48.7,28z"/>
			<path class="st1" d="M25.5,37.6c0.5,0,0.9,0.4,0.9,0.9s-0.4,0.9-0.9,0.9h-3.3c-0.5,0-0.9-0.4-0.9-0.9s0.4-0.9,0.9-0.9H25.5z"/>
			<path class="st0" d="M19.7,29.2c0,0.1-0.1,0.1-0.1,0.1h-2c-0.1,0-0.1,0.1-0.1,0.1v2c0,0.1-0.1,0.1-0.1,0.1h-2.4
				c-0.1,0-0.1-0.1-0.1-0.1v-2c0-0.1-0.1-0.1-0.1-0.1h-2c-0.1,0-0.1-0.1-0.1-0.1v-2.4c0-0.1,0.1-0.1,0.1-0.1h2
				c0.1,0,0.1-0.1,0.1-0.1v-2c0-0.1,0.1-0.1,0.1-0.1h2.4c0.1,0,0.1,0.1,0.1,0.1v2c0,0.1,0.1,0.1,0.1,0.1h2c0.1,0,0.2,0.1,0.1,0.2
				V29.2z"/>
			<path class="st0" d="M23,28c0-3.8-3.1-6.9-6.9-6.9c-3.8,0-6.9,3.1-6.9,6.9s3.2,6.9,6.9,6.9C19.9,34.9,23,31.8,23,28z M24.5,28
				c0,4.6-3.8,8.4-8.4,8.4c-4.6,0-8.4-3.7-8.4-8.4c0-4.7,3.8-8.4,8.4-8.4C20.7,19.6,24.5,23.4,24.5,28z"/>
			<path class="st0" d="M45.8,51.9c0.9,0,1.8-0.1,2.8-0.4c4.7-1.5,7.2-6.7,5.3-11.8L50.5,27L49.8,25l-0.5-1.7
				c-1.3-4.1-5.1-6.9-9.4-6.9c-1,0-2,0.2-3,0.5c-1.4,0.4-2.7,1.2-3.8,2.3l-0.2,0.2h-9.5l-0.2-0.2c-1.1-1-2.4-1.8-3.8-2.3
				c-1-0.3-2-0.5-3-0.5c-4.3,0-8.1,2.8-9.4,6.9L5.6,27L2.2,39.7C0.5,44.8,3,50,7.6,51.5c0.9,0.3,1.8,0.4,2.8,0.4
				c3.8,0,7.2-2.6,8.4-6.5l1.3-3.5h13.9h2.1l1.3,3.5C38.7,49.3,42,51.9,45.8,51.9z M44,4.2c0,1.8-0.5,3.1-1.5,4.1
				c-1.6,1.6-4,1.6-4.1,1.6h-3.8c-1.4,0-2.5,0.4-3.5,1.1c-1.1,0.8-1.8,2.2-1.8,3.7v3.3h3c1.3-1.1,2.6-1.9,4.2-2.4
				c1.1-0.4,2.3-0.6,3.5-0.6c5,0,9.4,3.2,10.9,8l1.2,3.7l3.5,12.7c1.9,5.9-0.9,11.9-6.4,13.7c-1.1,0.3-2.2,0.5-3.3,0.5
				c-4.5,0-8.4-3-9.9-7.6l-0.9-2.5H21.3l-0.9,2.5c-1.5,4.6-5.4,7.5-9.9,7.5c-1.1,0-2.2-0.2-3.3-0.5c-5.5-1.8-8.4-7.8-6.5-13.7
				l3.5-12.6l1.2-3.8c1.5-4.8,5.9-8,10.9-8c1.1,0,2.3,0.2,3.5,0.6c1.6,0.5,3,1.3,4.2,2.4h3.8v-3.3c0-2,0.9-3.8,2.3-5
				c1.2-0.9,2.7-1.3,4.4-1.3h3.9c0,0,1.8,0,3-1.1c0.7-0.7,1.1-1.7,1.1-3V0.3H44V4.2z"/>
		</g>
		<g>
		</g>
	</g>
</g>
</svg>
