<?xml version="1.0" encoding="utf-8"?>
<!-- Generator: Adobe Illustrator 19.2.1, SVG Export Plug-In . SVG Version: 6.00 Build 0)  -->
<svg version="1.1" id="Layer_1" xmlns="http://www.w3.org/2000/svg" xmlns:xlink="http://www.w3.org/1999/xlink" x="0px" y="0px"
	 viewBox="0 0 58.5 59.2" style="enable-background:new 0 0 58.5 59.2;" xml:space="preserve">
<style type="text/css">
	.st0{fill:#F59E22;}
</style>
<g id="иконки_5_">
	<g>
		<g>
			<g>
				<polygon class="st0" points="46.3,3.5 58.5,3.5 58.5,5.4 48.1,5.4 48.1,6.3 46.3,6.3 				"/>
				<polygon class="st0" points="35.9,0.6 49.1,0.6 49.1,2.5 37.7,2.5 37.7,3.5 35.9,3.5 				"/>
				<rect x="32.1" y="30.9" class="st0" width="1.9" height="1.9"/>
				<rect x="28.3" y="30.9" class="st0" width="1.9" height="1.9"/>
				<rect x="24.5" y="30.9" class="st0" width="1.9" height="1.9"/>
				<path d="M19.8,26.1v-5.4v-3.7l-15.1,5v4H19.8z M53.8,17.1l-15.1,5v4h15.1V17.1z M41.6,19.1l-1-12.8h-5.8l-0.7,9.6l4.5-1.5v5.7
					L41.6,19.1z M9.4,42.2v15.1h8.5V42.2H9.4z M28.3,42.2h-8.5v15.1h8.5V42.2z M36.8,26.1v-5.4v-3.7l-15.1,5v4H36.8z M36.8,30.9h18
					V28h-51v2.8h18.9v1.9H3.8v2.8h51v-2.8H36.8V30.9z M54.7,57.3L54.7,57.3l0-19.8H30.2H3.8v19.8h3.8v-17h22.7v17H54.7z M49.5,16.5
					L49,9.1h-3.9l-0.7,9L49.5,16.5z M50.8,7.2l0.6,8.6l4.3-1.4v11.7h0.9v31.2h1.9v1.9H0v-1.9h1.9V26.1h0.9v-5.4l18.9-6.3v5.7
					l10.5-3.5l0.9-12.2h9.3l0.6,7.7l0.3-4.9H50.8z"/>
			</g>
		</g>
	</g>
</g>
</svg>
