<?xml version="1.0" encoding="utf-8"?>
<!-- Generator: Adobe Illustrator 19.2.1, SVG Export Plug-In . SVG Version: 6.00 Build 0)  -->
<svg version="1.1" id="Layer_1" xmlns="http://www.w3.org/2000/svg" xmlns:xlink="http://www.w3.org/1999/xlink" x="0px" y="0px"
	 viewBox="0 0 63 41.1" style="enable-background:new 0 0 63 41.1;" xml:space="preserve">
<style type="text/css">
	.st0{fill:#F59E22;}
	.st1{fill:#010101;}
</style>
<g id="иконки_4_" transform="translate(0,-952.36218)">
	<g id="XMLID_15_">
		<g>
			<path class="st0" d="M57.9,960.8h-3.6c-0.4,0-0.7-0.3-0.7-0.7v-3.6c0-0.4,0.3-0.7,0.6-0.7c0,0,0,0,0.1,0s0,0,0.1,0h3.6
				c0.4,0,0.7,0.3,0.7,0.7v3.6C58.6,960.5,58.3,960.8,57.9,960.8z M55,959.3h2.2v-2.2H55V959.3z"/>
			<path class="st1" d="M47.7,959.3h2.2v-2.2h-2.2V959.3z M46.3,956.4c0-0.4,0.2-0.7,0.6-0.7c0,0,0.1,0,0.1,0h3.6
				c0.4,0,0.7,0.3,0.7,0.7v3.6c0,0.4-0.3,0.7-0.7,0.7H47c-0.4,0-0.7-0.3-0.7-0.7V956.4z"/>
			<path class="st1" d="M40.5,959.3h2.2v-2.2h-2.2V959.3z M44.1,956.4v3.6c0,0.4-0.3,0.7-0.7,0.7h-3.6c-0.4,0-0.7-0.3-0.7-0.7v-3.6
				c0-0.4,0.2-0.7,0.6-0.7c0,0,0.1,0,0.1,0h3.6C43.8,955.7,44.1,956,44.1,956.4z"/>
			<path class="st1" d="M40.9,976.8H22.6l2.5,8.7h13.4L40.9,976.8z M25.2,974.6c0-3.6,2.9-6.5,6.5-6.5s6.5,2.9,6.5,6.5v0.7h3.6
				c0.1,0,0.1,0,0.2,0c0.4,0.1,0.6,0.5,0.5,0.9l-2.9,10.2c-0.1,0.3-0.4,0.5-0.7,0.5H24.5c-0.3,0-0.6-0.2-0.7-0.5l-2.9-10.2
				c0,0,0,0,0-0.1c-0.1-0.4,0.2-0.8,0.6-0.8c0.1,0,0.1,0,0.1,0h3.6V974.6z M36.8,974.6c0-2.8-2.3-5.1-5.1-5.1s-5.1,2.3-5.1,5.1v0.7
				h10.2V974.6z"/>
			<path class="st1" d="M61.5,992v-28.3H2V992H61.5z M61.5,962.2v-8h-3.6H2v8h55.9H61.5z M63,953.5v39.2c0,0.4-0.3,0.7-0.7,0.7h-61
				c-0.4,0-0.7-0.3-0.7-0.7v-39.2c0-0.4,0.3-0.7,0.7-0.7c0,0,0,0,0,0h61c0.1,0,0.1,0,0.1,0C62.7,952.9,63,953.2,63,953.5z"/>
		</g>
		<g>
		</g>
	</g>
</g>
</svg>
