<?xml version="1.0" encoding="utf-8"?>
<!-- Generator: Adobe Illustrator 19.2.1, SVG Export Plug-In . SVG Version: 6.00 Build 0)  -->
<svg version="1.1" id="Layer_1" xmlns="http://www.w3.org/2000/svg" xmlns:xlink="http://www.w3.org/1999/xlink" x="0px" y="0px"
	 viewBox="0 0 67.9 65" style="enable-background:new 0 0 67.9 65;" xml:space="preserve">
<style type="text/css">
	.st0{fill:#010101;}
	.st1{fill:#F59E22;}
</style>
<g>
	<g id="XMLID_19_">
		<g>
			<path class="st0" d="M50.4,52.7L34.3,64.4c-0.5,0.4-1.3,0.6-2,0.6c-0.4,0-0.8-0.1-1.2-0.2L1.9,53.1l-0.2-0.2
				C0.6,51.4,0,49.6,0,47.7c0-1.6,0.4-3.2,1.3-4.5C0.4,41.8,0,40.3,0,38.7s0.4-3.2,1.3-4.5C0.4,32.8,0,31.3,0,29.7
				c0-1.9,0.6-3.7,1.7-5.2l0,0c0.1-0.1,0.1-0.2,0.2-0.2L34.1,0.9c0.8-0.6,2.2-0.8,3.1-0.4l29,11.6c0.4,0.1,0.6,0.5,0.7,0.9
				c0,0.4-0.1,0.8-0.4,1L66,14.3l0.1,0.1c-0.8,1.1-1.3,2.5-1.3,3.9c0,1,0.3,2,0.7,2.9c0.4-0.1,0.9,0,1.2,0.4
				c0.3,0.5,0.2,1.1-0.2,1.5L66,23.3l0.1,0c-0.8,1.1-1.3,2.5-1.3,3.9c0,1,0.2,2,0.7,2.9c0.4-0.1,0.9,0,1.2,0.4
				c0.3,0.5,0.2,1.1-0.2,1.5L66,32.4l0.1,0c-0.8,1.1-1.3,2.5-1.3,3.9c0,1,0.2,2,0.7,2.9c0.4-0.1,0.9,0,1.2,0.4
				c0.3,0.5,0.2,1.2-0.2,1.5L50.4,52.7z M63.7,22.3c-0.7-1.3-1.1-2.7-1.1-4.1c0-0.5,0-1.1,0.1-1.6L34.3,37.3c-0.5,0.4-1.2,0.6-2,0.6
				c-0.4,0-0.8-0.1-1.1-0.2L3,26.5c-0.5,1-0.9,2.1-0.9,3.2c0,1.3,0.4,2.5,1.1,3.6L32,44.8c0.3,0.1,0.8,0,1.1-0.1l16.1-11.7
				L63.7,22.3z M50.4,34.7L34.3,46.4c-0.5,0.4-1.3,0.6-2,0.6c-0.4,0-0.8-0.1-1.2-0.2L3,35.5c-0.5,1-0.9,2.1-0.9,3.2
				c0,1.3,0.4,2.5,1.1,3.6L32,53.8c0.3,0.1,0.8,0,1.1-0.1L49.1,42l14.6-10.6c-0.7-1.3-1.1-2.7-1.1-4.1c0-0.5,0-1.1,0.1-1.6
				L50.4,34.7z M50.4,43.7L34.3,55.4c-0.5,0.4-1.3,0.6-2,0.6c-0.4,0-0.8-0.1-1.2-0.2L3,44.5c-0.5,1-0.9,2.1-0.9,3.2
				c0,1.3,0.4,2.6,1.1,3.6L32,62.8c0.3,0.1,0.8,0,1.1-0.1L49.1,51l14.6-10.6c-0.7-1.3-1.1-2.7-1.1-4.1c0-0.5,0-1.1,0.1-1.6
				L50.4,43.7z M36.1,2.5c-0.3,0-0.6,0.1-0.7,0.2L4.8,24.9L32,35.7c0,0,0.2,0.1,0.3,0.1c0.3,0,0.6-0.1,0.7-0.2l30.5-22.2L36.4,2.5
				C36.4,2.5,36.3,2.5,36.1,2.5z"/>
		</g>
		<g>
		</g>
	</g>
	<g id="XMLID_20_">
		<g>
			<path class="st1" d="M36.5,7l17.6,7.1c0.4,0.1,0.6,0.5,0.7,0.9c0,0.4-0.1,0.8-0.4,1l-6.5,4.7c-0.2,0.1-0.4,0.2-0.6,0.2
				c-0.1,0-0.3,0-0.4-0.1l-17.6-7c-0.4-0.2-0.6-0.5-0.7-0.9c-0.1-0.4,0.1-0.8,0.4-1l6.5-4.7C35.8,6.9,36.2,6.9,36.5,7z M31.9,12.4
				l15.2,6.1l4.4-3.2L36.3,9.2L31.9,12.4z"/>
		</g>
		<g>
		</g>
	</g>
</g>
</svg>
