<?xml version="1.0" encoding="utf-8"?>
<!-- Generator: Adobe Illustrator 19.2.1, SVG Export Plug-In . SVG Version: 6.00 Build 0)  -->
<svg version="1.1" id="Layer_1" xmlns="http://www.w3.org/2000/svg" xmlns:xlink="http://www.w3.org/1999/xlink" x="0px" y="0px"
	 viewBox="0 0 52.4 57.2" style="enable-background:new 0 0 52.4 57.2;" xml:space="preserve">
<style type="text/css">
	.st0{fill:#010101;}
	.st1{fill:#F59E22;}
</style>
<g>
	<g>
		<g id="XMLID_18_">
			<g>
				<path class="st0" d="M50.7,47.6c1.1,0.5,1.8,1.4,1.8,2.4h-1.8V47.6z"/>
				<polygon class="st0" points="51.4,40 51.7,41.7 50.7,41.9 50.7,40.1 				"/>
				<polygon class="st0" points="50.7,40.1 50.7,41.9 40.2,43.6 40.2,41.8 				"/>
				<path class="st1" d="M47.9,51.2c-1.7,0-2.8-0.8-2.8-1.2c0-0.5,1.1-1.2,2.8-1.2s2.8,0.7,2.8,1.2C50.7,50.5,49.6,51.2,47.9,51.2z"
					/>
				<path class="st0" d="M52.4,50c0,1.7-2,3-4.5,3s-4.5-1.3-4.5-3c0-1.7,2-3,4.5-3c1,0,2,0.2,2.8,0.6V50c0-0.5-1.1-1.2-2.8-1.2
					s-2.8,0.7-2.8,1.2c0,0.5,1.1,1.2,2.8,1.2s2.8-0.8,2.8-1.2H52.4z"/>
				<polygon class="st0" points="40.2,41.8 40.2,43.6 39.4,43.8 39.2,42 				"/>
				<path class="st0" d="M51.7,41.7L51.4,40l-0.8,0.1v-1.8L40.2,40v1.8l-1,0.2l0.3,1.8l0.8-0.1v8.1c-0.2-0.9-0.8-1.6-1.8-2V38.5
					l14-2.3V50c0-1-0.7-1.9-1.8-2.4v-5.7L51.7,41.7z"/>
				<path class="st0" d="M38.4,51.8v-2.1c1,0.5,1.6,1.2,1.8,2v0.1H38.4z"/>
				<path class="st0" d="M37.7,15.1c0.4-0.4,0.8-0.9,1.1-1.4l0.7,0.5l-1,1.5L37.7,15.1z"/>
				<path class="st0" d="M25.9,4.9l12.9,8.9c-0.3,0.5-0.7,1-1.1,1.4L24.9,6.3C25.2,5.8,25.6,5.3,25.9,4.9z"/>
				<path class="st1" d="M35.7,50.9c1.7,0,2.8,0.7,2.8,1.2c0,0.5-1.1,1.2-2.8,1.2c-1.7,0-2.8-0.7-2.8-1.2
					C32.9,51.6,34,50.9,35.7,50.9z"/>
				<path class="st0" d="M35.7,50.9c-1.7,0-2.8,0.7-2.8,1.2c0,0.5,1.1,1.2,2.8,1.2c1.7,0,2.8-0.7,2.8-1.2
					C38.4,51.6,37.3,50.9,35.7,50.9z M31.1,52.1c0-1.7,2-3,4.5-3c1,0,2,0.2,2.7,0.6v2.1h1.8v-0.1c0,0.1,0,0.3,0,0.4c0,1.7-2,3-4.5,3
					C33.1,55.1,31.1,53.8,31.1,52.1z"/>
				<path class="st0" d="M32,19.2c-0.2,0-0.3,0-0.5,0l1.4-1.5l1.3,1.2L34.1,19C33.4,19.2,32.7,19.2,32,19.2z"/>
				<path class="st0" d="M25.2,4.3l0.8,0.5c-0.4,0.4-0.7,0.9-1,1.5l-0.8-0.5L25.2,4.3z"/>
				<path class="st0" d="M31.6,19.2c-3.7-0.2-6.9-2.3-8.4-5.6l1-1.4l0.3-0.1c1,3.2,4.1,5.4,7.6,5.4c0.3,0,0.6,0,0.9,0l0,0.3
					L31.6,19.2z"/>
				<path class="st0" d="M22.7,11.2l1.5,1l-1,1.4c-0.2-0.3-0.3-0.7-0.4-1c-0.1-0.4-0.2-0.8-0.3-1.1L22.7,11.2z"/>
				<path class="st0" d="M24.2,12.2l-1.5-1l-0.2,0.3c0,0,0,0,0,0c-0.9-4.7,2-9.3,6.6-10.7c1-0.3,1.9-0.4,2.9-0.4
					c4.3,0,8,2.7,9.3,6.6c0.8,2.4,0.6,4.9-0.6,7.1c-1.2,2.3-3.2,4-5.8,4.8c-0.3,0.1-0.5,0.1-0.8,0.2l0.1-0.1l-1.3-1.2l0-0.3
					c0.5-0.1,1-0.2,1.5-0.3c1.3-0.4,2.4-1,3.3-1.9l0.8,0.6l1-1.5l-0.7-0.5c0.1-0.2,0.2-0.3,0.3-0.5c0.9-1.8,1.1-3.8,0.5-5.7
					c-1-3.2-4.1-5.4-7.6-5.4c-0.8,0-1.6,0.1-2.4,0.4c-1.5,0.5-2.8,1.3-3.7,2.4l-0.8-0.5l-1,1.5l0.8,0.5c-0.8,1.4-1,3.1-0.7,4.8
					c0.1,0.3,0.1,0.6,0.2,0.9L24.2,12.2z"/>
				<path class="st0" d="M32,19.2c0.7,0,1.4-0.1,2.1-0.2L13.3,42.5L12.7,42l1.1-1.4L13.1,40l18.5-20.8C31.7,19.2,31.9,19.2,32,19.2z
					"/>
				<polygon class="st0" points="13.7,40.5 12.7,42 11.9,41.4 13.1,40 				"/>
				<polygon class="st0" points="13.1,40 11.9,41.4 7.1,37.6 8.1,36.2 				"/>
				<polygon class="st0" points="8.1,36.2 7.1,37.6 6.3,37.1 7.4,35.6 				"/>
				<path class="st0" d="M5.9,45.2c0,0-0.1,0.1-0.1,0.2l-1.5-1C4.5,44.1,4.6,44,4.6,44L5.9,45.2z"/>
				<path class="st0" d="M1.7,42.4l20.8-30.9c0.1,0.4,0.2,0.8,0.3,1.1c0.1,0.4,0.3,0.7,0.4,1L8.1,36.2l-0.7-0.5l-1.1,1.4l0.8,0.6
					l-2.9,4.3l4.4,3.2l3.3-3.7l0.8,0.6l0.6,0.5l-4.4,5l-3-2.2c0.1-0.1,0.1-0.1,0.1-0.2L4.6,44c-0.1,0.1-0.1,0.2-0.3,0.3L1.7,42.4z"
					/>
				<path class="st0" d="M5.8,45.3c-1.9,2.2-4.6,6.3-3.9,8.4C2,54,2.3,54.9,4.1,55.3c5,1,8.9-2.7,12.3-6c1.4-1.3,2.6-2.5,3.8-3.3
					c4.5-2.8,9.4-2.2,11.4-0.1l-1.3,1.2c-1.3-1.4-5.2-2-9.1,0.4c-1.1,0.7-2.3,1.8-3.6,3c-3.1,3-6.9,6.6-11.8,6.6
					c-0.7,0-1.3-0.1-2.1-0.2c-1.9-0.4-3.1-1.3-3.6-2.7c-1.2-3.5,3-8.7,4.2-10L5.8,45.3z"/>
			</g>
			<g>
			</g>
		</g>
	</g>
</g>
</svg>
