<?xml version="1.0" encoding="utf-8"?>
<!-- Generator: Adobe Illustrator 19.2.1, SVG Export Plug-In . SVG Version: 6.00 Build 0)  -->
<svg version="1.1" id="Layer_1" xmlns="http://www.w3.org/2000/svg" xmlns:xlink="http://www.w3.org/1999/xlink" x="0px" y="0px"
	 viewBox="0 0 78.4 48.2" style="enable-background:new 0 0 78.4 48.2;" xml:space="preserve">
<style type="text/css">
	.st0{fill:#F59E22;}
	.st1{fill:#010101;}
</style>
<g>
	<g id="XMLID_16_">
		<g>
			<path class="st0" d="M52.6,32.9l-1.9,1.4c-0.3,0.2-0.7,0.2-1,0c-0.3-0.2-0.4-0.6-0.3-0.9l0.8-2.3l-2-1.4
				c-0.3-0.2-0.4-0.6-0.3-0.9c0.1-0.4,0.4-0.6,0.8-0.6l2.4,0l0.7-2.3c0.2-0.7,1.4-0.7,1.6,0l0.7,2.3l2.4,0c0.4,0,0.7,0.2,0.8,0.6
				c0.1,0.4,0,0.7-0.3,0.9l-2,1.4l0.8,2.3c0.1,0.3,0,0.7-0.3,0.9c-0.1,0.1-0.3,0.2-0.5,0.2c-0.2,0-0.3,0-0.5-0.2L52.6,32.9z"/>
			<path class="st1" d="M46.2,11c0.5,0,0.9,0.4,0.9,0.8c0,0.5-0.4,0.8-0.9,0.8H21.9c-0.5,0-0.9-0.4-0.9-0.8c0-0.5,0.4-0.8,0.9-0.8
				h8.6h6.8H46.2z"/>
			<path class="st1" d="M37.3,7c0.5,0,0.8,0.4,0.8,0.8c0,0.5-0.4,0.8-0.8,0.8h-6.8c-0.5,0-0.9-0.4-0.9-0.8C29.6,7.4,30,7,30.5,7
				H37.3z"/>
			<path class="st0" d="M30.8,33.3l0.8-2.3l-1.9-1.4c-0.3-0.2-0.4-0.6-0.3-0.9c0.1-0.4,0.4-0.6,0.8-0.6l2.4,0l0.7-2.3
				c0.2-0.7,1.4-0.7,1.6,0l0.7,2.3l2.4,0c0,0,0,0,0,0c0.4,0,0.7,0.2,0.8,0.6c0.1,0.4,0,0.7-0.3,0.9l-2,1.4l0.8,2.3
				c0.1,0.3,0,0.7-0.3,0.9c-0.1,0.1-0.3,0.2-0.5,0.2c-0.2,0-0.4,0-0.5-0.2l-2-1.4l-1.9,1.4c-0.3,0.2-0.7,0.2-1,0
				C30.8,34.1,30.7,33.7,30.8,33.3z"/>
			<path class="st0" d="M18.2,31l0.8,2.3c0.1,0.3,0,0.7-0.3,0.9c-0.2,0.1-0.3,0.2-0.5,0.2c-0.2,0-0.4,0-0.5-0.2l-1.9-1.4l-1.9,1.4
				c-0.3,0.2-0.7,0.2-1,0c-0.3-0.2-0.4-0.6-0.3-0.9l0.8-2.3l-1.9-1.4c-0.3-0.2-0.4-0.6-0.3-0.9c0.1-0.4,0.4-0.6,0.8-0.6l2.4,0
				l0.7-2.3c0.2-0.7,1.4-0.7,1.6,0l0.7,2.3l2.4,0c0.4,0,0.7,0.2,0.8,0.6c0.1,0.4,0,0.7-0.3,0.9L18.2,31z"/>
			<path class="st1" d="M25.8,39.4h16.7v-18H25.8V39.4z M24,21.4H7.3v18H24V21.4z M61,21.4H44.2v18H61V21.4z M24.8,41.1H6.4
				c-0.5,0-0.8-0.4-0.8-0.9V20.6c0-0.5,0.4-0.8,0.8-0.8h18.4h0.1h18.4h18.5c0.5,0,0.8,0.4,0.8,0.8v19.7c0,0.5-0.4,0.9-0.8,0.9H43.3
				H24.9H24.8z"/>
			<path class="st1" d="M76.7,32.7v-3.5c0-0.5-0.5-0.9-1.2-0.9h-1.6v2.7c0,0.5-0.4,0.9-0.8,0.9s-0.8-0.4-0.8-0.9v-2.7H68v5.3h5.1
				h2.4C76.2,33.6,76.7,33.2,76.7,32.7z M75.8,16.3c0-1.5-1.2-2.7-2.7-2.7c-1.5,0-2.7,1.2-2.7,2.7c0,1.5,1.2,2.7,2.7,2.7
				C74.6,19,75.8,17.8,75.8,16.3z M33.9,1.7c-8.4,0-15.5,4.5-16.5,10.4c-0.1,0.4-0.4,0.7-0.8,0.7H2.4c-0.3,0-0.6,0.3-0.6,0.6v32.4
				c0,0.3,0.3,0.6,0.6,0.6h62.9c0.3,0,0.6-0.3,0.6-0.6V13.4c0-0.3-0.3-0.6-0.6-0.6H51.2c-0.4,0-0.8-0.3-0.8-0.7
				C49.4,6.2,42.3,1.7,33.9,1.7z M15.8,11.1C17.4,4.7,25,0,33.9,0s16.5,4.8,18,11.2h13.4c1.3,0,2.3,1,2.3,2.3v2.9v10.3h4.6v-6
				c-2-0.4-3.5-2.2-3.5-4.3c0-2.4,2-4.4,4.4-4.4s4.4,2,4.4,4.4c0,2.1-1.5,3.9-3.5,4.3v6h1.6c1.6,0,2.9,1.2,2.9,2.6v3.5
				c0,1.4-1.3,2.6-2.9,2.6h-7.9v10.6c0,1.3-1,2.3-2.3,2.3H2.4c-1.3,0-2.3-1-2.3-2.3V13.4c0-1.3,1-2.3,2.3-2.3H15.8z"/>
		</g>
		<g>
		</g>
	</g>
</g>
</svg>
