<?xml version="1.0" encoding="utf-8"?>
<!-- Generator: Adobe Illustrator 19.2.1, SVG Export Plug-In . SVG Version: 6.00 Build 0)  -->
<svg version="1.1" id="Layer_1" xmlns="http://www.w3.org/2000/svg" xmlns:xlink="http://www.w3.org/1999/xlink" x="0px" y="0px"
	 viewBox="0 0 33.3 63.8" style="enable-background:new 0 0 33.3 63.8;" xml:space="preserve">
<style type="text/css">
	.st0{fill:#F7941E;}
	.st1{fill:#F59E22;}
</style>
<g>
	<g>
		<g id="XMLID_29_">
			<g>
				<path class="st0" d="M28.2,13.5h-23v37.8h23V13.5z M29.9,53H3.5V11.8h26.5V53z"/>
			</g>
			<g>
			</g>
		</g>
	</g>
	<g>
		<g id="XMLID_24_">
			<g>
				<path class="st1" d="M16.7,56c-0.9,0-1.6,0.7-1.6,1.6s0.7,1.6,1.6,1.6c0.9,0,1.6-0.7,1.6-1.6S17.6,56,16.7,56z M16.7,61
					c-1.8,0-3.3-1.5-3.3-3.3c0-1.8,1.5-3.3,3.3-3.3c1.9,0,3.3,1.5,3.3,3.3C20,59.5,18.5,61,16.7,61z"/>
			</g>
			<g>
			</g>
		</g>
	</g>
	<g id="XMLID_28_">
		<g>
			<path class="st0" d="M0.1,57.1V7.7C0.1,4,3.1,1,6.8,1h19.8c3.7,0,6.7,3,6.7,6.7v49.4c0,3.7-3,6.7-6.7,6.7H6.8
				C3.1,63.8,0.1,60.8,0.1,57.1z M31.5,7.7c0-2.7-2.2-4.9-4.9-4.9H6.8C4.1,2.8,1.9,5,1.9,7.7v49.4c0,2.7,2.2,4.9,4.9,4.9h19.8
				c2.7,0,4.9-2.2,4.9-4.9V7.7z"/>
		</g>
		<g>
		</g>
	</g>
</g>
</svg>
