<?xml version="1.0" encoding="utf-8"?>
<!-- Generator: Adobe Illustrator 19.2.1, SVG Export Plug-In . SVG Version: 6.00 Build 0)  -->
<svg version="1.1" id="Layer_1" xmlns="http://www.w3.org/2000/svg" xmlns:xlink="http://www.w3.org/1999/xlink" x="0px" y="0px"
	 viewBox="0 0 68.7 49.1" style="enable-background:new 0 0 68.7 49.1;" xml:space="preserve">
<style type="text/css">
	.st0{fill:#F59E22;}
	.st1{fill:#010101;}
</style>
<g>
	<g id="XMLID_4_">
		<g>
			<path class="st0" d="M62.7,44.8c0,0.9-0.7,1.6-1.6,1.6s-1.7-0.7-1.7-1.6c0-0.9,0.7-1.7,1.7-1.7S62.7,43.9,62.7,44.8z M60.9,44.8
				c0,0.2,0.3,0.2,0.3,0c0-0.1-0.1-0.2-0.1-0.2C61,44.7,60.9,44.7,60.9,44.8z"/>
			<path class="st0" d="M33.3,34c0-0.4-0.3-0.7-0.7-0.7c-0.4,0-0.7,0.3-0.7,0.7c0,0.4,0.3,0.7,0.7,0.7C33,34.7,33.3,34.4,33.3,34z
				 M32.6,31.8c1.2,0,2.2,1,2.2,2.2c0,1.2-1,2.2-2.2,2.2c-1.2,0-2.2-1-2.2-2.2C30.4,32.8,31.4,31.8,32.6,31.8z"/>
			<path class="st1" d="M39.1,47.6c-1.6-1.9-2.4-4.7-2.5-8.6h-8.1c-0.1,3.9-0.9,6.7-2.5,8.6H39.1z M53.4,37.5v-6.4
				c-8.1,0-15,0-20.8,0c-5.5,0-10,0-13.8,0c-11,0-15.3,0-17.1-0.1v2.2c0,2.4,1.9,4.3,4.3,4.3h21.8h4.8h4.8H53.4z M53.4,26.9
				c0-1.4,1.2-2.6,2.6-2.6h7.4V5.8c0-0.3,0-0.6-0.1-0.9C42.1,4.9,28,5,18.8,5C8,5,3.7,4.9,1.8,4.9C1.8,5.2,1.7,5.5,1.7,5.8v23.9
				c4.6,0,31.4,0,51.7,0V26.9z M67.2,28.8H54.9v12.5h12.3V28.8z M66.1,25.8H56c-0.6,0-1.1,0.5-1.1,1.1v0.4h12.3v-0.4
				C67.2,26.3,66.8,25.8,66.1,25.8z M59.2,0c2.4,0,4.4,1.4,5.3,3.5c0.2,0.5,0.2,0.4,0.4,1.1c0.1,0.4,0.1,0.8,0.1,1.2v18.6h1.2
				c1.4,0,2.6,1.2,2.6,2.6v19.6c0,1.4-1.2,2.6-2.6,2.6H56c-1.4,0-2.6-1.2-2.6-2.6V39H38.1c0.1,4.4,1.2,7.3,3.4,8.7
				c0.3,0.2,0.4,0.5,0.3,0.8c-0.1,0.3-0.4,0.5-0.7,0.5h-17c-0.3,0-0.6-0.2-0.7-0.5s0-0.7,0.3-0.8c2.2-1.4,3.3-4.3,3.4-8.7H6
				c-3.2,0-5.8-2.6-5.8-5.8V5.8C0.2,2.6,2.8,0,6,0H59.2z M62.7,3.4c-0.8-1.1-2.1-1.9-3.5-1.9H6c-1.5,0-2.8,0.8-3.6,1.9
				C9.7,3.5,43.2,3.4,62.7,3.4z M67.2,42.8h-6.2h-6.2v3.7c0,0.6,0.5,1.1,1.1,1.1h5.1h5.1c0.6,0,1.1-0.5,1.1-1.1V42.8z"/>
		</g>
		<g>
		</g>
	</g>
</g>
</svg>
