<?xml version="1.0" encoding="utf-8"?>
<!-- Generator: Adobe Illustrator 19.2.1, SVG Export Plug-In . SVG Version: 6.00 Build 0)  -->
<svg version="1.1" id="Layer_1" xmlns="http://www.w3.org/2000/svg" xmlns:xlink="http://www.w3.org/1999/xlink" x="0px" y="0px"
	 viewBox="0 0 68.6 49.6" style="enable-background:new 0 0 68.6 49.6;" xml:space="preserve">
<style type="text/css">
	.st0{fill:#F59E22;}
	.st1{fill:#F7941E;}
</style>
<g>
	<g id="XMLID_21_">
		<g>
			<path class="st0" d="M59.3,45.3c0-0.9,0.8-1.6,1.7-1.6s1.7,0.7,1.7,1.6s-0.7,1.7-1.7,1.7S59.3,46.2,59.3,45.3z M60.8,45.3
				c0,0.2,0.3,0.2,0.3,0c0-0.1-0.1-0.1-0.2-0.1C60.9,45.1,60.8,45.2,60.8,45.3z"/>
			<path class="st0" d="M32.5,36.7c-1.2,0-2.2-1-2.2-2.2c0-1.2,1-2.2,2.2-2.2c1.2,0,2.2,1,2.2,2.2C34.7,35.7,33.7,36.7,32.5,36.7z
				 M31.8,34.5c0,0.4,0.3,0.7,0.7,0.7c0.4,0,0.7-0.3,0.7-0.7c0-0.4-0.3-0.7-0.7-0.7C32.1,33.8,31.8,34.1,31.8,34.5z"/>
			<path class="st1" d="M54.8,29.3v12.5h12.3V29.3H54.8z M66,48.1c0.6,0,1.1-0.5,1.1-1.1v-3.7H61h-6.2V47c0,0.6,0.5,1.1,1.1,1.1H61
				H66z M66,26.3H55.9c-0.6,0-1.1,0.5-1.1,1.1v0.4h12.3v-0.4C67.1,26.8,66.6,26.3,66,26.3z M2.3,3.9c7.3,0,40.7,0,60.3,0
				C61.8,2.8,60.5,2,59,2H5.9C4.4,2,3.1,2.8,2.3,3.9z M28.4,39.5c-0.1,3.9-0.9,6.7-2.5,8.6h13c-1.6-1.9-2.4-4.7-2.5-8.6H28.4z
				 M38,39.5c0.1,4.4,1.2,7.3,3.4,8.7c0.3,0.2,0.4,0.5,0.3,0.8c-0.1,0.3-0.4,0.5-0.7,0.5H24c-0.3,0-0.6-0.2-0.7-0.5
				c-0.1-0.3,0-0.7,0.3-0.8c2.2-1.4,3.3-4.3,3.4-8.7h-21c-3.2,0-5.8-2.6-5.8-5.8V6.3c0-3.2,2.6-5.8,5.8-5.8H59
				c2.4,0,4.4,1.4,5.3,3.5c0.2,0.5,0.2,0.4,0.4,1.1c0.1,0.4,0.1,0.8,0.1,1.2v18.6H66c1.4,0,2.6,1.2,2.6,2.6V47
				c0,1.4-1.2,2.6-2.6,2.6H55.9c-1.4,0-2.6-1.2-2.6-2.6v-7.5H38z M5.9,38h21.8h4.8h4.8h0h16.1v-6.4c-8.1,0-15,0-20.8,0
				c-5.5,0-10,0-13.8,0c-11,0-15.3,0-17.1-0.1v2.2C1.6,36.1,3.5,38,5.9,38z M1.7,5.4C1.7,5.7,1.6,6,1.6,6.3v23.9
				c4.7,0,31.4,0,51.7,0v-2.7c0-1.4,1.2-2.6,2.6-2.6h7.4V6.3c0-0.3,0-0.6-0.1-0.9c-21.3,0-35.3,0-44.6,0C7.9,5.4,3.5,5.4,1.7,5.4z"
				/>
		</g>
		<g>
		</g>
	</g>
</g>
</svg>
