<?xml version="1.0" encoding="utf-8"?>
<!-- Generator: Adobe Illustrator 19.2.1, SVG Export Plug-In . SVG Version: 6.00 Build 0)  -->
<svg version="1.1" id="Layer_1" xmlns="http://www.w3.org/2000/svg" xmlns:xlink="http://www.w3.org/1999/xlink" x="0px" y="0px"
	 viewBox="0 0 60.8 60.1" style="enable-background:new 0 0 60.8 60.1;" xml:space="preserve">
<style type="text/css">
	.st0{fill:#F7941E;}
	.st1{fill:#F59E22;}
</style>
<g>
	<g id="XMLID_27_">
		<g>
			<path class="st0" d="M47,40.5c-3.9-0.5-8.8-1.2-17.3-1.2c-7.1,0-11.9,0.6-15.8,1.2c-1.3,0.2-2.5,0.3-3.7,0.4
				c0.2,4.3,2.6,7.5,5.4,11.1c0.5,0.7,1.1,1.4,1.6,2.1c2.1,2.8,3.6,3.6,6,4.2c0.4,0.1,1,0.2,2,0.3c1,0.1,2.4,0.1,4.3,0.1
				c0.2,0,0.5,0,0.7,0c0.2,0,0.4,0,0.7,0c3.9,0,5.5-0.2,6.3-0.4c2.4-0.6,3.9-1.4,6-4.2c0.6-0.7,1.1-1.5,1.7-2.1
				c2.8-3.6,5.3-6.7,5.5-11C49.3,40.8,48.2,40.6,47,40.5z M46.9,6.2C44,3.5,38.4,2,33.9,1.7c-1.8-0.1-5.5-0.1-7.2,0
				c-5.6,0.4-10.4,2.1-13,4.5C19.1,5.8,26,5.8,29.7,5.8C33.8,5.8,41.2,5.8,46.9,6.2z M56.3,12.3c-1-2.3-2.7-3.8-5-4.1
				C45.9,7.2,35,7.2,29.7,7.2c-4.9,0-15.2,0-20.5,0.9c-2.3,0.4-4,1.8-5,4.1c-3,7.4-3.5,18.4-2.7,23.5c0.6,3.6,3.5,4,4.8,4
				c2.3,0,4.7-0.3,7.4-0.7c3.9-0.5,8.8-1.2,16-1.2c8.6,0,13.6,0.7,17.5,1.2c2.6,0.4,4.6,0.6,7,0.6c1.3,0,4.2-0.4,4.8-4
				C59.8,30.6,59.3,19.7,56.3,12.3z M51.6,6.7c2.8,0.5,4.9,2.2,6,5c3.1,7.6,3.6,19,2.8,24.2c-0.5,3.3-2.8,5.2-6.2,5.2
				c-0.8,0-1.7,0-2.5-0.1c-0.2,4.7-2.8,8-5.8,11.8c-0.5,0.7-1.1,1.4-1.6,2.1c-2.4,3.1-4.2,4.1-6.8,4.7c-1.2,0.3-3.4,0.4-6.7,0.4
				c-0.2,0-0.4,0-0.6,0s-0.4,0-0.6,0c-3.4,0-5.6-0.1-6.7-0.4c-2.6-0.7-4.4-1.6-6.8-4.7c-0.6-0.7-1.1-1.4-1.6-2.1
				C11.6,49,9,45.7,8.8,41c-0.8,0.1-1.7,0.1-2.5,0.1c-3.4,0-5.7-1.9-6.2-5.2c-0.8-5.2-0.3-16.6,2.8-24.2c1.1-2.8,3.2-4.5,6-5
				c0.8-0.1,1.7-0.2,2.6-0.3c2.9-3.9,9.6-5.7,15-6.1c1.9-0.1,5.5-0.1,7.4,0c5.4,0.4,12.3,2.4,15,6.1C50,6.5,50.8,6.6,51.6,6.7z"/>
		</g>
		<g>
		</g>
	</g>
	<g id="XMLID_22_">
		<g>
			<path class="st1" d="M35.1,51.2l0.2,1.6c-1.7,0.2-3.5,0.3-5.4,0.3c-1.6,0-3.1-0.1-4.6-0.2l0.2-1.6C28.6,51.6,32,51.6,35.1,51.2z"
				/>
		</g>
		<g>
		</g>
	</g>
</g>
</svg>
