<?xml version="1.0" encoding="utf-8"?>
<!-- Generator: Adobe Illustrator 19.2.1, SVG Export Plug-In . SVG Version: 6.00 Build 0)  -->
<svg version="1.1" id="Layer_1" xmlns="http://www.w3.org/2000/svg" xmlns:xlink="http://www.w3.org/1999/xlink" x="0px" y="0px"
	 viewBox="0 0 76.3 55.5" style="enable-background:new 0 0 76.3 55.5;" xml:space="preserve">
<style type="text/css">
	.st0{fill:#FFFFFF;}
	.st1{fill:#F59E22;}
	.st2{fill:#F7941E;}
</style>
<g id="XMLID_23_">
	<g>
		<path class="st0" d="M55.1,6.8c7.2,0,13.1,5.9,13.1,13.1c0,7.2-5.9,13-13.1,13c-7.2,0-13-5.9-13-13C42,12.6,47.9,6.8,55.1,6.8z
			 M57.5,19.8c0-1.3-1.1-2.4-2.4-2.4c-1.3,0-2.4,1.1-2.4,2.4c0,1.3,1.1,2.4,2.4,2.4C56.4,22.2,57.5,21.1,57.5,19.8z"/>
		<path class="st1" d="M55.1,17.4c1.3,0,2.4,1.1,2.4,2.4c0,1.3-1.1,2.4-2.4,2.4c-1.3,0-2.4-1.1-2.4-2.4
			C52.7,18.5,53.7,17.4,55.1,17.4z"/>
		<path class="st1" d="M40.9,19.8c0-7.8,6.4-14.2,14.2-14.2S69.3,12,69.3,19.8S62.9,34,55.1,34S40.9,27.6,40.9,19.8z M68.1,19.8
			c0-7.2-5.9-13.1-13.1-13.1c-7.2,0-13,5.9-13,13.1c0,7.2,5.9,13,13,13C62.3,32.9,68.1,27,68.1,19.8z"/>
		<path class="st2" d="M40.9,19.8c0,7.8,6.4,14.2,14.2,14.2s14.2-6.4,14.2-14.2S62.9,5.6,55.1,5.6S40.9,12,40.9,19.8z M68.8,40.1
			H42.5c-0.1,1.8-1.6,2.5-2.7,2.5H5.9c-2,0-2.7-1.6-2.7-2.7v-2.1h-1v14.6c0,0.5,0.4,1,1,1c0,0,2.1,0,3.3,0c0-1.5,0-5.3,0-5.3
			c0-1.7,1.4-3.2,3.2-3.2h57.1c1.7,0,3.2,1.4,3.2,3.2c0,0,0,3.8,0,5.3c1.2,0,3.3,0,3.3,0c0.5,0,1-0.4,1-1V37.8H42.5v2h26.3
			c0.1,0,0.2,0.1,0.2,0.2S68.9,40.1,68.8,40.1z M3.2,55.5c-1.7,0-3.2-1.4-3.2-3.2V5c0-1.7,1.4-3.2,3.2-3.2c0,0,45.3,0,45.8,0
			c2.5-1.1,5.1-1.6,7.8-1.6c10.8,0,19.6,8.8,19.6,19.6c0,0,0,8.6,0,16.9c0,0,0,0,0,0v0c0,7.9,0,15.6,0,15.6c0,1.7-1.4,3.2-3.2,3.2
			h-4.4c-0.6,0-1.1-0.5-1.1-1.1V48c0-0.5-0.4-1-1-1H9.6c-0.5,0-1,0.4-1,1v6.4c0,0.6-0.5,1.1-1.1,1.1H3.2z M5.9,40.5
			c0,0,31.8,0,33.8,0c0.5,0,0.5-0.4,0.5-0.5c0,0,0-3.8,0-5.3c-2,0-29.5,0-29.5,0c-0.3,0-0.6-0.1-0.8-0.3c-0.2-0.2-0.3-0.5-0.3-0.8
			c0,0,0-24.3,0-26.3h-1c0,2,0,26.3,0,26.3c0,0.3-0.1,0.6-0.3,0.8c-0.2,0.2-0.5,0.3-0.8,0.3c0,0-1.2,0-2.1,0v2.1c0,0,0,0,0,0
			c0,0,0,0,0,0v3.2C5.4,40.5,5.8,40.5,5.9,40.5z M3.2,35.6v-2.1c0-0.6,0.5-1.1,1.1-1.1c0,0,1.2,0,2.1,0c0-2,0-26.3,0-26.3
			c0-0.3,0.1-0.6,0.3-0.8C7,5.1,7.2,5,7.5,5h3.2c0.6,0,1.1,0.5,1.1,1.1c0,0,0,1.2,0,3h23.1c0.1,0,0.2,0.1,0.2,0.2
			c0,0.1-0.1,0.2-0.2,0.2H11.9v6.1h23.1c0.1,0,0.2,0.1,0.2,0.2c0,0.1-0.1,0.2-0.2,0.2H11.9V22h23.1c0.1,0,0.2,0.1,0.2,0.2
			c0,0.1-0.1,0.2-0.2,0.2H11.9v6.1h23.1c0.1,0,0.2,0.1,0.2,0.2s-0.1,0.2-0.2,0.2H11.9v3.6c2,0,29.5,0,29.5,0c0.3,0,0.6,0.1,0.8,0.3
			c0.2,0.2,0.3,0.5,0.3,0.8v2.1h8.3c-7-1.9-12.1-8.3-12.1-15.8c0-7.2,4.6-13.3,11-15.5v0c1.7-0.6,3.5-0.9,5.3-0.9
			c9,0,16.4,7.4,16.4,16.4c0,7.6-5.1,13.9-12.1,15.8h14.8V19.8c0-9.6-7.8-17.4-17.4-17.4c-2.5,0-4.9,0.5-7.1,1.5
			C49.4,3.9,49.3,4,49.1,4H10.8H3.2c-0.5,0-1,0.4-1,1v30.7H3.2z"/>
	</g>
	<g>
	</g>
</g>
</svg>
