<?xml version="1.0" encoding="utf-8"?>
<!-- Generator: Adobe Illustrator 19.2.1, SVG Export Plug-In . SVG Version: 6.00 Build 0)  -->
<svg version="1.1" id="Layer_1" xmlns="http://www.w3.org/2000/svg" xmlns:xlink="http://www.w3.org/1999/xlink" x="0px" y="0px"
	 viewBox="0 0 76.3 49.5" style="enable-background:new 0 0 76.3 49.5;" xml:space="preserve">
<style type="text/css">
	.st0{fill:#F59E22;}
	.st1{fill:#F7941E;}
</style>
<g transform="translate(0,-952.36218)">
	<g id="XMLID_10_">
		<g>
			<path class="st0" d="M65.9,958.5v2.6h2.6v-2.6H65.9z M70.3,957.6v4.3c0,0.5-0.4,0.9-0.9,0.9H65c-0.5,0-0.9-0.4-0.9-0.9v-4.3
				c0-0.4,0.3-0.8,0.7-0.9c0,0,0.1,0,0.1,0s0,0,0.1,0h4.3C69.8,956.7,70.3,957.1,70.3,957.6z"/>
			<path class="st1" d="M56.2,956.7C56.2,956.7,56.3,956.7,56.2,956.7c0.1,0,0.1,0,0.2,0h4.3c0.5,0,0.9,0.4,0.9,0.9v4.3
				c0,0.5-0.4,0.9-0.9,0.9h-4.3c-0.5,0-0.9-0.4-0.9-0.9v-4.3C55.5,957.2,55.8,956.8,56.2,956.7z M57.2,961.1h2.6v-2.6h-2.6V961.1z"
				/>
			<path class="st1" d="M56.9,982.8l-8.1-9c-0.5-0.5-0.1-1.4,0.6-1.5c0.3,0,0.5,0.1,0.7,0.3l8.7,9.5c0.3,0.3,0.3,0.9,0,1.2l-8.7,9.5
				c-0.3,0.3-0.9,0.4-1.2,0.1c-0.3-0.3-0.4-0.9-0.1-1.2L56.9,982.8z"/>
			<path class="st1" d="M48.6,958.5v2.6h2.6v-2.6H48.6z M46.8,961.9v-4.3c0-0.4,0.3-0.8,0.7-0.9c0,0,0.1,0,0.2,0H52
				c0.4,0,0.9,0.4,0.9,0.9v4.3c0,0.5-0.4,0.9-0.9,0.9h-4.3C47.2,962.8,46.8,962.4,46.8,961.9z"/>
			<path class="st1" d="M46.7,970.2l-15.6,26c-0.2,0.5-0.8,0.7-1.3,0.4c-0.4-0.3-0.5-0.9-0.2-1.3l15.6-26c0.1-0.2,0.4-0.4,0.7-0.4
				C46.5,968.8,47,969.6,46.7,970.2z"/>
			<path class="st1" d="M27.5,973.8l-8.1,9l8.1,9c0.3,0.3,0.3,0.9-0.1,1.2c-0.3,0.3-0.9,0.3-1.2-0.1l-8.7-9.5
				c-0.3-0.3-0.3-0.9,0-1.2l8.7-9.5c0.1-0.2,0.4-0.3,0.6-0.3C27.5,972.3,28,973.3,27.5,973.8z"/>
			<path class="st1" d="M73.7,964.5V955H56.3H2.6v9.5h58.1H73.7z M75.5,954.1v46.8c0,0.5-0.4,0.9-0.9,0.9H1.7
				c-0.5,0-0.9-0.4-0.9-0.9v-46.8c0-0.4,0.4-0.8,0.8-0.9c0,0,0,0,0.1,0h72.9c0.1,0,0.1,0,0.2,0C75.1,953.3,75.5,953.7,75.5,954.1z
				 M73.7,1000.1v-33.8H2.6v33.8H73.7z"/>
		</g>
		<g>
		</g>
	</g>
</g>
</svg>
