<?xml version="1.0" encoding="utf-8"?>
<!-- Generator: Adobe Illustrator 19.2.1, SVG Export Plug-In . SVG Version: 6.00 Build 0)  -->
<svg version="1.1" id="Layer_1" xmlns="http://www.w3.org/2000/svg" xmlns:xlink="http://www.w3.org/1999/xlink" x="0px" y="0px"
	 viewBox="0 0 72.1 51.3" style="enable-background:new 0 0 72.1 51.3;" xml:space="preserve">
<style type="text/css">
	.st0{fill:#F59E22;}
	.st1{fill:#F7941E;}
</style>
<g id="иконка_1_">
	<g id="XMLID_59_">
		<g>
			<path class="st0" d="M50.2,14.2V7.5c1.8,0,3.5,0.7,4.7,2c1.2,1.2,2,2.9,2,4.7H50.2z M51.3,8.7V13h4.3c-0.2-1.1-0.7-2-1.5-2.8
				C53.3,9.4,52.4,8.9,51.3,8.7z"/>
			<path class="st1" d="M47.9,34.8h2.5v-5.6h-2.5V34.8z M51.6,28.1v7.9h-4.8v-7.9H51.6z"/>
			<path class="st1" d="M41.3,15.7c0-4,3.3-7.3,7.3-7.3h0.6v6.7h6.7v0.6c0,4-3.3,7.3-7.3,7.3C44.6,23,41.3,19.7,41.3,15.7z
				 M48.6,21.9c3.2,0,5.8-2.4,6.1-5.6H48V9.6c-3.1,0.3-5.6,2.9-5.6,6.1C42.5,19.1,45.2,21.9,48.6,21.9z"/>
			<path class="st1" d="M43.9,34.8v-9.5h-2.5v9.5H43.9z M40.2,24.2H45v11.8h-4.8V24.2z"/>
			<path class="st1" d="M37.4,34.8V21h-2.5v13.9H37.4z M38.5,19.8v16.1h-4.8V19.8H38.5z"/>
			<path class="st1" d="M28.3,16.6v18.2h2.5V16.6H28.3z M27.1,15.5h4.8v20.5h-4.8V15.5z"/>
			<path class="st1" d="M21.7,34.8h2.5V13.7h-2.5V34.8z M20.6,12.6h4.8v23.4h-4.8V12.6z"/>
			<path class="st1" d="M6.6,42.7h59V2.5c0-0.4-0.3-0.7-0.7-0.7H7.3c-0.4,0-0.7,0.3-0.7,0.7V42.7z M66.7,43.9c-0.1,0-11.6,0-24.6,0
				c-4,0-8.1,0-12.1,0c-13,0-24.5,0-24.5,0V2.5c0-1,0.8-1.8,1.8-1.8h57.6c1,0,1.8,0.8,1.8,1.8V43.9z"/>
			<path class="st1" d="M40.8,47.2c0.7,0,1.3-0.5,1.4-1.1h29.9v3.1l-3.6,2H3.6l-3.6-2v-3.1h30c0.1,0.6,0.7,1.1,1.4,1.1H40.8z
				 M71,47.2H42.9c-0.5,0.7-1.2,1.1-2.1,1.1h-9.3c-0.9,0-1.7-0.4-2.1-1.1H1.2v1.3l2.7,1.5h36.8h27.5l2.8-1.5V47.2z"/>
		</g>
		<g>
		</g>
	</g>
</g>
</svg>
