<?xml version="1.0" encoding="utf-8"?>
<!-- Generator: Adobe Illustrator 19.2.1, SVG Export Plug-In . SVG Version: 6.00 Build 0)  -->
<svg version="1.1" id="Layer_1" xmlns="http://www.w3.org/2000/svg" xmlns:xlink="http://www.w3.org/1999/xlink" x="0px" y="0px"
	 viewBox="0 0 45.6 59.9" style="enable-background:new 0 0 45.6 59.9;" xml:space="preserve">
<style type="text/css">
	.st0{fill:#F7941E;}
	.st1{fill:#F59E22;}
	.st2{fill:#010101;}
</style>
<g>
	<g id="XMLID_58_">
		<g>
			<polygon class="st0" points="37.5,44.9 38.9,46.3 38.1,47.1 36.7,45.6 35.2,47.1 34.4,46.3 35.9,44.9 34.4,43.4 35.2,42.6 
				36.7,44.1 38.1,42.6 38.9,43.4 			"/>
			<polygon class="st0" points="38.9,48.2 38.9,49.3 24,49.3 23.3,48.2 			"/>
			<polygon class="st0" points="38.9,34.8 38.9,35.9 16.3,35.9 15.6,34.8 			"/>
			<polygon class="st0" points="38.9,28.1 38.9,29.2 13.3,29.2 12.7,28.1 			"/>
			<polygon class="st0" points="38.9,24.8 38.9,25.9 12.8,25.9 12.2,24.8 			"/>
			<rect x="12.1" y="21.4" class="st0" width="26.8" height="1.1"/>
			<rect x="12.1" y="12.5" class="st1" width="12.3" height="1.1"/>
			<rect x="12.1" y="9.1" class="st1" width="10.1" height="1.1"/>
			<polygon class="st0" points="19.3,48.2 19.9,49.3 12.1,49.3 12.1,48.2 			"/>
			<path class="st0" d="M15.2,32.5c0-0.1,0-0.1-0.1-0.1l-0.5-0.9h24.3v1.1H15.2L15.2,32.5z"/>
			<polygon class="st0" points="13.6,38.3 14.2,39.3 12.1,39.3 12.1,38.2 13.5,38.2 			"/>
			<polygon class="st2" points="12.1,35.7 12.2,35.9 12.1,35.9 			"/>
			<path class="st0" d="M41.8,14.7L31.1,4v10.7H41.8z M7.6,52.7c0,1.2,1,2.2,2.2,2.2h13.3l-3.2-5.6l-0.6-1.1l-5.1-8.9l-0.5-0.9
				l-0.1-0.2l-1.3-2.2l-0.1-0.3l-0.4-0.7l-0.2,0.1c-0.1,0.1-0.3,0.1-0.4,0c-0.1,0-0.3-0.1-0.3-0.3l-3.1-5.4V52.7z M45.6,52.7
				c0,2.5-2,4.5-4.5,4.5H28l0.3,2.2v0c0,0.1,0,0.1,0,0.2c-0.1,0.3-0.4,0.5-0.7,0.4c-0.1,0-0.1-0.1-0.2-0.1v0L25,58v0
				c-0.1,0-0.1-0.1-0.1-0.2l-0.4-0.7H9.9c-2.5,0-4.5-2-4.5-4.5V25.6l-5-8.6c-0.1-0.1-0.1-0.3-0.1-0.4c0-0.2,0.1-0.3,0.3-0.3l3.4-2
				c0.1-0.1,0.3-0.1,0.4-0.1c0.1,0,0.3,0.1,0.3,0.3l0.6,1V4.6c0-2.5,2-4.5,4.5-4.5H30c0.3,0,0.6,0.1,0.8,0.3L45.3,15
				c0.2,0.2,0.3,0.5,0.3,0.8V52.7z M41.1,54.9c1.2,0,2.2-1,2.2-2.2V16.9H30c-0.6,0-1.1-0.5-1.1-1.1V2.4h-19c-1.2,0-2.2,1-2.2,2.2
				v11.6c0.1,0,0.1,0.1,0.2,0.2l4.4,8.4l0.6,1.1l0.4,0.7c0.1,0.1,0.1,0.3,0.1,0.4c-0.1,0.3-0.4,0.5-0.7,0.4c-0.2,0-0.3-0.2-0.3-0.3
				h0l-4.6-8.6v0.8l5.1,8.8l0.6,1.1l1.3,2.2l0.5,0.9c0,0,0,0.1,0.1,0.1l0,0.1c0,0,0,0.1,0,0.2c0,0.2-0.1,0.3-0.3,0.3v0l-0.2,0.1
				l0.9,1.6l0.6,1.1l1.3,2.2H30v1.1H18.2l5.1,8.9l0.6,1.1l3.2,5.6H41.1z"/>
		</g>
		<g>
		</g>
	</g>
</g>
</svg>
