<?xml version="1.0" encoding="utf-8"?>
<!-- Generator: Adobe Illustrator 19.2.1, SVG Export Plug-In . SVG Version: 6.00 Build 0)  -->
<svg version="1.1" id="Layer_1" xmlns="http://www.w3.org/2000/svg" xmlns:xlink="http://www.w3.org/1999/xlink" x="0px" y="0px"
	 viewBox="0 0 51.8 50.2" style="enable-background:new 0 0 51.8 50.2;" xml:space="preserve">
<style type="text/css">
	.st0{fill:#F59E22;}
	.st1{fill:#F7941E;}
</style>
<g>
	<g id="XMLID_56_">
		<g>
			<path class="st0" d="M47.9,32.9H36c-1.2,0-2,0.9-2,2c0,1,0.8,1.8,1.8,1.9h11.1c0.2,0,0.3,0,0.5,0h0.5c1.1,0,2-0.9,2-2
				C49.9,33.8,49,32.9,47.9,32.9z M35.1,42.6h11.9c1.2,0,2-0.9,2-2c0-1-0.8-1.8-1.8-1.9H36c-0.2,0-0.3,0-0.4,0h-0.5
				c-1.2,0-2,0.9-2,2S33.9,42.6,35.1,42.6z M32.4,50.2c-2.1,0-3.9-1.7-3.9-3.8c0-1.9,1.4-3.5,3.3-3.8c-0.4-0.6-0.6-1.3-0.6-2.1
				c0-0.5,0.1-1,0.3-1.5c0.3-0.8,0.9-1.4,1.6-1.8c-0.6-0.7-1-1.5-1-2.5c0-0.1,0-0.3,0-0.4c0.2-1.9,1.9-3.4,3.9-3.4h11.9
				c2.1,0,3.9,1.7,3.9,3.8c0,1.4-0.8,2.6-1.9,3.3c0.6,0.7,1,1.5,1,2.5c0,1.9-1.4,3.5-3.3,3.8c0.4,0.6,0.6,1.3,0.6,2.1
				c0,2.1-1.8,3.8-3.9,3.8H32.4z M32.4,44.5c-1.2,0-2,0.9-2,2s0.9,2,2,2h11.9c1.2,0,2-0.9,2-2s-0.9-2-2-2H32.4z"/>
			<path class="st1" d="M10,28.4c0-2.3,1.8-4.2,4.1-4.6v-1c0-0.6,0.5-1.2,1.1-1.2v0c0,0,0,0,0,0c0.6,0,1.1,0.5,1.1,1.2v1
				c2.2,0.5,4.1,2.3,4.1,4.6c0,0.8-0.6,1.2-1.2,1.2c-0.6,0-1.2-0.4-1.2-1.2c0-1.3-1.2-2.4-2.8-2.4c0,0-0.1,0-0.1,0
				c-1.7,0-2.8,1.2-2.8,2.4c0,1.3,1.2,2.5,2.9,2.5c0.5,0,1,0.1,1.5,0.2c2.1,0.6,3.7,2.4,3.7,4.6c0,2.3-1.8,4.2-4.1,4.6v1
				c0,0.6-0.5,1.2-1.2,1.2c-0.6,0-1.2-0.5-1.2-1.2v-1C11.8,39.7,10,38,10,35.6c0-0.8,0.6-1.2,1.2-1.2c0.6,0,1.2,0.4,1.2,1.2
				c0,1.3,1.2,2.5,2.9,2.5c1.7,0,2.9-1.2,2.9-2.5s-1.2-2.5-2.9-2.5c-1.1,0-2.1-0.3-2.9-0.8C11,31.5,10,30.1,10,28.4z"/>
			<path class="st1" d="M15.5,2.3c-0.4,0-0.9,0.1-1.3,0.3c0.3,0.1,0.6,0.3,0.9,0.4c0.4,0.3,0.6,0.8,0.3,1.3
				c-0.3,0.4-0.8,0.6-1.3,0.3c-1.1-0.7-2.4-0.7-3.6-0.3c0.2,0.1,0.3,0.1,0.5,0.2c1,0.3,2.5,0.6,4,0.6c0.9,0,2.5-0.2,3.9-0.5
				c0.7-0.1,1.2-0.3,1.7-0.5c-0.9-0.4-1.8-0.6-2.8-0.4c-0.2,0.1-0.4,0-0.6,0c-0.5-0.2-0.7-0.8-0.5-1.2C16.3,2.3,15.9,2.3,15.5,2.3z
				 M15.1,6.9c-1.7,0-3.4-0.3-4.6-0.7c-0.1,0-0.2-0.1-0.3-0.1c0.9,1.4,1.5,2.9,1.7,4.5c0,0,0,0.1,0,0.1c0,0.1,0,0.1,0,0.2h6.6
				c0.2-1.5,0.8-3.1,1.9-4.9c-0.4,0.1-0.7,0.2-1.1,0.3C17.9,6.7,16.2,6.9,15.1,6.9L15.1,6.9z M11.4,2.2c1.1-1.1,2.5-1.7,3.9-1.8
				c1.4-0.1,2.9,0.4,4,1.4c1.5,0.2,3,0.9,4,2.1c0,0,0,0,0,0.1c0.3,0.4,0.2,1-0.2,1.3c-0.1,0.2-0.4,0.5-0.4,0.6
				c-1.5,2.1-2.2,3.7-2.4,5.2h0.3c0.3,0,0.6,0.1,0.8,0.4c0.3,0.4,0.2,1-0.2,1.3c0.2,0.2,0.4,0.4,0.4,0.7c0,0.5-0.4,0.9-0.9,1
				c0.3,0.8,0.8,1.6,1.4,2.5c1.1,1.5,2.6,2.9,4.1,4.6c1.5,1.7,2.8,3.6,3.7,5.9c0.3,0.9,0.6,1.7,0.8,2.6c0.2,0.9,0.3,1.8,0.3,2.7
				c0,0.6,0,1.2-0.1,1.7c0,0.3-0.1,0.7-0.1,1L29,35.1c0.1-0.8,0.2-1.6,0.2-2.4c0-0.8-0.1-1.6-0.3-2.4c-0.1-0.8-0.4-1.6-0.7-2.3
				c0,0,0,0,0,0c-1.4-4-5-6.7-7.5-10c-0.8-1.1-1.5-2.3-1.9-3.6h-7.3c-0.5,1.8-1.3,3.2-2.3,4.5c-1.6,1.9-3.5,3.5-5.2,6.2
				c-3.3,5.2-3,13.7,1.6,18.2c0,0,0,0,0,0c4.4,4.6,12,5.3,17.2,1.8c0,0,0,0,0,0c0.7-0.4,1.3-0.9,1.9-1.5c0.6-0.5,1.1-1.1,1.6-1.8
				c0.5-0.6,0.9-1.3,1.3-2c0.4-0.7,0.7-1.5,0.9-2.3l1.8,0.5c-0.1,0.2-0.1,0.4-0.2,0.7c-0.2,0.6-0.5,1.3-0.8,1.9
				c-0.4,0.8-0.9,1.6-1.4,2.3c-0.5,0.7-1.1,1.4-1.8,2c-0.7,0.6-1.4,1.2-2.1,1.7c-6,4-14.5,3.2-19.5-2.1C-1.1,39.2-1.4,30,2.4,24
				c1.9-2.9,3.9-4.6,5.3-6.4c0.8-1,1.5-2,1.9-3.3H9.3c-0.3,0-0.6-0.1-0.8-0.4c-0.3-0.4-0.2-1,0.2-1.3c-0.2-0.2-0.4-0.4-0.4-0.7
				c0-0.5,0.4-0.9,0.9-1c0,0,0.1,0,0.1,0H10c0,0,0-0.1,0-0.1C9.7,8.9,8.8,7,7.5,5.6l0,0C7.2,5.2,7.1,4.7,7.4,4.3
				C8.3,3.2,9.6,2.5,11,2.2C11.1,2.2,11.3,2.2,11.4,2.2z"/>
		</g>
		<g>
		</g>
	</g>
</g>
</svg>
