<?xml version="1.0" encoding="utf-8"?>
<!-- Generator: Adobe Illustrator 19.2.1, SVG Export Plug-In . SVG Version: 6.00 Build 0)  -->
<svg version="1.1" id="Layer_1" xmlns="http://www.w3.org/2000/svg" xmlns:xlink="http://www.w3.org/1999/xlink" x="0px" y="0px"
	 viewBox="0 0 66.8 62" style="enable-background:new 0 0 66.8 62;" xml:space="preserve">
<style type="text/css">
	.st0{fill:#FFFFFF;}
	.st1{fill:#F7941E;}
</style>
<g id="XMLID_57_">
	<g>
		<path class="st0" d="M43.7,15.5v14.8l-13.9-9.5c0-0.3,0.1-0.6,0.1-0.9c0,0,0,0,0,0c0,0,0,0,0,0c0-1.4-0.3-2.6-0.8-3.8V5.5
			L43.7,15.5z"/>
		<path class="st1" d="M46.7,56.1l19.1-13.3v-0.5L46.7,55.6V56.1z M45.8,43.7c-0.6,0.5-1.3,0.9-1.8,1.2c1.3,0.7,2.3,2,2.5,3.6
			c0.5-0.3,1.3-0.8,1.9-1.3c1.2-0.8,1.7-1.6,1.7-2.8c0-1.2-1.2-1.5-1.7-1.5C47.7,43,46.8,43.1,45.8,43.7z M42.8,54.5l2.8,1.7v-0.7
			l-2.3-1.4L42.8,54.5z M46.6,49.7c-0.1,1.4-0.8,2.7-1.9,3.4l-0.5,0.4l2,1.2l19.1-13.3L50.3,31.2c0,1.4,0,2.3,0,2.3
			c0,0.2-0.1,0.3-0.2,0.4l-1,0.7c0.2,0.1,0.3,0.3,0.5,0.3c0.5,0.2,1,0.2,1.4,0l0,0c1.2-0.4,2.5,0.3,2.9,1.5c0.4,1.1-0.2,2.3-1.4,2.9
			c-0.4,0.2-2.5,1.4-2.8,2.9c1,0.4,1.5,1.4,1.5,2.3c0,1.5-0.7,2.6-2.1,3.6C48.2,48.7,47.1,49.4,46.6,49.7z M28.2,1.1l18.8,13
			c0.1,0.1,0.2,0.2,0.2,0.4v20.4l0.6-0.4c0,0,0,0,0,0l0.1-0.1l1.5-1.1c0-2,0.1-14.8,0.1-17.4c0-2.5-3.2-5.8-9.1-9.5c0,0,0,0,0,0
			c-5.3-3.6-8.5-5.2-10.1-5.2H28.2z M46.3,36.2L28.5,23.8c-0.1,0.1-0.2,0.3-0.3,0.4v3.6L44.1,39c0.1,0.1,0.2,0.3,0.2,0.4
			c0,0.2-0.1,0.3-0.2,0.4L37.8,44c-0.1,0.1-0.2,0.1-0.3,0.1c-0.1,0-0.2,0-0.3-0.1L27,36.5c1.1,1.3,2.4,2.7,3.4,3.8
			c1.2,1.3,2.2,2.4,2.7,3c0,0,0,0,0,0c0.9,1.5,1.5,3.1,1.7,4.8l4-2.9c0.8-0.6,1.8-0.9,2.8-0.9c0.5,0,0.9,0.1,1.3,0.2L43,44.5
			c0,0,1.2-0.8,2.2-1.5c1.2-0.8,2.3-0.9,3.2-0.9c0.1,0,0.1,0,0.2,0c0.4-1.9,2.6-3.1,3.3-3.5c0.3-0.2,1.2-0.7,0.9-1.7
			c-0.2-0.5-0.7-0.9-1.3-0.9c-0.1,0-0.2,0-0.3,0c-0.3,0.2-0.7,0.2-1.1,0.2s-0.7-0.1-1.1-0.2c-0.4-0.2-0.7-0.4-1-0.7l-1.3,0.9
			c0,0,0,0,0,0c0,0,0,0,0,0c0,0-0.1,0-0.1,0c0,0,0,0,0,0c0,0-0.1,0-0.1,0c0,0-0.1,0-0.1,0c0,0,0,0,0,0
			C46.5,36.3,46.4,36.3,46.3,36.2L46.3,36.2C46.4,36.2,46.4,36.2,46.3,36.2z M29.1,22.9l17,11.9V14.7L27,1.5V13
			c0.4,0.4,0.7,0.8,1.1,1.3V4.5c0-0.2,0.1-0.4,0.3-0.4c0.2-0.1,0.4-0.1,0.5,0l15.6,10.8c0.1,0.1,0.2,0.3,0.2,0.4v16
			c0,0.2-0.1,0.4-0.3,0.4c-0.1,0-0.2,0.1-0.2,0.1c-0.1,0-0.2,0-0.3-0.1l-14.3-9.8C29.4,22.3,29.3,22.6,29.1,22.9z M29.1,5.5V16
			c0.5,1.2,0.8,2.5,0.8,3.8c0,0,0,0,0,0c0,0,0,0,0,0c0,0.3,0,0.6-0.1,0.9l13.9,9.5V15.5L29.1,5.5z M25.1,33.9L37.5,43l5.4-3.7
			L28.1,28.9c-0.1,0.4-0.2,0.8-0.3,1.2l12.8,9c0.2,0.2,0.3,0.5,0.1,0.7c-0.1,0.1-0.3,0.2-0.4,0.2c-0.1,0-0.2,0-0.3-0.1L27.4,31
			c-0.3,0.5-0.6,0.9-0.9,1.3l12,8.4c0.2,0.2,0.3,0.5,0.1,0.7c-0.1,0.1-0.3,0.2-0.4,0.2c-0.1,0-0.2,0-0.3-0.1l-12.1-8.5
			c-0.2,0.2-0.5,0.4-0.8,0.6C25.1,33.7,25.1,33.8,25.1,33.9z M10.1,27.2v-2.3l-3.1,2.3H10.1z M20.8,27.9c0-1.5,1.2-2.8,2.8-2.8
			c2.9,0,5.3-2.4,5.3-5.3c0-4.9-4-8.8-8.9-8.8c-4.9,0-8.9,4-8.9,8.9V28c0,4,3.3,7.3,7.3,7.3c1.3,0,2.4-1.1,2.4-2.4V27.9z M23.6,26.2
			c-1,0-1.8,0.8-1.8,1.8v5c0,0.3,0,0.5-0.1,0.8c3-0.2,5.4-2.8,5.4-5.8V25C26.2,25.7,24.9,26.2,23.6,26.2z M3.7,47.3
			c1.3,1,2.6,1.8,2.7,1.9l17.1,11c0.9,0.5,2,0.8,3,0.8c1.1,0,2.1-0.3,3.1-0.9c-1.8-0.9-3.1-2.8-3.1-5v-4.8c0-0.3,0.2-0.5,0.5-0.5
			c0.3,0,0.5,0.2,0.5,0.5v4.8c0,2.5,2,4.6,4.6,4.6c0.9,0,1.7-0.3,2.5-0.7l9.7-6.7c0.9-0.6,1.4-1.8,1.4-3c0-2.2-1.8-3.9-3.9-3.9
			c-0.8,0-1.6,0.2-2.3,0.7L35,49.4c0,0.1,0,0.2,0,0.3h0v0.1c0,0.5,0.4,0.9,0.9,0.9c0.3,0,0.5,0.2,0.5,0.5c0,0.3-0.2,0.5-0.5,0.5
			c-0.9,0-1.7-0.7-1.9-1.6c0,0,0-0.1,0-0.1v0c0-2.1-0.6-4.2-1.7-6c-0.5-0.6-1.5-1.7-2.6-2.9c-2.9-3.1-5-5.4-5.6-6.9
			c-0.9,0.4-1.8,0.6-2.8,0.6v0c-0.6,1-1.7,1.6-2.9,1.6c-4.5,0-8.2-3.6-8.3-8.1H7.1c-3.2,0-5.8,2.6-5.8,5.8v7.2
			C1.2,43.6,2.5,46.5,3.7,47.3z M5.9,50c-0.1-0.1-1.4-0.9-2.8-1.9c-1.6-1.1-2.9-4.3-2.9-6.9V34c0-3,2-5.6,4.7-6.5l5.2-3.9v-3.7
			c0-5.4,4.4-9.9,9.9-9.9c2.3,0,4.3,0.8,6,2.1V0.6c0,0,0-0.1,0-0.1c0,0,0,0,0,0c0,0,0-0.1,0-0.1c0,0,0,0,0,0c0,0,0.1-0.1,0.1-0.1
			c0,0,0,0,0,0c0,0,0.1,0,0.1-0.1c0,0,0,0,0,0c0,0,0,0,0,0c0,0,0.1,0,0.1,0c0,0,0,0,0,0c0,0,0.1,0,0.1,0h3.6c1.3,0,3.6,0.6,10.6,5.4
			c6.5,4,9.6,7.4,9.6,10.4c0,2,0,9.6,0,14.2l16.2,10.9c0.1,0.1,0.2,0.3,0.2,0.4c0,0,0,0,0,0V43c0,0.2-0.1,0.3-0.2,0.4l-20.1,14
			c-0.1,0.1-0.2,0.1-0.3,0.1c-0.1,0-0.2,0-0.2,0c0,0,0,0,0,0l-1-0.6v0.4h0v-0.4l-3-1.8l-6.8,4.7c0,0,0,0,0,0c-0.9,0.6-1.9,0.9-3,0.9
			c-0.5,0-0.9-0.1-1.3-0.2c-1.2,0.9-2.7,1.4-4.2,1.4c-1.2,0-2.4-0.3-3.5-1l0,0c0,0,0,0-0.1,0L5.9,50L5.9,50z"/>
	</g>
	<g>
	</g>
</g>
</svg>
