<?xml version="1.0" encoding="utf-8"?>
<!-- Generator: Adobe Illustrator 19.2.1, SVG Export Plug-In . SVG Version: 6.00 Build 0)  -->
<svg version="1.1" id="Layer_1" xmlns="http://www.w3.org/2000/svg" xmlns:xlink="http://www.w3.org/1999/xlink" x="0px" y="0px"
	 viewBox="0 0 43.5 55.9" style="enable-background:new 0 0 43.5 55.9;" xml:space="preserve">
<style type="text/css">
	.st0{fill:#F7941E;}
	.st1{fill:#F59E22;}
	.st2{fill:#010101;}
</style>
<g>
	<g>
		<g id="XMLID_46_">
			<g>
				<path class="st0" d="M34.5,22.8c0.4,0,0.7,0.3,0.7,0.7s-0.3,0.7-0.7,0.7H21.7c-0.4,0-0.7-0.3-0.7-0.7s0.3-0.7,0.7-0.7H34.5z"/>
			</g>
			<g>
			</g>
		</g>
	</g>
	<g>
		<g id="XMLID_45_">
			<g>
				<path class="st0" d="M34.5,20c0.4,0,0.7,0.3,0.7,0.7s-0.3,0.7-0.7,0.7H21.7c-0.4,0-0.7-0.3-0.7-0.7s0.3-0.7,0.7-0.7H34.5z"/>
			</g>
			<g>
			</g>
		</g>
	</g>
	<g>
		<g id="XMLID_44_">
			<g>
				<path class="st0" d="M34.5,17.3c0.4,0,0.7,0.3,0.7,0.7c0,0.4-0.3,0.7-0.7,0.7H21.7c-0.4,0-0.7-0.3-0.7-0.7
					c0-0.4,0.3-0.7,0.7-0.7H34.5z"/>
			</g>
			<g>
			</g>
		</g>
	</g>
	<g>
		<g id="XMLID_37_">
			<g>
				<path class="st1" d="M16,20.2c0.4,0,0.7,0.3,0.7,0.7c0,0.4-0.3,0.7-0.7,0.7H8.1c-0.4,0-0.7-0.3-0.7-0.7c0-0.4,0.3-0.7,0.7-0.7
					H16z"/>
			</g>
			<g>
			</g>
		</g>
	</g>
	<g>
		<path class="st2" d="M12,25.5c-0.4,0-0.7-0.3-0.7-0.7v-7.9c0-0.4,0.3-0.7,0.7-0.7c0.4,0,0.7,0.3,0.7,0.7v7.9
			C12.7,25.2,12.4,25.5,12,25.5z"/>
	</g>
	<g>
		<g id="XMLID_36_">
			<g>
				<path class="st1" d="M12.7,16.9v7.9c0,0.4-0.3,0.7-0.7,0.7c-0.4,0-0.7-0.3-0.7-0.7v-7.9c0-0.4,0.3-0.7,0.7-0.7
					C12.4,16.3,12.7,16.5,12.7,16.9z"/>
			</g>
			<g>
			</g>
		</g>
	</g>
	<g>
		<g id="XMLID_43_">
			<g>
				<path class="st0" d="M35.4,50.6c0-1.6,1.3-2.9,2.9-2.9h4.4c0.4,0,0.7,0.3,0.7,0.7c0,0.4-0.3,0.7-0.7,0.7h-4.4
					c-0.8,0-1.5,0.7-1.5,1.5V55c0,0.3-0.3,0.7-0.7,0.7c-0.4,0-0.7-0.3-0.7-0.7V50.6z"/>
			</g>
			<g>
			</g>
		</g>
	</g>
	<g>
		<g id="XMLID_42_">
			<g>
				<path class="st0" d="M25.3,37.8l2.5-8.7c0.1-0.3,0.3-0.5,0.7-0.5c0.4,0,0.6,0.2,0.6,0.5l1.4,6.9h4.3c0.4,0,0.7,0.3,0.7,0.7
					s-0.3,0.7-0.7,0.7H30c-0.4,0-0.6-0.2-0.7-0.5l-1-4.7l-2.3,8c0.1,0.1-0.2,0.3-0.5,0.3h0c-0.3,0-0.5-0.1-0.6-0.4l-2.2-5.6L21.8,37
					c-0.1,0.3-0.3,0.5-0.6,0.5H8.8c-0.4,0-0.7-0.3-0.7-0.7s0.3-0.7,0.7-0.7h11.8l1.3-3.6c0.1-0.3,0.3-0.5,0.6-0.5
					c0.3,0,0.6,0.1,0.6,0.4L25.3,37.8z"/>
			</g>
			<g>
			</g>
		</g>
	</g>
	<g>
		<g id="XMLID_41_">
			<g>
				<path class="st0" d="M21.7,6.4c-1.6,0-3-1.4-3-3s1.4-3,3-3s3,1.4,3,3S23.3,6.4,21.7,6.4z M20,3.5c0,0.9,0.8,1.6,1.6,1.6
					c0.9,0,1.6-0.8,1.6-1.6c0-0.9-0.8-1.6-1.6-1.6C20.8,1.8,20,2.6,20,3.5z"/>
			</g>
			<g>
			</g>
		</g>
	</g>
	<g>
		<g id="XMLID_40_">
			<g>
				<path class="st0" d="M26.5,3.1c1.9,0,3.4,1.5,3.4,3.4v1.5c-0.1,1.8-1.6,3.4-3.5,3.4H17c-1.9,0-3.4-1.5-3.4-3.4V6.5
					c0-1.9,1.5-3.4,3.4-3.4c0.4,0,0.7,0.3,0.7,0.7S17.4,4.4,17,4.4c-1.2,0-2.1,0.9-2.1,2.1v1.5c0,1.2,0.9,2.1,2.1,2.1h9.5
					c1.2,0,2.1-0.9,2.1-2.1V6.5c0-1.2-0.9-2.1-2.1-2.1c-0.4,0-0.7-0.3-0.7-0.7S26.1,3.1,26.5,3.1z"/>
			</g>
			<g>
			</g>
		</g>
	</g>
	<g>
		<g id="XMLID_39_">
			<g>
				<path class="st0" d="M36,54.6c3.4,0,6.2-2.8,6.2-6.2V15c0-3.4-2.8-6.2-6.2-6.2c-0.4,0-0.7-0.3-0.7-0.7c0-0.4,0.3-0.7,0.7-0.7
					c4.2,0,7.6,3.4,7.6,7.6v33.3c-0.1,4.2-3.4,7.6-7.6,7.6H7.5c-4.2,0-7.6-3.4-7.6-7.6V15c0-4.2,3.4-7.6,7.6-7.6
					c0.4,0,0.7,0.3,0.7,0.7c0,0.4-0.3,0.7-0.7,0.7c-3.4,0-6.2,2.8-6.2,6.2v33.3c0,3.4,2.7,6.2,6.2,6.2H36z"/>
			</g>
			<g>
			</g>
		</g>
	</g>
</g>
</svg>
