<?xml version="1.0" encoding="utf-8"?>
<!-- Generator: Adobe Illustrator 19.2.1, SVG Export Plug-In . SVG Version: 6.00 Build 0)  -->
<svg version="1.1" id="Layer_1" xmlns="http://www.w3.org/2000/svg" xmlns:xlink="http://www.w3.org/1999/xlink" x="0px" y="0px"
	 viewBox="0 0 56.1 53.2" style="enable-background:new 0 0 56.1 53.2;" xml:space="preserve">
<style type="text/css">
	.st0{fill:#F7941E;}
	.st1{fill:#F59E22;}
</style>
<g id="иконки_8_">
	<g id="XMLID_38_">
		<g>
			<path class="st0" d="M43.8,26.2c0.8,0,1.5,0.7,1.5,1.5c0,0.8-0.7,1.5-1.5,1.5c-0.8,0-1.5-0.7-1.5-1.5
				C42.3,26.9,42.9,26.2,43.8,26.2z"/>
			<path class="st0" d="M41.7,31.3c0,0.8-0.7,1.5-1.5,1.5c-0.8,0-1.5-0.7-1.5-1.5s0.7-1.5,1.5-1.5C41,29.8,41.7,30.5,41.7,31.3z"/>
			<path class="st0" d="M40.2,22.7c0.8,0,1.5,0.7,1.5,1.5c0,0.8-0.7,1.5-1.5,1.5c-0.8,0-1.5-0.7-1.5-1.5
				C38.7,23.3,39.3,22.7,40.2,22.7z"/>
			<path class="st1" d="M38.1,27.7c0,0.8-0.7,1.5-1.5,1.5c-0.8,0-1.5-0.7-1.5-1.5c0-0.8,0.7-1.5,1.5-1.5
				C37.4,26.2,38.1,26.9,38.1,27.7z"/>
			<path class="st0" d="M34,37.3c0.5,0,1,0.4,1,0.9s-0.4,0.9-1,0.9h-3.3c-0.5,0-0.9-0.4-0.9-0.9s0.4-0.9,0.9-0.9H34z"/>
			<path class="st0" d="M47.1,27.7c0-3.8-3.1-6.9-6.9-6.9c-3.8,0-6.9,3.1-6.9,6.9s3.1,6.9,6.9,6.9C44,34.6,47.1,31.5,47.1,27.7z
				 M40.2,19.3c3.7,0,7,2.5,8,5.9c0.2,0.8,0.4,1.6,0.4,2.5c0,4.7-3.8,8.4-8.4,8.4c-1.8,0-3.4-0.5-4.7-1.4c-2.2-1.5-3.7-4-3.7-6.9
				C31.8,23.1,35.5,19.3,40.2,19.3z"/>
			<path class="st1" d="M25.5,37.3c0.5,0,0.9,0.4,0.9,0.9s-0.4,0.9-0.9,0.9h-3.3c-0.5,0-0.9-0.4-0.9-0.9s0.4-0.9,0.9-0.9H25.5z"/>
			<path class="st0" d="M17.4,26.2c0,0.1,0.1,0.1,0.1,0.1h2c0.1,0,0.2,0.1,0.1,0.2v2.4c0,0.1-0.1,0.1-0.1,0.1h-2
				c-0.1,0-0.1,0.1-0.1,0.1v1.9c0,0.1-0.1,0.1-0.1,0.1h-2.4c-0.1,0-0.1-0.1-0.1-0.1v-2c0-0.1-0.1-0.1-0.1-0.1h-2
				c-0.1,0-0.1-0.1-0.1-0.1v-2.4c0-0.1,0.1-0.1,0.1-0.1h2c0.1,0,0.1-0.1,0.1-0.1v-2c0-0.1,0.1-0.1,0.1-0.1h2.4
				c0.1,0,0.1,0.1,0.1,0.1V26.2z"/>
			<path class="st0" d="M22.9,27.7c0-3.8-3.2-6.9-6.9-6.9c-3.8,0-6.9,3.1-6.9,6.9s3.1,6.9,6.9,6.9C19.9,34.6,22.9,31.5,22.9,27.7z
				 M16,19.3c4.6,0,8.4,3.8,8.4,8.4c0,4.6-3.8,8.4-8.4,8.4c-4.6,0-8.4-3.7-8.4-8.4C7.6,23.1,11.4,19.3,16,19.3z"/>
			<path class="st0" d="M53.9,39.5l-3.5-12.7l-0.7-2L49.2,23c-1.3-4.1-5.1-6.9-9.4-6.9c-1,0-2,0.2-3,0.5c-1.5,0.4-2.7,1.2-3.8,2.3
				l-0.2,0.2h-9.5l-0.2-0.2c-1.1-1-2.4-1.8-3.8-2.3c-1-0.3-2-0.5-3-0.5c-4.3,0-8.1,2.8-9.4,6.9l-1.2,3.7L2.1,39.4
				c-1.6,5.2,0.8,10.3,5.5,11.8c0.9,0.3,1.8,0.4,2.8,0.4c3.8,0,7.2-2.6,8.4-6.5l1.3-3.5H34h2.1l1.3,3.5c1.3,4,4.6,6.5,8.4,6.5
				c0.9,0,1.8-0.1,2.8-0.4C53.3,49.7,55.7,44.5,53.9,39.5z M55.5,39c1.9,5.9-0.9,11.9-6.3,13.7c-1.1,0.3-2.2,0.5-3.3,0.5
				c-4.5,0-8.4-3-9.9-7.6l-1-2.5H21.2l-0.9,2.5c-1.5,4.6-5.3,7.5-9.9,7.5c-1.1,0-2.2-0.2-3.3-0.5c-5.5-1.8-8.4-7.8-6.5-13.7
				l3.5-12.6l1.2-3.8c1.5-4.8,5.9-8,10.9-8c1.1,0,2.3,0.2,3.5,0.6c1.6,0.5,3,1.3,4.2,2.4h3.8v-3.3c0-2,0.9-3.8,2.3-5
				C31.2,8.4,32.8,8,34.5,8h3.9c0,0,1.8,0,3-1.1c0.7-0.7,1.1-1.7,1.1-3V0h1.5v3.9c0,1.8-0.5,3.1-1.5,4.1c-1.6,1.6-4,1.6-4.1,1.6
				h-3.8c-1.4,0-2.5,0.4-3.5,1.1c-1.1,0.8-1.8,2.2-1.8,3.7v3.3h3c1.3-1.1,2.6-2,4.2-2.5c1.1-0.4,2.3-0.6,3.5-0.6c5,0,9.4,3.2,10.9,8
				l1.2,3.7L55.5,39z"/>
		</g>
		<g>
		</g>
	</g>
</g>
</svg>
