<?xml version="1.0" encoding="utf-8"?>
<!-- Generator: Adobe Illustrator 19.2.1, SVG Export Plug-In . SVG Version: 6.00 Build 0)  -->
<svg version="1.1" id="Layer_1" xmlns="http://www.w3.org/2000/svg" xmlns:xlink="http://www.w3.org/1999/xlink" x="0px" y="0px"
	 viewBox="0 0 61 60.6" style="enable-background:new 0 0 61 60.6;" xml:space="preserve">
<style type="text/css">
	.st0{fill:#010101;}
	.st1{fill:#F59E22;}
</style>
<g>
	<path class="st0" d="M57.9,12.2c-1.1-2.8-3.2-4.6-6-5C51,7,50.2,6.9,49.2,6.8c-2.8-3.7-9.6-5.7-15-6.1c-1.9-0.1-5.6-0.1-7.4,0
		c-5.4,0.4-12,2.2-15,6.1C10.8,6.9,10,7,9.2,7.2c-2.8,0.5-4.9,2.2-6,5c-3.1,7.6-3.6,19-2.8,24.2c0.5,3.2,2.8,5.2,6.2,5.2
		c0.8,0,1.7,0,2.5-0.1c0.2,4.7,2.8,8,5.8,11.8c0.5,0.7,1.1,1.4,1.6,2.1c2.4,3.2,4.2,4.1,6.8,4.7c1.1,0.3,3.3,0.4,6.7,0.4
		c0.2,0,0.4,0,0.6,0c0.2,0,0.4,0,0.6,0c3.4,0,5.6-0.1,6.7-0.4c2.6-0.7,4.4-1.6,6.8-4.7c0.6-0.7,1.1-1.4,1.6-2.1
		c3-3.8,5.5-7.1,5.8-11.8c0.8,0.1,1.6,0.1,2.5,0.1c3.4,0,5.7-1.9,6.2-5.2C61.5,31.2,61,19.8,57.9,12.2z M26.9,2.2
		c1.8-0.1,5.4-0.1,7.2,0c4.5,0.3,10.1,1.8,13,4.5C41.4,6.3,34,6.3,29.9,6.3c-3.8,0-10.6,0-16,0.4C16.5,4.3,21.2,2.6,26.9,2.2z
		 M45.1,52.4c-0.5,0.7-1.1,1.4-1.7,2.1c-2.1,2.8-3.6,3.6-6,4.2c-0.7,0.2-2.4,0.4-6.3,0.4v0c-0.2,0-0.4,0-0.7,0c-0.2,0-0.4,0-0.7,0v0
		c-3.9,0-5.5-0.2-6.3-0.4c-2.4-0.6-3.9-1.4-6-4.2c-0.6-0.7-1.1-1.4-1.7-2.1c-2.8-3.6-5.3-6.7-5.5-11.1c1.2-0.1,2.4-0.3,3.7-0.4
		c3.9-0.5,8.7-1.2,15.8-1.2c8.5,0,13.4,0.7,17.3,1.2c1.2,0.2,2.2,0.3,3.3,0.4C50.4,45.7,47.9,48.8,45.1,52.4z M59.2,36.2
		c-0.6,3.6-3.5,4-4.8,4c-2.4,0-4.4-0.3-7-0.6c-4-0.5-8.9-1.2-17.5-1.2c-7.2,0-12,0.6-16,1.2c-2.7,0.4-5,0.7-7.4,0.7
		c-1.3,0-4.2-0.4-4.8-4C1,31.1,1.5,20.1,4.5,12.7c0.9-2.3,2.7-3.8,5-4.1C14.7,7.7,25,7.7,29.9,7.7c5.3,0,16.2,0,21.7,0.9
		c2.3,0.4,4,1.8,5,4.1C59.5,20.1,60,31.1,59.2,36.2z"/>
	<g id="XMLID_5_">
		<g>
			<path class="st1" d="M35.4,51.7l0.2,1.6c-1.7,0.2-3.6,0.3-5.4,0.3c-1.6,0-3.1-0.1-4.6-0.2l0.1-1.6C28.8,52.1,32.2,52,35.4,51.7z"
				/>
		</g>
		<g>
		</g>
	</g>
</g>
</svg>
