<?xml version="1.0" encoding="utf-8"?>
<!-- Generator: Adobe Illustrator 19.2.1, SVG Export Plug-In . SVG Version: 6.00 Build 0)  -->
<svg version="1.1" id="Layer_1" xmlns="http://www.w3.org/2000/svg" xmlns:xlink="http://www.w3.org/1999/xlink" x="0px" y="0px"
	 viewBox="0 0 58.7 59.2" style="enable-background:new 0 0 58.7 59.2;" xml:space="preserve">
<style type="text/css">
	.st0{fill:#F59E22;}
</style>
<g id="иконки_3_">
	<g>
		<path class="st0" d="M56.8,26.1h-0.9V14.4l-4.3,1.4L51,7.2h-7.4l-0.3,4.9l-0.6-7.7h-9.3l-0.9,12.2l-10.5,3.5v-5.7L3,20.7v5.4H2.1
			v31.2H0.2v1.9h58.5v-1.9h-1.9V26.1z M54,26.1H38.9v-4l15.1-5V26.1z M49.2,9.1l0.5,7.4l-5.1,1.7l0.6-9H49.2z M35,6.3h5.8l1,12.8
			l-2.9,1v-5.7l-4.5,1.5L35,6.3z M37,17.1v3.7v5.4H21.9v-4L37,17.1z M4.9,22.1l15.1-5v3.7v5.4H4.9V22.1z M4,32.7h18.9v-1.9H4V28h51
			v2.8H37v1.9h17.9v2.8H4V32.7z M9.6,57.3V42.2h8.5v15.1H9.6z M20,57.3V42.2h8.5v15.1H20z M54.9,57.3H30.4v-17H7.7v17H4V37.5h51
			L54.9,57.3L54.9,57.3z"/>
		<rect x="28.5" y="30.8" class="st0" width="1.9" height="1.9"/>
		<rect x="32.3" y="30.8" class="st0" width="1.9" height="1.9"/>
		<rect x="24.7" y="30.8" class="st0" width="1.9" height="1.9"/>
		<polygon class="st0" points="37.9,2.5 49.3,2.5 49.3,0.6 36.1,0.6 36.1,3.5 37.9,3.5 		"/>
		<polygon class="st0" points="46.4,3.5 46.4,6.3 48.3,6.3 48.3,5.4 58.7,5.4 58.7,3.5 		"/>
	</g>
</g>
</svg>
