<?xml version="1.0" encoding="utf-8"?>
<!-- Generator: Adobe Illustrator 19.2.1, SVG Export Plug-In . SVG Version: 6.00 Build 0)  -->
<svg version="1.1" id="Layer_1" xmlns="http://www.w3.org/2000/svg" xmlns:xlink="http://www.w3.org/1999/xlink" x="0px" y="0px"
	 viewBox="0 0 62.4 40.6" style="enable-background:new 0 0 62.4 40.6;" xml:space="preserve">
<style type="text/css">
	.st0{fill:#F59E22;}
	.st1{fill:#F7941E;}
</style>
<g id="иконки_1_" transform="translate(0,-952.36218)">
	<g id="XMLID_30_">
		<g>
			<path class="st0" d="M53.7,955.3h3.6c0.4,0,0.7,0.3,0.7,0.7v3.6c0,0.4-0.3,0.7-0.7,0.7h-3.6c-0.4,0-0.7-0.3-0.7-0.7V956
				c0-0.4,0.2-0.7,0.6-0.7C53.6,955.3,53.6,955.3,53.7,955.3C53.7,955.3,53.7,955.3,53.7,955.3z M54.4,956.7v2.2h2.2v-2.2H54.4z"/>
			<path class="st1" d="M49.4,958.9v-2.2h-2.2v2.2H49.4z M45.7,959.6V956c0-0.4,0.2-0.7,0.6-0.7c0,0,0.1,0,0.1,0h3.6
				c0.4,0,0.7,0.3,0.7,0.7v3.6c0,0.4-0.3,0.7-0.7,0.7h-3.6C46.1,960.3,45.7,960,45.7,959.6z"/>
			<path class="st1" d="M39.9,958.9h2.2v-2.2h-2.2V958.9z M38.5,956c0-0.4,0.3-0.7,0.6-0.7c0,0,0.1,0,0.1,0h3.6
				c0.4,0,0.7,0.3,0.7,0.7v3.6c0,0.4-0.3,0.7-0.7,0.7h-3.6c-0.4,0-0.7-0.3-0.7-0.7V956z"/>
			<path class="st1" d="M31.2,969.1c-2.8,0-5.1,2.3-5.1,5.1v0.7h10.2v-0.7C36.3,971.3,34,969.1,31.2,969.1z M22,976.3l2.5,8.7h13.4
				l2.5-8.7H22z M20.3,975.8C20.3,975.7,20.3,975.7,20.3,975.8c-0.1-0.5,0.2-0.8,0.6-0.9c0,0,0.1,0,0.1,0h3.6v-0.7
				c0-3.6,2.9-6.5,6.5-6.5c3.6,0,6.5,2.9,6.5,6.5v0.7h3.6c0.1,0,0.1,0,0.2,0c0.4,0.1,0.6,0.5,0.5,0.9l-2.9,10.2
				c-0.1,0.3-0.4,0.5-0.7,0.5H24c-0.3,0-0.6-0.2-0.7-0.5L20.3,975.8z"/>
			<path class="st1" d="M61,991.6v-28.3H1.5v28.3H61z M0.7,952.4h61c0,0,0.1,0,0.1,0c0.4,0.1,0.6,0.4,0.6,0.7v39.2
				c0,0.4-0.3,0.7-0.7,0.7h-61c-0.4,0-0.7-0.3-0.7-0.7v-39.2C0,952.7,0.3,952.4,0.7,952.4C0.7,952.4,0.7,952.4,0.7,952.4z M61,953.8
				h-3.6H1.5v8h55.9H61V953.8z"/>
		</g>
		<g>
		</g>
	</g>
</g>
</svg>
