<?xml version="1.0" encoding="utf-8"?>
<!-- Generator: Adobe Illustrator 19.2.1, SVG Export Plug-In . SVG Version: 6.00 Build 0)  -->
<svg version="1.1" id="Layer_1" xmlns="http://www.w3.org/2000/svg" xmlns:xlink="http://www.w3.org/1999/xlink" x="0px" y="0px"
	 viewBox="0 0 69.2 65" style="enable-background:new 0 0 69.2 65;" xml:space="preserve">
<style type="text/css">
	.st0{fill:#F7941E;}
	.st1{fill:#F59E22;}
</style>
<g>
	<g id="XMLID_34_">
		<g>
			<path class="st0" d="M36.1,2.6L5.6,24.9l27.2,10.9c0,0,0.2,0.1,0.3,0.1c0.3,0,0.6-0.1,0.7-0.2l30.6-22.2L37.2,2.5
				c0,0-0.2,0-0.3,0C36.5,2.5,36.2,2.5,36.1,2.6z M64.4,40.4c-0.7-1.3-1.1-2.7-1.1-4.1c0-0.5,0-1.1,0.1-1.6l-12.4,9L35.1,55.4
				c-0.5,0.4-1.3,0.6-2,0.6c-0.4,0-0.8-0.1-1.2-0.2L3.8,44.5c-0.6,1-0.9,2.1-0.9,3.2c0,1.3,0.4,2.5,1.1,3.6l28.7,11.5
				c0.3,0.1,0.8,0,1.1-0.1L49.9,51L64.4,40.4z M49.9,32.9l14.6-10.6c-0.7-1.3-1.1-2.7-1.1-4.1c0-0.5,0-1.1,0.1-1.6L35.1,37.3
				c-0.5,0.4-1.2,0.6-2,0.6c-0.4,0-0.8-0.1-1.1-0.2L3.8,26.5c-0.6,1-0.9,2.1-0.9,3.2c0,1.3,0.4,2.5,1.1,3.6l28.7,11.5
				c0.3,0.1,0.8,0,1.1-0.1L49.9,32.9z M49.9,42l14.6-10.6c-0.7-1.3-1.1-2.7-1.1-4.1c0-0.5,0-1.1,0.1-1.6l-12.4,9L35.1,46.4
				c-0.5,0.4-1.3,0.6-2,0.6c-0.4,0-0.8-0.1-1.2-0.2L3.8,35.5c-0.6,1-0.9,2.1-0.9,3.2c0,1.3,0.4,2.5,1.1,3.6l28.7,11.5
				c0.3,0.1,0.8,0,1.1-0.1L49.9,42z M66.8,23.4c-0.8,1.1-1.3,2.5-1.3,3.9c0,1,0.2,2,0.7,2.9c0.4-0.1,0.9,0,1.2,0.4
				c0.4,0.5,0.3,1.1-0.2,1.5l-0.4,0.3l0.1,0c-0.8,1.1-1.3,2.5-1.3,3.9c0,1,0.2,2,0.7,2.9c0.4-0.1,0.9,0,1.2,0.4
				c0.3,0.5,0.3,1.1-0.2,1.5L51.1,52.7L35.1,64.4c-0.5,0.4-1.3,0.6-2,0.6c-0.4,0-0.8-0.1-1.2-0.2L2.7,53.1l-0.2-0.2
				c-1.1-1.5-1.7-3.3-1.7-5.2c0-1.6,0.4-3.2,1.3-4.5c-0.9-1.4-1.3-2.9-1.3-4.5c0-1.6,0.4-3.2,1.3-4.5c-0.9-1.4-1.3-2.9-1.3-4.5
				c0-1.9,0.6-3.7,1.7-5.2c0.1-0.1,0.1-0.2,0.2-0.2L34.9,0.9C35.7,0.3,37,0.1,38,0.5l29,11.6c0.4,0.1,0.6,0.5,0.7,0.9
				c0.1,0.4-0.1,0.8-0.4,1l-0.4,0.3l0.1,0.1c-0.8,1.1-1.3,2.5-1.3,3.9c0,1,0.2,2,0.7,2.9c0.4-0.1,0.9,0,1.2,0.4
				c0.3,0.5,0.3,1.1-0.2,1.5L66.8,23.4L66.8,23.4z"/>
		</g>
		<g>
		</g>
	</g>
	<g id="XMLID_33_">
		<g>
			<path class="st1" d="M32.6,12.4l15.3,6.1l4.4-3.2L37,9.2L32.6,12.4z M55.1,15.9l-6.5,4.7c-0.2,0.1-0.4,0.2-0.6,0.2
				c-0.1,0-0.3,0-0.4-0.1l-17.6-7c-0.4-0.2-0.6-0.5-0.7-0.9c-0.1-0.4,0.1-0.8,0.4-1l6.5-4.7c0.3-0.2,0.7-0.3,1-0.1l17.6,7.1
				c0.4,0.1,0.6,0.5,0.7,0.9C55.6,15.3,55.4,15.7,55.1,15.9z"/>
		</g>
		<g>
		</g>
	</g>
</g>
</svg>
