<?xml version="1.0" encoding="utf-8"?>
<!-- Generator: Adobe Illustrator 19.2.1, SVG Export Plug-In . SVG Version: 6.00 Build 0)  -->
<svg version="1.1" id="Layer_1" xmlns="http://www.w3.org/2000/svg" xmlns:xlink="http://www.w3.org/1999/xlink" x="0px" y="0px"
	 viewBox="0 0 53.3 57.6" style="enable-background:new 0 0 53.3 57.6;" xml:space="preserve">
<style type="text/css">
	.st0{fill:#F7941E;}
	.st1{fill:#FFFFFF;}
</style>
<g>
	<g>
		<g id="XMLID_35_">
			<g>
				<path class="st0" d="M51.5,50.3v-2.4c1.1,0.5,1.8,1.4,1.8,2.4H51.5z"/>
				<polygon class="st0" points="52.3,40.3 52.6,42 51.5,42.2 51.5,40.4 				"/>
				<polygon class="st0" points="51.5,40.4 51.5,42.2 41.1,44 41.1,42.1 				"/>
				<path class="st1" d="M48.8,49.1c1.7,0,2.8,0.7,2.8,1.2c0,0.5-1.1,1.2-2.8,1.2c-1.7,0-2.8-0.8-2.8-1.2
					C46,49.8,47.1,49.1,48.8,49.1z"/>
				<path class="st0" d="M48.8,53.3c-2.5,0-4.5-1.3-4.5-3c0-1.7,2-3,4.5-3c1,0,2,0.2,2.8,0.6v2.4c0-0.5-1.1-1.2-2.8-1.2
					c-1.7,0-2.8,0.7-2.8,1.2c0,0.5,1.1,1.2,2.8,1.2c1.7,0,2.8-0.8,2.8-1.2h1.8C53.3,52,51.3,53.3,48.8,53.3z"/>
				<polygon class="st0" points="41.1,42.1 41.1,44 40.3,44.1 40.1,42.3 				"/>
				<path class="st0" d="M39.3,50V38.8l14-2.3v13.8c0-1-0.7-1.9-1.8-2.4v-5.7l1-0.2l-0.3-1.8l-0.8,0.1v-1.8l-10.5,1.7v1.8l-1,0.2
					l0.3,1.8l0.7-0.1v8C40.9,51.2,40.3,50.5,39.3,50z"/>
				<path class="st0" d="M39.3,52.1V50c1,0.5,1.6,1.2,1.8,2v0.1H39.3z"/>
				<path class="st0" d="M40.4,14.6l-1,1.5l-0.8-0.6c0.4-0.4,0.8-0.9,1.1-1.4L40.4,14.6z"/>
				<path class="st0" d="M26.9,5.2L39.7,14c-0.3,0.5-0.7,1-1.1,1.4L25.8,6.7C26.1,6.1,26.4,5.6,26.9,5.2z"/>
				<path class="st1" d="M36.6,53.7c-1.7,0-2.8-0.7-2.8-1.2c0-0.5,1.1-1.2,2.8-1.2s2.8,0.7,2.8,1.2C39.3,52.9,38.2,53.7,36.6,53.7z"
					/>
				<path class="st0" d="M36.6,51.2c-1.7,0-2.8,0.7-2.8,1.2c0,0.5,1.1,1.2,2.8,1.2s2.8-0.7,2.8-1.2C39.3,51.9,38.2,51.2,36.6,51.2z
					 M39.3,52.1h1.8V52c0,0.1,0,0.3,0,0.4c0,1.7-2,3-4.5,3s-4.5-1.3-4.5-3c0-1.7,2-3,4.5-3c1,0,2,0.2,2.7,0.6V52.1z"/>
				<path class="st0" d="M32.9,19.5c-0.2,0-0.3,0-0.5,0l1.4-1.5l1.3,1.2L35,19.3C34.4,19.5,33.6,19.5,32.9,19.5z"/>
				<path class="st0" d="M26.1,4.6l0.8,0.5c-0.4,0.4-0.7,0.9-1,1.5l-0.8-0.6L26.1,4.6z"/>
				<path class="st0" d="M32.5,19.5c-3.7-0.2-6.9-2.3-8.4-5.6l1-1.4l0.3-0.1c1.1,3.2,4.1,5.4,7.6,5.4c0.3,0,0.6,0,0.9,0l0,0.3
					L32.5,19.5z"/>
				<path class="st0" d="M25.1,12.5l-1,1.4c-0.2-0.3-0.3-0.7-0.4-1c-0.1-0.4-0.2-0.8-0.3-1.1l0.2-0.3L25.1,12.5z"/>
				<path class="st0" d="M23.4,11.8c-0.9-4.7,2-9.3,6.6-10.7c1-0.3,1.9-0.4,2.9-0.4c4.3,0,8,2.7,9.3,6.6c0.8,2.4,0.6,4.9-0.6,7.1
					c-1.2,2.3-3.2,4-5.8,4.8c-0.3,0.1-0.5,0.1-0.8,0.2l0.1-0.1L33.8,18l0-0.3c0.5,0,1-0.2,1.5-0.3c1.3-0.4,2.4-1.1,3.3-1.9l0.8,0.6
					l1-1.5L39.7,14c0.1-0.2,0.2-0.3,0.3-0.5c0.9-1.8,1.1-3.8,0.5-5.7c-1-3.2-4.1-5.4-7.6-5.4c-0.8,0-1.6,0.1-2.4,0.4
					c-1.5,0.5-2.8,1.3-3.7,2.4l-0.8-0.5l-1,1.5l0.8,0.6c-0.8,1.4-1,3.1-0.7,4.8c0.1,0.3,0.1,0.6,0.2,0.9l-0.3,0.1l-1.5-1L23.4,11.8
					C23.4,11.8,23.4,11.8,23.4,11.8z"/>
				<path class="st0" d="M35,19.3L14.2,42.8l-0.6-0.5l1.1-1.4L14,40.3l18.5-20.8c0.2,0,0.3,0,0.5,0C33.6,19.5,34.4,19.5,35,19.3z"/>
				<polygon class="st0" points="14.6,40.9 13.5,42.3 12.8,41.7 14,40.3 				"/>
				<polygon class="st0" points="14,40.3 12.8,41.7 8,38 9,36.5 				"/>
				<polygon class="st0" points="9,36.5 8,38 7.2,37.4 8.3,36 				"/>
				<path class="st0" d="M6.8,45.5c0,0.1-0.1,0.1-0.1,0.2l-1.5-1c0.1-0.1,0.2-0.2,0.3-0.3L6.8,45.5z"/>
				<path class="st0" d="M2.6,42.7l20.8-30.9c0.1,0.4,0.2,0.8,0.3,1.1c0.1,0.4,0.3,0.7,0.4,1L9,36.5L8.3,36l-1.1,1.4L8,38l-2.9,4.3
					l4.4,3.2l3.3-3.7l0.8,0.6l0.6,0.5l-4.4,5l-3-2.2c0,0,0.1-0.1,0.1-0.2l-1.3-1.2c0,0.1-0.1,0.2-0.3,0.3L2.6,42.7z"/>
				<path class="st0" d="M1.1,54.6c-1.2-3.5,3-8.6,4.2-10l1.5,1c-1.9,2.2-4.6,6.4-3.9,8.5c0.1,0.3,0.4,1.1,2.2,1.5
					c5,1,8.9-2.7,12.3-6c1.4-1.3,2.6-2.5,3.8-3.3c4.5-2.8,9.4-2.2,11.4-0.1l-1.3,1.2c-1.3-1.4-5.2-2-9.1,0.4
					c-1.1,0.7-2.3,1.8-3.5,3.1c-3.1,3-6.9,6.6-11.8,6.6c-0.7,0-1.3-0.1-2-0.2C2.8,56.9,1.6,56,1.1,54.6z"/>
			</g>
			<g>
			</g>
		</g>
	</g>
</g>
</svg>
