<?xml version="1.0" encoding="utf-8"?>
<!-- Generator: Adobe Illustrator 19.2.1, SVG Export Plug-In . SVG Version: 6.00 Build 0)  -->
<svg version="1.1" id="Layer_1" xmlns="http://www.w3.org/2000/svg" xmlns:xlink="http://www.w3.org/1999/xlink" x="0px" y="0px"
	 viewBox="0 0 63 63.3" style="enable-background:new 0 0 63 63.3;" xml:space="preserve">
<style type="text/css">
	.st0{fill:#F6921E;}
	.st1{fill:#F49D21;}
</style>
<g>
	<g id="XMLID_32_">
		<g>
			<path class="st0" d="M39.4,55.6V58c0,0.3-0.3,0.6-0.6,0.6c-0.3,0-0.6-0.3-0.6-0.6v-2.4c0-0.3,0.3-0.6,0.6-0.6
				C39.2,55,39.4,55.3,39.4,55.6z"/>
			<path class="st0" d="M39.4,48.6v2.4c0,0.3-0.3,0.6-0.6,0.6c-0.3,0-0.6-0.3-0.6-0.6v-2.4c0-0.3,0.3-0.6,0.6-0.6
				C39.2,48,39.4,48.2,39.4,48.6z"/>
			<path class="st0" d="M39.4,41.5v2.4c0,0.3-0.3,0.6-0.6,0.6c-0.3,0-0.6-0.3-0.6-0.6v-2.4c0-0.3,0.3-0.6,0.6-0.6
				C39.2,40.9,39.4,41.2,39.4,41.5z"/>
			<path class="st1" d="M39.4,34.4v2.4c0,0.3-0.3,0.6-0.6,0.6c-0.3,0-0.6-0.3-0.6-0.6v-2.4c0-0.3,0.3-0.6,0.6-0.6
				C39.2,33.8,39.4,34.1,39.4,34.4z"/>
			<path class="st0" d="M39.4,27.3v2.4c0,0.3-0.3,0.6-0.6,0.6c-0.3,0-0.6-0.3-0.6-0.6v-2.4c0-0.3,0.3-0.6,0.6-0.6
				C39.2,26.7,39.4,27,39.4,27.3z"/>
			<path class="st0" d="M39.4,20.2v2.4c0,0.3-0.3,0.6-0.6,0.6c-0.3,0-0.6-0.3-0.6-0.6v-2.4c0-0.3,0.3-0.6,0.6-0.6
				C39.2,19.7,39.4,19.9,39.4,20.2z"/>
			<path class="st0" d="M39.4,13.2v2.4c0,0.3-0.3,0.6-0.6,0.6c-0.3,0-0.6-0.3-0.6-0.6v-2.4c0-0.3,0.3-0.6,0.6-0.6
				C39.2,12.6,39.4,12.8,39.4,13.2z"/>
			<path class="st1" d="M39.4,6.1v2.4c0,0.3-0.3,0.6-0.6,0.6c-0.3,0-0.6-0.3-0.6-0.6V6.1c0-0.3,0.3-0.6,0.6-0.6
				C39.2,5.5,39.4,5.8,39.4,6.1z"/>
			<path class="st0" d="M34.7,55.6V58c0,0.3-0.3,0.6-0.6,0.6c-0.3,0-0.6-0.3-0.6-0.6v-2.4c0-0.3,0.3-0.6,0.6-0.6
				C34.5,55,34.7,55.3,34.7,55.6z"/>
			<path class="st0" d="M34.7,48.6v2.4c0,0.3-0.3,0.6-0.6,0.6c-0.3,0-0.6-0.3-0.6-0.6v-2.4c0-0.3,0.3-0.6,0.6-0.6
				C34.5,48,34.7,48.2,34.7,48.6z"/>
			<path class="st1" d="M34.7,41.5v2.4c0,0.3-0.3,0.6-0.6,0.6c-0.3,0-0.6-0.3-0.6-0.6v-2.4c0-0.3,0.3-0.6,0.6-0.6
				C34.5,40.9,34.7,41.2,34.7,41.5z"/>
			<path class="st0" d="M34.7,34.4v2.4c0,0.3-0.3,0.6-0.6,0.6c-0.3,0-0.6-0.3-0.6-0.6v-2.4c0-0.3,0.3-0.6,0.6-0.6
				C34.5,33.8,34.7,34.1,34.7,34.4z"/>
			<path class="st0" d="M34.7,27.3v2.4c0,0.3-0.3,0.6-0.6,0.6c-0.3,0-0.6-0.3-0.6-0.6v-2.4c0-0.3,0.3-0.6,0.6-0.6
				C34.5,26.7,34.7,27,34.7,27.3z"/>
			<path class="st0" d="M34.7,20.2v2.4c0,0.3-0.3,0.6-0.6,0.6c-0.3,0-0.6-0.3-0.6-0.6v-2.4c0-0.3,0.3-0.6,0.6-0.6
				C34.5,19.7,34.7,19.9,34.7,20.2z"/>
			<path class="st0" d="M34.7,13.2v2.4c0,0.3-0.3,0.6-0.6,0.6c-0.3,0-0.6-0.3-0.6-0.6v-2.4c0-0.3,0.3-0.6,0.6-0.6
				C34.5,12.6,34.7,12.8,34.7,13.2z"/>
			<path class="st0" d="M34.7,6.1v2.4c0,0.3-0.3,0.6-0.6,0.6c-0.3,0-0.6-0.3-0.6-0.6V6.1c0-0.3,0.3-0.6,0.6-0.6
				C34.5,5.5,34.7,5.8,34.7,6.1z"/>
			<path class="st0" d="M30,55.6V58c0,0.3-0.3,0.6-0.6,0.6c-0.3,0-0.6-0.3-0.6-0.6v-2.4c0-0.3,0.3-0.6,0.6-0.6
				C29.7,55,30,55.3,30,55.6z"/>
			<path class="st0" d="M30,48.6v2.4c0,0.3-0.3,0.6-0.6,0.6c-0.3,0-0.6-0.3-0.6-0.6v-2.4c0-0.3,0.3-0.6,0.6-0.6
				C29.7,48,30,48.2,30,48.6z"/>
			<path class="st0" d="M30,41.5v2.4c0,0.3-0.3,0.6-0.6,0.6c-0.3,0-0.6-0.3-0.6-0.6v-2.4c0-0.3,0.3-0.6,0.6-0.6
				C29.7,40.9,30,41.2,30,41.5z"/>
			<path class="st0" d="M30,34.4v2.4c0,0.3-0.3,0.6-0.6,0.6c-0.3,0-0.6-0.3-0.6-0.6v-2.4c0-0.3,0.3-0.6,0.6-0.6
				C29.7,33.8,30,34.1,30,34.4z"/>
			<path class="st0" d="M30,27.3v2.4c0,0.3-0.3,0.6-0.6,0.6c-0.3,0-0.6-0.3-0.6-0.6v-2.4c0-0.3,0.3-0.6,0.6-0.6
				C29.7,26.7,30,27,30,27.3z"/>
			<path class="st0" d="M30,20.2v2.4c0,0.3-0.3,0.6-0.6,0.6c-0.3,0-0.6-0.3-0.6-0.6v-2.4c0-0.3,0.3-0.6,0.6-0.6
				C29.7,19.7,30,19.9,30,20.2z"/>
			<path class="st1" d="M30,13.2v2.4c0,0.3-0.3,0.6-0.6,0.6c-0.3,0-0.6-0.3-0.6-0.6v-2.4c0-0.3,0.3-0.6,0.6-0.6
				C29.7,12.6,30,12.8,30,13.2z"/>
			<path class="st0" d="M30,6.1v2.4C30,8.8,29.7,9,29.4,9c-0.3,0-0.6-0.3-0.6-0.6V6.1c0-0.3,0.3-0.6,0.6-0.6C29.7,5.5,30,5.8,30,6.1
				z"/>
			<path class="st1" d="M25.3,55.6V58c0,0.3-0.3,0.6-0.6,0.6c-0.3,0-0.6-0.3-0.6-0.6v-2.4c0-0.3,0.3-0.6,0.6-0.6
				C25,55,25.3,55.3,25.3,55.6z"/>
			<path class="st0" d="M25.3,48.6v2.4c0,0.3-0.3,0.6-0.6,0.6c-0.3,0-0.6-0.3-0.6-0.6v-2.4c0-0.3,0.3-0.6,0.6-0.6
				C25,48,25.3,48.2,25.3,48.6z"/>
			<path class="st0" d="M25.3,41.5v2.4c0,0.3-0.3,0.6-0.6,0.6c-0.3,0-0.6-0.3-0.6-0.6v-2.4c0-0.3,0.3-0.6,0.6-0.6
				C25,40.9,25.3,41.2,25.3,41.5z"/>
			<path class="st0" d="M25.3,34.4v2.4c0,0.3-0.3,0.6-0.6,0.6c-0.3,0-0.6-0.3-0.6-0.6v-2.4c0-0.3,0.3-0.6,0.6-0.6
				C25,33.8,25.3,34.1,25.3,34.4z"/>
			<path class="st1" d="M25.3,27.3v2.4c0,0.3-0.3,0.6-0.6,0.6c-0.3,0-0.6-0.3-0.6-0.6v-2.4c0-0.3,0.3-0.6,0.6-0.6
				C25,26.7,25.3,27,25.3,27.3z"/>
			<path class="st0" d="M25.3,20.2v2.4c0,0.3-0.3,0.6-0.6,0.6c-0.3,0-0.6-0.3-0.6-0.6v-2.4c0-0.3,0.3-0.6,0.6-0.6
				C25,19.7,25.3,19.9,25.3,20.2z"/>
			<path class="st0" d="M25.3,13.2v2.4c0,0.3-0.3,0.6-0.6,0.6c-0.3,0-0.6-0.3-0.6-0.6v-2.4c0-0.3,0.3-0.6,0.6-0.6
				C25,12.6,25.3,12.8,25.3,13.2z"/>
			<path class="st0" d="M25.3,6.1v2.4C25.3,8.8,25,9,24.7,9c-0.3,0-0.6-0.3-0.6-0.6V6.1c0-0.3,0.3-0.6,0.6-0.6
				C25,5.5,25.3,5.8,25.3,6.1z"/>
			<path class="st0" d="M15.9,55.6V58c0,0.3-0.3,0.6-0.6,0.6c-0.3,0-0.6-0.3-0.6-0.6v-2.4c0-0.3,0.3-0.6,0.6-0.6
				C15.6,55,15.9,55.3,15.9,55.6z"/>
			<path class="st0" d="M15.9,48.6v2.4c0,0.3-0.3,0.6-0.6,0.6c-0.3,0-0.6-0.3-0.6-0.6v-2.4c0-0.3,0.3-0.6,0.6-0.6
				C15.6,48,15.9,48.2,15.9,48.6z"/>
			<path class="st0" d="M15.9,42.7V45c0,0.3-0.3,0.6-0.6,0.6c-0.3,0-0.6-0.3-0.6-0.6v-2.4c0-0.3,0.3-0.6,0.6-0.6
				C15.6,42.1,15.9,42.3,15.9,42.7z"/>
			<path class="st1" d="M15.9,35.6v2.4c0,0.3-0.3,0.6-0.6,0.6c-0.3,0-0.6-0.3-0.6-0.6v-2.4c0-0.3,0.3-0.6,0.6-0.6
				C15.6,35,15.9,35.3,15.9,35.6z"/>
			<path class="st0" d="M15.9,28.5v2.4c0,0.3-0.3,0.6-0.6,0.6c-0.3,0-0.6-0.3-0.6-0.6v-2.4c0-0.3,0.3-0.6,0.6-0.6
				C15.6,27.9,15.9,28.2,15.9,28.5z"/>
			<path class="st0" d="M15.9,21.4v2.4c0,0.3-0.3,0.6-0.6,0.6c-0.3,0-0.6-0.3-0.6-0.6v-2.4c0-0.3,0.3-0.6,0.6-0.6
				C15.6,20.8,15.9,21.1,15.9,21.4z"/>
			<path class="st0" d="M11.1,55.6V58c0,0.3-0.3,0.6-0.6,0.6c-0.3,0-0.6-0.3-0.6-0.6v-2.4c0-0.3,0.3-0.6,0.6-0.6
				C10.9,55,11.1,55.3,11.1,55.6z"/>
			<path class="st1" d="M11.1,48.6v2.4c0,0.3-0.3,0.6-0.6,0.6c-0.3,0-0.6-0.3-0.6-0.6v-2.4c0-0.3,0.3-0.6,0.6-0.6
				C10.9,48,11.1,48.2,11.1,48.6z"/>
			<path class="st0" d="M11.1,42.7V45c0,0.3-0.3,0.6-0.6,0.6c-0.3,0-0.6-0.3-0.6-0.6v-2.4c0-0.3,0.3-0.6,0.6-0.6
				C10.9,42.1,11.1,42.3,11.1,42.7z"/>
			<path class="st0" d="M11.1,35.6v2.4c0,0.3-0.3,0.6-0.6,0.6c-0.3,0-0.6-0.3-0.6-0.6v-2.4c0-0.3,0.3-0.6,0.6-0.6
				C10.9,35,11.1,35.3,11.1,35.6z"/>
			<path class="st0" d="M11.1,28.5v2.4c0,0.3-0.3,0.6-0.6,0.6c-0.3,0-0.6-0.3-0.6-0.6v-2.4c0-0.3,0.3-0.6,0.6-0.6
				C10.9,27.9,11.1,28.2,11.1,28.5z"/>
			<path class="st1" d="M11.1,21.4v2.4c0,0.3-0.3,0.6-0.6,0.6c-0.3,0-0.6-0.3-0.6-0.6v-2.4c0-0.3,0.3-0.6,0.6-0.6
				C10.9,20.8,11.1,21.1,11.1,21.4z"/>
			<path class="st0" d="M6.4,55.6V58c0,0.3-0.3,0.6-0.6,0.6c-0.3,0-0.6-0.3-0.6-0.6v-2.4c0-0.3,0.3-0.6,0.6-0.6
				C6.1,55,6.4,55.3,6.4,55.6z"/>
			<path class="st0" d="M6.4,48.6v2.4c0,0.3-0.3,0.6-0.6,0.6c-0.3,0-0.6-0.3-0.6-0.6v-2.4c0-0.3,0.3-0.6,0.6-0.6
				C6.1,48,6.4,48.2,6.4,48.6z"/>
			<path class="st0" d="M6.4,42.7V45c0,0.3-0.3,0.6-0.6,0.6c-0.3,0-0.6-0.3-0.6-0.6v-2.4c0-0.3,0.3-0.6,0.6-0.6
				C6.1,42.1,6.4,42.3,6.4,42.7z"/>
			<path class="st0" d="M6.4,35.6v2.4c0,0.3-0.3,0.6-0.6,0.6c-0.3,0-0.6-0.3-0.6-0.6v-2.4c0-0.3,0.3-0.6,0.6-0.6
				C6.1,35,6.4,35.3,6.4,35.6z"/>
			<path class="st1" d="M6.4,28.5v2.4c0,0.3-0.3,0.6-0.6,0.6c-0.3,0-0.6-0.3-0.6-0.6v-2.4c0-0.3,0.3-0.6,0.6-0.6
				C6.1,27.9,6.4,28.2,6.4,28.5z"/>
			<path class="st0" d="M6.4,21.4v2.4c0,0.3-0.3,0.6-0.6,0.6c-0.3,0-0.6-0.3-0.6-0.6v-2.4c0-0.3,0.3-0.6,0.6-0.6
				C6.1,20.8,6.4,21.1,6.4,21.4z"/>
			<path class="st0" d="M19.4,16.1H1.7v46h17.7V16.1z M43,62.1V2H20.6v60.2H43z M44.2,1.4v23h18.3c0.3,0,0.6,0.3,0.6,0.6v37.8
				c0,0.3-0.3,0.6-0.6,0.6H1.1c-0.3,0-0.6-0.3-0.6-0.6V15.5c0-0.3,0.3-0.6,0.6-0.6h18.3V1.4c0-0.3,0.3-0.6,0.6-0.6h23.6
				C43.9,0.8,44.2,1,44.2,1.4z M44.2,62.1h17.7V25.5H44.2v3.5h13.6c0.3,0,0.6,0.3,0.6,0.6c0,0.3-0.3,0.6-0.6,0.6H44.2v3.5h13.6
				c0.3,0,0.6,0.3,0.6,0.6c0,0.3-0.3,0.6-0.6,0.6H44.2v3.5h13.6c0.3,0,0.6,0.3,0.6,0.6c0,0.3-0.3,0.6-0.6,0.6H44.2v3.5h13.6
				c0.3,0,0.6,0.3,0.6,0.6c0,0.3-0.3,0.6-0.6,0.6H44.2V48h13.6c0.3,0,0.6,0.3,0.6,0.6c0,0.3-0.3,0.6-0.6,0.6H44.2v3.5h13.6
				c0.3,0,0.6,0.3,0.6,0.6c0,0.3-0.3,0.6-0.6,0.6H44.2v3.5h13.6c0.3,0,0.6,0.3,0.6,0.6c0,0.3-0.3,0.6-0.6,0.6H44.2V62.1z"/>
		</g>
		<g>
		</g>
	</g>
</g>
</svg>
