<?xml version="1.0" encoding="utf-8"?>
<!-- Generator: Adobe Illustrator 19.2.1, SVG Export Plug-In . SVG Version: 6.00 Build 0)  -->
<svg version="1.1" id="Layer_1" xmlns="http://www.w3.org/2000/svg" xmlns:xlink="http://www.w3.org/1999/xlink" x="0px" y="0px"
	 viewBox="0 0 76.3 55.4" style="enable-background:new 0 0 76.3 55.4;" xml:space="preserve">
<style type="text/css">
	.st0{fill:#010101;}
	.st1{fill:#F59E22;}
</style>
<g id="XMLID_6_">
	<g>
		<path class="st0" d="M71.2,41.4c0.4,0,0.8,0.4,0.8,0.8c0,0.4-0.4,0.8-0.8,0.8c-0.5,0-0.8-0.4-0.8-0.8
			C70.4,41.7,70.7,41.4,71.2,41.4z"/>
		<path class="st1" d="M55.1,17.2c1.3,0,2.4,1.1,2.4,2.4c0,1.3-1.1,2.4-2.4,2.4c-1.3,0-2.4-1.1-2.4-2.4
			C52.6,18.3,53.7,17.2,55.1,17.2z"/>
		<path class="st0" d="M55.1,32.3c7,0,12.7-5.7,12.7-12.7c0-7-5.7-12.7-12.7-12.7c-7,0-12.7,5.7-12.7,12.7
			C42.4,26.6,48.1,32.3,55.1,32.3z M55.1,6.6c7.2,0,13,5.9,13,13c0,7.2-5.9,13.1-13,13.1c-7.2,0-13-5.9-13-13.1
			C42,12.4,47.9,6.6,55.1,6.6z"/>
		<path class="st1" d="M68.1,19.6c0-7.2-5.9-13-13-13c-7.2,0-13,5.9-13,13c0,7.2,5.8,13.1,13,13.1C62.3,32.7,68.1,26.8,68.1,19.6z
			 M55.1,5.4c7.8,0,14.2,6.4,14.2,14.2s-6.4,14.2-14.2,14.2c-7.8,0-14.2-6.4-14.2-14.2S47.2,5.4,55.1,5.4z"/>
		<path class="st0" d="M55.1,5.4c-7.8,0-14.2,6.4-14.2,14.2s6.4,14.2,14.2,14.2c7.8,0,14.2-6.4,14.2-14.2S62.9,5.4,55.1,5.4z
			 M7.5,55.3H3.2c-1.7,0-3.2-1.4-3.2-3.2V4.8C0,3,1.4,1.6,3.2,1.6c0,0,45.3,0,45.7,0C51.4,0.5,54,0,56.7,0
			c10.8,0,19.6,8.8,19.6,19.6c0,0,0,8.6,0,16.9c0,0,0,0,0,0v0c0,7.9,0,15.6,0,15.6c0,1.7-1.4,3.2-3.2,3.2h-4.4
			c-0.6,0-1.1-0.5-1.1-1.1v-6.4c0-0.5-0.4-1-1-1H9.6c-0.5,0-1,0.4-1,1v6.4C8.6,54.9,8.1,55.3,7.5,55.3z M3.2,53.2c0,0,2.1,0,3.3,0
			c0-1.5,0-5.4,0-5.4c0-1.7,1.4-3.2,3.2-3.2h57.1c1.7,0,3.2,1.4,3.2,3.2c0,0,0,3.8,0,5.4c1.2,0,3.3,0,3.3,0c0.5,0,1-0.4,1-1V37.6
			H42.5v2h26.3c0.1,0,0.2,0.1,0.2,0.2c0,0.1-0.1,0.2-0.2,0.2H42.5c-0.1,1.8-1.7,2.5-2.7,2.5H5.9c-2,0-2.7-1.6-2.7-2.7v-2.1h-1v14.6
			C2.2,52.7,2.6,53.2,3.2,53.2z M5.9,40.3c0,0,31.8,0,33.8,0c0.5,0,0.5-0.4,0.5-0.5c0,0,0-3.9,0-5.4c-2,0-29.5,0-29.5,0
			c-0.3,0-0.6-0.1-0.8-0.3c-0.2-0.2-0.3-0.5-0.3-0.8c0,0,0-24.3,0-26.3h-1c0,2,0,26.3,0,26.3c0,0.3-0.1,0.6-0.3,0.8
			c-0.2,0.2-0.5,0.3-0.8,0.3c0,0-1.2,0-2.1,0v2.1c0,0,0,0,0,0c0,0,0,0,0,0v3.2C5.4,40.3,5.8,40.3,5.9,40.3z M6.4,32.2
			c0-2,0-26.3,0-26.3c0-0.3,0.1-0.6,0.3-0.8C7,4.9,7.2,4.8,7.5,4.8h3.2c0.6,0,1.1,0.5,1.1,1.1c0,0,0,1.2,0,3h23.1
			C35,9,35.1,9,35.1,9.1S35,9.3,34.9,9.3H11.8v6.1h23.1c0.1,0,0.2,0.1,0.2,0.2c0,0.1-0.1,0.2-0.2,0.2H11.8v6.1h23.1
			c0.1,0,0.2,0.1,0.2,0.2c0,0.1-0.1,0.2-0.2,0.2H11.8v6.1h23.1c0.1,0,0.2,0.1,0.2,0.2s-0.1,0.2-0.2,0.2H11.8v3.6c2,0,29.5,0,29.5,0
			c0.3,0,0.6,0.1,0.8,0.3c0.2,0.2,0.3,0.5,0.3,0.8v2.1h8.3c-7-1.9-12.1-8.3-12.1-15.8c0-7.2,4.6-13.3,11-15.5v0
			c1.7-0.6,3.5-0.9,5.3-0.9c9,0,16.4,7.4,16.4,16.4c0,7.6-5.1,13.9-12.1,15.8h14.8V19.6c0-9.6-7.8-17.4-17.4-17.4
			c-2.5,0-4.9,0.5-7.1,1.5c-0.1,0.1-0.3,0.1-0.4,0.1H10.8H3.2c-0.5,0-1,0.4-1,1v30.7h1v-2.1c0-0.6,0.5-1.1,1.1-1.1
			C4.3,32.2,5.5,32.2,6.4,32.2z"/>
	</g>
	<g>
	</g>
</g>
</svg>
