<?xml version="1.0" encoding="utf-8"?>
<!-- Generator: Adobe Illustrator 19.2.1, SVG Export Plug-In . SVG Version: 6.00 Build 0)  -->
<svg version="1.1" id="Layer_1" xmlns="http://www.w3.org/2000/svg" xmlns:xlink="http://www.w3.org/1999/xlink" x="0px" y="0px"
	 viewBox="0 0 76.3 49.5" style="enable-background:new 0 0 76.3 49.5;" xml:space="preserve">
<style type="text/css">
	.st0{fill:#F59E22;}
	.st1{fill:#010101;}
</style>
<g transform="translate(0,-952.36218)">
	<g id="XMLID_7_">
		<g>
			<path class="st0" d="M68.5,961.1v-2.6h-2.6v2.6H68.5z M64.2,961.9v-4.3c0-0.4,0.3-0.8,0.7-0.9c0,0,0.1,0,0.1,0c0,0,0.1,0,0.1,0
				h4.3c0.5,0,0.9,0.4,0.9,0.9v4.3c0,0.5-0.4,0.9-0.9,0.9H65C64.6,962.8,64.2,962.4,64.2,961.9z"/>
			<path class="st1" d="M59.8,961.1v-2.6h-2.6v2.6H59.8z M61.6,957.6v4.3c0,0.5-0.4,0.9-0.9,0.9h-4.3c-0.5,0-0.9-0.4-0.9-0.9v-4.3
				c0-0.4,0.3-0.8,0.7-0.9c0,0,0,0,0.1,0c0,0,0,0,0.1,0h4.3C61.2,956.7,61.6,957.1,61.6,957.6z"/>
			<path class="st1" d="M58.7,983.3l-8.7,9.5c-0.3,0.3-0.9,0.4-1.2,0.1c-0.3-0.3-0.4-0.9-0.1-1.2l8.1-9l-8.1-9
				c-0.5-0.5-0.1-1.4,0.6-1.5c0.3,0,0.5,0.1,0.7,0.3l8.7,9.5C59,982.5,59,983,58.7,983.3z"/>
			<path class="st1" d="M47.7,956.7H52c0.5,0,0.9,0.4,0.9,0.9v4.3c0,0.5-0.4,0.9-0.9,0.9h-4.3c-0.5,0-0.9-0.4-0.9-0.9v-4.3
				c0-0.4,0.3-0.8,0.7-0.9C47.6,956.7,47.6,956.7,47.7,956.7z M51.2,961.1v-2.6h-2.6v2.6H51.2z"/>
			<path class="st1" d="M29.6,995.3l15.6-26c0.1-0.2,0.4-0.4,0.7-0.4c0.6,0,1.1,0.8,0.8,1.3l-15.6,26c-0.2,0.5-0.8,0.7-1.3,0.4
				C29.4,996.4,29.3,995.7,29.6,995.3z"/>
			<path class="st1" d="M26.2,992.9l-8.7-9.5c-0.3-0.3-0.3-0.9,0-1.2l8.7-9.5c0.1-0.2,0.4-0.3,0.6-0.3c0.7-0.1,1.2,0.9,0.7,1.5
				l-8.1,9l8.1,9c0.3,0.3,0.3,0.9-0.1,1.2C27.1,993.2,26.5,993.2,26.2,992.9z"/>
			<path class="st1" d="M2.6,964.5h58.1h13V955H56.3H2.6V964.5z M2.6,966.3v33.8h71.1v-33.8H2.6z M0.8,954.1c0-0.4,0.4-0.8,0.8-0.9
				c0,0,0,0,0.1,0h72.9c0,0,0.1,0,0.2,0c0.4,0.1,0.7,0.5,0.7,0.9v46.8c0,0.5-0.4,0.9-0.9,0.9H1.7c-0.5,0-0.9-0.4-0.9-0.9V954.1z"/>
		</g>
		<g>
		</g>
	</g>
</g>
</svg>
