<?xml version="1.0" encoding="utf-8"?>
<!-- Generator: Adobe Illustrator 19.2.1, SVG Export Plug-In . SVG Version: 6.00 Build 0)  -->
<svg version="1.1" id="Layer_1" xmlns="http://www.w3.org/2000/svg" xmlns:xlink="http://www.w3.org/1999/xlink" x="0px" y="0px"
	 viewBox="0 0 72 51.1" style="enable-background:new 0 0 72 51.1;" xml:space="preserve">
<style type="text/css">
	.st0{fill:#F59E22;}
	.st1{fill:#010101;}
</style>
<g id="иконка_26_">
	<g id="XMLID_1_">
		<g>
			<path class="st0" d="M50.1,7.3c1.8,0,3.5,0.8,4.7,2c1.2,1.2,2,2.9,2,4.7h-6.7V7.3z M51.2,8.6v4.3h4.3c-0.2-1.1-0.7-2-1.5-2.8
				C53.3,9.3,52.3,8.8,51.2,8.6z"/>
			<path class="st1" d="M51.5,27.9v7.9h-4.8v-7.9H51.5z M50.4,34.7V29h-2.5v5.6H50.4z"/>
			<path class="st1" d="M55.8,15.6c0,4-3.3,7.3-7.3,7.3s-7.3-3.3-7.3-7.3c0-4,3.3-7.3,7.3-7.3h0.6v6.7h6.7V15.6z M48.5,21.7
				c3.2,0,5.8-2.4,6.1-5.6H48V9.5c-3.1,0.3-5.6,2.9-5.6,6.1C42.4,19,45.1,21.7,48.5,21.7z"/>
			<path class="st1" d="M43.8,34.7v-9.5h-2.5v9.5H43.8z M45,24.1v11.8h-4.8V24.1H45z"/>
			<path class="st1" d="M37.3,20.8h-2.5v13.9h2.5V20.8z M38.4,35.8h-4.8V19.7h4.8V35.8z"/>
			<path class="st1" d="M28.2,34.7h2.5V16.5h-2.5V34.7z M31.9,35.8h-4.8V15.4h4.8V35.8z"/>
			<path class="st1" d="M20.5,12.5h4.8v23.4h-4.8V12.5z M21.6,34.7h2.5V13.6h-2.5V34.7z"/>
			<path class="st1" d="M65.5,2.3c0-0.4-0.3-0.7-0.7-0.7H7.2C6.9,1.6,6.5,2,6.5,2.3v40.3h59V2.3z M64.8,0.5c1,0,1.8,0.8,1.8,1.8
				v41.4c-0.1,0-11.6,0-24.6,0c-4,0-8.1,0-12.1,0c-13,0-24.5,0-24.5,0V2.3c0-1,0.8-1.8,1.8-1.8H64.8z"/>
			<path class="st1" d="M70.9,48.5v-1.3H42.8c-0.5,0.7-1.3,1.1-2.1,1.1h-9.3c-0.9,0-1.7-0.4-2.1-1.1H1.1v1.3L3.9,50h36.8h27.5
				L70.9,48.5z M42.1,46h30v3.1l-3.6,2H3.6l-3.6-2V46h30c0.1,0.6,0.7,1.1,1.4,1.1h9.3C41.4,47.1,42,46.6,42.1,46z"/>
		</g>
		<g>
		</g>
	</g>
</g>
</svg>
