<?xml version="1.0" encoding="utf-8"?>
<!-- Generator: Adobe Illustrator 19.2.1, SVG Export Plug-In . SVG Version: 6.00 Build 0)  -->
<svg version="1.1" id="Layer_1" xmlns="http://www.w3.org/2000/svg" xmlns:xlink="http://www.w3.org/1999/xlink" x="0px" y="0px"
	 viewBox="0 0 45.5 59.8" style="enable-background:new 0 0 45.5 59.8;" xml:space="preserve">
<style type="text/css">
	.st0{fill:#010101;}
	.st1{fill:#F59E22;}
</style>
<g>
	<g id="XMLID_8_">
		<g>
			<polygon class="st0" points="37.4,44.7 38.8,46.1 38.1,46.9 36.6,45.5 35.1,46.9 34.4,46.1 35.8,44.7 34.4,43.2 35.1,42.4 
				36.6,43.9 38.1,42.4 38.8,43.2 			"/>
			<polygon class="st0" points="38.8,48 38.8,49.1 23.9,49.1 23.3,48 			"/>
			<polygon class="st0" points="38.8,34.6 38.8,35.7 16.2,35.7 15.6,34.6 			"/>
			<polygon class="st0" points="38.8,27.9 38.8,29 13.3,29 12.6,27.9 			"/>
			<polygon class="st0" points="38.8,24.6 38.8,25.7 12.7,25.7 12.1,24.6 			"/>
			<rect x="12" y="21.2" class="st0" width="26.8" height="1.1"/>
			<rect x="12" y="12.3" class="st1" width="12.3" height="1.1"/>
			<rect x="12" y="8.9" class="st1" width="10.1" height="1.1"/>
			<polygon class="st0" points="19.2,48 19.9,49.1 12,49.1 12,48 			"/>
			<path class="st0" d="M14.5,31.3h24.3v1.1H15.1l0-0.1c0,0,0-0.1-0.1-0.2L14.5,31.3z"/>
			<polygon class="st0" points="13.6,38.2 14.1,39.1 12,39.1 12,38 13.4,38 			"/>
			<polygon class="st0" points="12.1,24.6 12.7,25.7 12.1,24.6 			"/>
			<polygon class="st0" points="12,35.5 12.2,35.7 12,35.7 			"/>
			<path class="st0" d="M41.7,14.5L31,3.8v10.7H41.7z M45.5,15.6v36.9c0,2.5-2,4.5-4.5,4.5H28l0.3,2.2v0c0,0.1,0,0.1,0,0.2
				c-0.1,0.3-0.4,0.5-0.7,0.4c-0.1,0-0.1,0-0.2-0.1l0,0l-2.4-1.8l0,0c-0.1,0-0.1-0.1-0.2-0.2L24.4,57H9.8c-2.5,0-4.5-2-4.5-4.5V25.4
				l-4.9-8.6c-0.1-0.1-0.1-0.3-0.1-0.4s0.1-0.3,0.3-0.3L4,14c0.1-0.1,0.3-0.1,0.4,0c0.1,0,0.3,0.1,0.3,0.3l0.6,1V4.5
				C5.3,2,7.3,0,9.8,0h20.1c0.3,0,0.6,0.1,0.8,0.3l14.5,14.5C45.4,15,45.5,15.3,45.5,15.6z M11.6,34.8l-0.2,0.1
				C11.3,35,11.1,35,11,34.9c-0.2,0-0.3-0.1-0.3-0.3l-3.1-5.4v23.2c0,1.2,1,2.2,2.2,2.2h13.3l-3.2-5.6L19.2,48l-5.7-9.9L13.4,38
				l-1.3-2.2L12,35.5L11.6,34.8z M15.1,32.3l0,0.1c0,0,0,0.1,0,0.2c0,0.2-0.1,0.3-0.3,0.3v0L14.6,33l0.9,1.6l0.6,1.1l1.3,2.2h12.4
				v1.1H18.1l5.1,8.9l0.6,1.1l3.2,5.6h14c1.2,0,2.2-1,2.2-2.2V16.8H29.9c-0.6,0-1.1-0.5-1.1-1.1V2.2h-19c-1.2,0-2.2,1-2.2,2.2V16
				c0.1,0.1,0.1,0.1,0.2,0.2l4.4,8.4l0.6,1.1l0.4,0.7h0c0.1,0.1,0.1,0.3,0.1,0.4c-0.1,0.3-0.4,0.5-0.7,0.4c-0.2,0-0.3-0.1-0.4-0.3
				l-4.6-8.6v0.8l5.1,8.8l0.6,1.1l1.3,2.2l0.5,0.9C15.1,32.2,15.1,32.2,15.1,32.3z"/>
		</g>
		<g>
		</g>
	</g>
</g>
</svg>
