<?xml version="1.0" encoding="utf-8"?>
<!-- Generator: Adobe Illustrator 19.2.1, SVG Export Plug-In . SVG Version: 6.00 Build 0)  -->
<svg version="1.1" id="Layer_1" xmlns="http://www.w3.org/2000/svg" xmlns:xlink="http://www.w3.org/1999/xlink" x="0px" y="0px"
	 viewBox="0 0 51.9 49.8" style="enable-background:new 0 0 51.9 49.8;" xml:space="preserve">
<style type="text/css">
	.st0{fill:#F59E22;}
	.st1{fill:#010101;}
</style>
<g>
	<g id="XMLID_9_">
		<g>
			<path class="st0" d="M46.5,46c0-1.1-0.9-2-2-2H32.6c-1.1,0-2,0.9-2,2s0.9,2,2,2h11.9C45.6,48,46.5,47.1,46.5,46z M47.1,42.2
				c1.2,0,2-0.9,2-2c0-1-0.8-1.8-1.8-1.9H36.2c-0.1,0-0.3,0-0.4,0h-0.5c-1.2,0-2,0.9-2,2s0.9,2,2,2H47.1z M50.1,34.5
				c0-1.1-0.9-2-2-2H36.2c-1.2,0-2,0.9-2,2c0,1,0.8,1.8,1.8,1.9h11.1c0.2,0,0.3,0,0.4,0H48C49.2,36.4,50.1,35.6,50.1,34.5z M48,30.7
				c2.1,0,3.9,1.7,3.9,3.8c0,1.4-0.8,2.6-1.9,3.3c0.6,0.7,1,1.5,1,2.5c0,1.9-1.4,3.5-3.3,3.8c0.4,0.6,0.6,1.3,0.6,2.1
				c0,2.1-1.8,3.8-3.9,3.8H32.6c-2.1,0-3.9-1.7-3.9-3.8c0-1.9,1.4-3.5,3.3-3.8c-0.4-0.6-0.6-1.3-0.6-2.1c0-0.5,0.1-1,0.3-1.5
				c0.3-0.8,0.9-1.4,1.6-1.8c-0.6-0.7-1-1.5-1-2.5c0-0.1,0-0.3,0-0.4c0.2-1.9,1.9-3.4,3.9-3.4H48z"/>
			<path class="st1" d="M18.3,28c0-1.3-1.2-2.4-2.8-2.4c0,0-0.1,0-0.1,0c-1.7,0-2.8,1.2-2.8,2.4c0,1.3,1.2,2.5,2.9,2.5
				c0.5,0,1,0.1,1.5,0.2c2.1,0.6,3.7,2.4,3.7,4.6c0,2.3-1.8,4.2-4.1,4.6v1c0,0.6-0.5,1.2-1.2,1.2c-0.6,0-1.2-0.5-1.2-1.2v-1
				c-2.2-0.5-4.1-2.3-4.1-4.6c0-0.8,0.6-1.2,1.2-1.2c0.6,0,1.2,0.4,1.2,1.2c0,1.3,1.2,2.4,2.9,2.4c1.7,0,2.9-1.1,2.9-2.4
				c0-1.3-1.2-2.5-2.9-2.5c-1.1,0-2.1-0.3-2.9-0.8c-1.4-0.9-2.3-2.3-2.3-4c0-2.3,1.8-4.2,4.1-4.6v-1c0-0.6,0.5-1.2,1.1-1.2v0
				c0,0,0,0,0,0c0.6,0,1.1,0.5,1.1,1.2v1c2.2,0.5,4.1,2.3,4.1,4.6c0,0.8-0.6,1.2-1.2,1.2C18.9,29.1,18.3,28.8,18.3,28z"/>
			<path class="st1" d="M19.5,6c-1.5,0.3-3.2,0.5-4.3,0.6c0,0,0,0,0,0c-1.7,0-3.4-0.3-4.6-0.7c-0.1,0-0.2-0.1-0.3-0.1
				c0.9,1.4,1.4,2.9,1.7,4.6c0,0,0,0.1,0,0.1c0,0.1,0,0.1,0,0.2h6.6c0.2-1.5,0.8-3.1,1.9-4.9C20.2,5.8,19.9,5.9,19.5,6z M24,46.2
				c-6,4-14.5,3.2-19.5-2.1c-5.4-5.3-5.7-14.6-1.9-20.5c1.9-2.9,3.9-4.6,5.3-6.4c0.8-1,1.4-2,1.9-3.3H9.5c-0.3,0-0.6-0.1-0.8-0.4
				c-0.3-0.4-0.2-1,0.2-1.3c-0.2-0.2-0.4-0.4-0.4-0.7c0-0.5,0.4-0.9,0.9-1c0,0,0.1,0,0.1,0h0.7c0,0,0-0.1,0-0.1
				C9.9,8.5,9,6.6,7.6,5.2l0,0C7.3,4.8,7.3,4.3,7.6,3.9c0.9-1.1,2.2-1.9,3.5-2.1c0.1,0,0.3,0,0.4,0c1.1-1.1,2.5-1.7,3.9-1.8
				c1.4-0.1,2.9,0.4,4,1.4c1.5,0.2,2.9,0.9,4,2.1c0,0,0,0,0,0.1c0.3,0.4,0.3,1-0.2,1.3C23.3,5,23,5.3,23,5.4c-1.5,2-2.2,3.7-2.4,5.2
				h0.3c0.3,0,0.6,0.1,0.8,0.4c0.3,0.4,0.2,1-0.2,1.3c0.2,0.2,0.4,0.4,0.4,0.7c0,0.5-0.4,0.9-0.9,1c0.3,0.8,0.8,1.6,1.4,2.5
				c2.2,3,6.1,5.9,7.8,10.5h0c0.3,0.9,0.6,1.7,0.8,2.6c0.2,0.9,0.3,1.8,0.3,2.7c0,0.6,0,1.2-0.1,1.7c0,0.3-0.1,0.7-0.1,1l-1.8-0.3
				c0.1-0.8,0.2-1.6,0.2-2.4c0-0.8-0.1-1.6-0.3-2.4c-0.2-0.8-0.4-1.6-0.7-2.3c0,0,0,0,0,0c-1.4-4-5-6.7-7.5-10
				C20,16.4,19.4,15.3,19,14h-7.3c-0.5,1.8-1.3,3.2-2.3,4.5c-1.6,1.9-3.5,3.5-5.2,6.2c-3.3,5.2-2.9,13.7,1.7,18.2c0,0,0,0,0,0
				c4.4,4.6,12,5.3,17.2,1.8c0,0,0,0,0,0c0.7-0.4,1.3-0.9,1.9-1.5c0.6-0.6,1.1-1.2,1.6-1.8c0.5-0.6,0.9-1.3,1.3-2
				c0.4-0.7,0.7-1.5,0.9-2.3l1.8,0.5c-0.1,0.2-0.1,0.4-0.2,0.7c-0.2,0.6-0.5,1.3-0.8,1.9c-0.4,0.8-0.9,1.6-1.4,2.3
				c-0.5,0.7-1.1,1.4-1.8,2C25.4,45.2,24.7,45.7,24,46.2z M15.2,4.7c0.9,0,2.5-0.2,3.9-0.5c0.6-0.1,1.2-0.3,1.7-0.5
				C20,3.2,19,3.1,18,3.3c-0.2,0.1-0.4,0-0.6,0c-0.5-0.2-0.7-0.8-0.5-1.2c-0.4-0.1-0.9-0.2-1.3-0.2c-0.4,0-0.9,0.1-1.3,0.3
				c0.3,0.1,0.6,0.3,0.9,0.4c0.4,0.3,0.6,0.8,0.3,1.3c-0.3,0.4-0.8,0.6-1.3,0.3c-1.1-0.7-2.4-0.7-3.6-0.3C10.9,3.9,11,4,11.2,4.1
				C12.3,4.4,13.7,4.7,15.2,4.7z"/>
		</g>
		<g>
		</g>
	</g>
</g>
</svg>
