<?xml version="1.0" encoding="UTF-8" standalone="no"?>
<svg width="71px" height="83px" viewBox="0 0 71 83" version="1.1" xmlns="http://www.w3.org/2000/svg" xmlns:xlink="http://www.w3.org/1999/xlink">
    <!-- Generator: Sketch 3.7 (28169) - http://www.bohemiancoding.com/sketch -->
    <title>noun_589628_cc</title>
    <desc>Created with Sketch.</desc>
    <defs></defs>
    <g id="Page-1" stroke="none" stroke-width="1" fill="none" fill-rule="evenodd">
        <g id="Artboard" transform="translate(-3368.000000, -1161.000000)" fill="#FFFFFF">
            <g id="noun_589628_cc" transform="translate(3368.252499, 1161.000000)">
                <path d="M36.4,82.4152 L70,63.0168 L70,23.8168 L36.4,43.2152 L36.4,82.4152 L36.4,82.4152 Z M39.2,44.8336 L67.2,28.6692 L67.2,61.3984 L39.2,77.5628 L39.2,44.8336 L39.2,44.8336 Z" id="Shape"></path>
                <polygon id="Shape" points="35 6.468 33.6 7.28 33.6 33.1408 35 33.95 36.4 33.1408 36.4 7.28"></polygon>
                <path d="M35,0 L0,20.2076 L35,40.4152 L70,20.2076 L35,0 L35,0 Z M5.6,20.2076 L35,3.2396 L64.4,20.2076 L35,37.184 L5.6,20.2076 L5.6,20.2076 Z" id="Shape"></path>
                <polygon id="Shape" points="64.4 59.7856 42 46.8496 42 50.0836 61.6 61.3984"></polygon>
                <path d="M33.6,43.2152 L0,23.8168 L0,63.0168 L33.6,82.4152 L33.6,43.2152 L33.6,43.2152 Z M30.8,77.5628 L2.8,61.3984 L2.8,28.6692 L30.8,44.8336 L30.8,77.5628 L30.8,77.5628 Z" id="Shape"></path>
                <polygon id="Shape" points="5.6 59.7856 28 46.8496 28 50.0836 8.4 61.3984"></polygon>
            </g>
        </g>
    </g>
</svg>