<?xml version="1.0" encoding="utf-8"?>
<!-- Generator: Adobe Illustrator 19.2.1, SVG Export Plug-In . SVG Version: 6.00 Build 0)  -->
<svg version="1.1" id="Слой_1" xmlns="http://www.w3.org/2000/svg" xmlns:xlink="http://www.w3.org/1999/xlink" x="0px" y="0px"
	 viewBox="0 0 208.9 23.9" style="enable-background:new 0 0 208.9 23.9;" xml:space="preserve">
<style type="text/css">
	.st0{fill:#050D0C;}
</style>
<g>
	<path id="иконка_22_" class="st0" d="M18.1,23.2H6.7c-0.2,0-0.3-0.1-0.4-0.2c-0.1-0.1-0.1-0.3-0.1-0.4l0.4-1.5
		c0.1-0.2,0.2-0.3,0.4-0.4l2.6-0.4l0.1-1H1.2c-1,0-1.2-0.6-1.2-1.1V1.4c0-0.7,0.4-1.1,1.1-1.1h22.6c0.8,0,1.3,0.4,1.3,1.1v16.8
		c0,0.3-0.1,1.1-1.4,1.1h-8.4l0.1,1.1l2.5,0.4c0.2,0,0.4,0.2,0.4,0.4l0.4,1.6c0,0.1,0,0.3-0.1,0.4C18.4,23.2,18.3,23.2,18.1,23.2z
		 M7.4,22.2h10.1l-0.2-0.6l-2.6-0.4c-0.2,0-0.4-0.2-0.4-0.5l-0.1-1.5h-3.4l-0.1,1.5c0,0.2-0.2,0.4-0.4,0.5l-2.7,0.5L7.4,22.2z
		 M14.7,18.2h8.9c0.3,0,0.4-0.1,0.4-0.1c0,0,0,0,0,0V1.4c0-0.1,0-0.1,0-0.1l0,0c0,0-0.1,0-0.2,0H1.1c-0.1,0-0.1,0-0.1,0
		c0,0,0,0.1,0,0.1v16.8c0,0,0,0.1,0,0.1c0,0,0.1,0,0.2,0L14.7,18.2L14.7,18.2z M17.7,17.3c-0.1,0-0.2,0-0.2-0.1l-2.3-1.3
		c-0.2-0.1-0.2-0.3-0.2-0.4v-2.4l-1.2-0.7c-0.3,0.3-0.7,0.5-1.2,0.5c-0.5,0-0.9-0.2-1.2-0.5l-1.2,0.7c0,0,0,0,0,0v2.4
		c0,0.2-0.1,0.3-0.2,0.4l-2.3,1.3c-0.2,0.1-0.3,0.1-0.5,0l-2.3-1.3c-0.2-0.1-0.2-0.3-0.2-0.4v-2.3l-0.8-0.4
		c-0.2-0.1-0.3-0.4-0.2-0.7c0.1-0.2,0.4-0.3,0.7-0.2L5,12.3l2.1-1.2c0.2-0.1,0.3-0.1,0.5,0l2,1.2c0,0,0,0,0,0l1.2-0.7
		c0-0.1,0-0.3,0-0.4c0-0.8,0.5-1.4,1.2-1.6V8.4l-2-1.2C9.8,7.1,9.7,7,9.7,6.8V4.1c0-0.2,0.1-0.3,0.2-0.4l2.3-1.3
		c0.2-0.1,0.3-0.1,0.5,0l2.1,1.2l0.8-0.5c0.2-0.1,0.5-0.1,0.7,0.2c0.1,0.2,0.1,0.5-0.2,0.7l-0.8,0.5v2.3c0,0.2-0.1,0.3-0.2,0.4
		l-2,1.2v1.1c0.7,0.2,1.2,0.9,1.2,1.6c0,0.1,0,0.2,0,0.4l1.3,0.7l2-1.2c0.2-0.1,0.3-0.1,0.5,0l2.3,1.3c0.2,0.1,0.2,0.3,0.2,0.4v2.4
		l0.8,0.5c0.2,0.1,0.3,0.4,0.2,0.7c-0.1,0.2-0.4,0.3-0.7,0.2L20,16.1l-2,1.2C17.9,17.3,17.8,17.3,17.7,17.3z M15.9,15.2l1.8,1l1.8-1
		v-2.1l-1.8-1l-1.8,1V15.2z M5.5,15.2l1.8,1l1.8-1v-2.1l-1.8-1l-1.8,1V15.2z M11.9,11.6c0.1,0.2,0.3,0.3,0.6,0.3
		c0.2,0,0.5-0.1,0.6-0.3c0,0,0,0,0-0.1c0,0,0,0,0,0c0-0.1,0.1-0.2,0.1-0.3c0-0.4-0.3-0.7-0.7-0.7s-0.7,0.3-0.7,0.7
		c0,0.1,0,0.2,0.1,0.3C11.9,11.5,11.9,11.5,11.9,11.6C11.9,11.5,11.9,11.5,11.9,11.6z M10.7,6.5l1.8,1l1.8-1V4.4l-1.8-1l-1.8,1V6.5z
		"/>
	<path id="иконка_21_" class="st0" d="M66.8,23.6H55.4c-0.2,0-0.3-0.1-0.4-0.2c-0.1-0.1-0.1-0.3-0.1-0.4l0.4-1.5
		c0.1-0.2,0.2-0.3,0.4-0.4l2.6-0.4l0.1-1h-8.6c-1,0-1.2-0.6-1.2-1.1V1.7c0-0.7,0.4-1.1,1.1-1.1h22.6c0.8,0,1.3,0.4,1.3,1.1v16.8
		c0,0.3-0.1,1.1-1.4,1.1h-8.4l0.1,1.1l2.5,0.4c0.2,0,0.4,0.2,0.4,0.4l0.4,1.6c0,0.1,0,0.3-0.1,0.4C67.1,23.5,67,23.6,66.8,23.6z
		 M56.1,22.6h10.1L66,22l-2.6-0.4c-0.2,0-0.4-0.2-0.4-0.5l-0.1-1.5h-3.4l-0.1,1.5c0,0.2-0.2,0.4-0.4,0.5L56.2,22L56.1,22.6z
		 M63.4,18.6h8.9c0.3,0,0.4-0.1,0.4-0.1c0,0,0,0,0,0V1.7c0-0.1,0-0.1,0-0.1l0,0c0,0-0.1,0-0.2,0H49.8c-0.1,0-0.1,0-0.1,0
		c0,0,0,0.1,0,0.1v16.8c0,0,0,0.1,0,0.1c0,0,0.1,0,0.2,0L63.4,18.6L63.4,18.6z M66.4,17.7c-0.1,0-0.2,0-0.2-0.1l-2.3-1.3
		c-0.2-0.1-0.2-0.3-0.2-0.4v-2.4l-1.2-0.7c-0.3,0.3-0.7,0.5-1.2,0.5c-0.5,0-0.9-0.2-1.2-0.5l-1.2,0.7c0,0,0,0,0,0v2.4
		c0,0.2-0.1,0.3-0.2,0.4l-2.3,1.3c-0.2,0.1-0.3,0.1-0.5,0l-2.3-1.3c-0.2-0.1-0.2-0.3-0.2-0.4v-2.3l-0.8-0.4
		c-0.2-0.1-0.3-0.4-0.2-0.7c0.1-0.2,0.4-0.3,0.7-0.2l0.7,0.4l2.1-1.2c0.2-0.1,0.3-0.1,0.5,0l2,1.2c0,0,0,0,0,0l1.2-0.7
		c0-0.1,0-0.3,0-0.4c0-0.8,0.5-1.4,1.2-1.6V8.7l-2-1.2c-0.2-0.1-0.2-0.3-0.2-0.4V4.5c0-0.2,0.1-0.3,0.2-0.4l2.3-1.3
		c0.2-0.1,0.3-0.1,0.5,0l2.1,1.2l0.8-0.5c0.2-0.1,0.5-0.1,0.7,0.2c0.1,0.2,0.1,0.5-0.2,0.7L64,4.8v2.3c0,0.2-0.1,0.3-0.2,0.4l-2,1.2
		v1.1c0.7,0.2,1.2,0.9,1.2,1.6c0,0.1,0,0.2,0,0.4l1.3,0.7l2-1.2c0.2-0.1,0.3-0.1,0.5,0l2.3,1.3c0.2,0.1,0.2,0.3,0.2,0.4v2.4L70,16
		c0.2,0.1,0.3,0.4,0.2,0.7c-0.1,0.2-0.4,0.3-0.7,0.2l-0.8-0.5l-2,1.2C66.5,17.6,66.5,17.7,66.4,17.7z M64.6,15.5l1.8,1l1.8-1v-2.1
		l-1.8-1l-1.8,1V15.5z M54.2,15.5l1.8,1l1.8-1v-2.1l-1.8-1l-1.8,1V15.5z M60.6,11.9c0.1,0.2,0.3,0.3,0.6,0.3c0.2,0,0.5-0.1,0.6-0.3
		c0,0,0,0,0-0.1c0,0,0,0,0,0c0-0.1,0.1-0.2,0.1-0.3c0-0.4-0.3-0.7-0.7-0.7c-0.4,0-0.7,0.3-0.7,0.7c0,0.1,0,0.2,0.1,0.3
		C60.6,11.8,60.6,11.8,60.6,11.9C60.6,11.9,60.6,11.9,60.6,11.9z M59.4,6.8l1.8,1l1.8-1V4.8l-1.8-1l-1.8,1V6.8z"/>
	<path id="иконка_20_" class="st0" d="M110.4,23.9H99c-0.2,0-0.3-0.1-0.4-0.2c-0.1-0.1-0.1-0.3-0.1-0.4l0.4-1.5
		c0.1-0.2,0.2-0.3,0.4-0.4L102,21l0.1-1h-8.6c-1,0-1.2-0.6-1.2-1.1V2.1c0-0.7,0.4-1.1,1.1-1.1H116c0.8,0,1.3,0.4,1.3,1.1v16.8
		c0,0.3-0.1,1.1-1.4,1.1h-8.4l0.1,1.1l2.5,0.4c0.2,0,0.4,0.2,0.4,0.4l0.4,1.6c0,0.1,0,0.3-0.1,0.4C110.7,23.9,110.5,23.9,110.4,23.9
		z M99.6,22.9h10.1l-0.2-0.6l-2.6-0.4c-0.2,0-0.4-0.2-0.4-0.5l-0.1-1.5H103l-0.1,1.5c0,0.2-0.2,0.4-0.4,0.5l-2.7,0.5L99.6,22.9z
		 M107,18.9h8.9c0.3,0,0.4-0.1,0.4-0.1c0,0,0,0,0,0V2.1c0-0.1,0-0.1,0-0.1l0,0c0,0-0.1,0-0.2,0H93.4c-0.1,0-0.1,0-0.1,0
		c0,0,0,0.1,0,0.1v16.8c0,0,0,0.1,0,0.1c0,0,0.1,0,0.2,0L107,18.9L107,18.9z M109.9,18c-0.1,0-0.2,0-0.2-0.1l-2.3-1.3
		c-0.2-0.1-0.2-0.3-0.2-0.4v-2.4l-1.2-0.7c-0.3,0.3-0.7,0.5-1.2,0.5c-0.5,0-0.9-0.2-1.2-0.5l-1.2,0.7c0,0,0,0,0,0v2.4
		c0,0.2-0.1,0.3-0.2,0.4l-2.3,1.3c-0.2,0.1-0.3,0.1-0.5,0L97,16.6c-0.2-0.1-0.2-0.3-0.2-0.4v-2.3L96,13.4c-0.2-0.1-0.3-0.4-0.2-0.7
		c0.1-0.2,0.4-0.3,0.7-0.2l0.7,0.4l2.1-1.2c0.2-0.1,0.3-0.1,0.5,0l2,1.2c0,0,0,0,0,0l1.2-0.7c0-0.1,0-0.3,0-0.4
		c0-0.8,0.5-1.4,1.2-1.6V9.1l-2-1.2c-0.2-0.1-0.2-0.3-0.2-0.4V4.8c0-0.2,0.1-0.3,0.2-0.4l2.3-1.3c0.2-0.1,0.3-0.1,0.5,0l2.1,1.2
		l0.8-0.5c0.2-0.1,0.5-0.1,0.7,0.2c0.1,0.2,0.1,0.5-0.2,0.7l-0.8,0.5v2.3c0,0.2-0.1,0.3-0.2,0.4l-2,1.2v1.1c0.7,0.2,1.2,0.9,1.2,1.6
		c0,0.1,0,0.2,0,0.4l1.3,0.7l2-1.2c0.2-0.1,0.3-0.1,0.5,0l2.3,1.3c0.2,0.1,0.2,0.3,0.2,0.4v2.4l0.8,0.5c0.2,0.1,0.3,0.4,0.2,0.7
		c-0.1,0.2-0.4,0.3-0.7,0.2l-0.8-0.5l-2,1.2C110.1,18,110,18,109.9,18z M108.1,15.9l1.8,1l1.8-1v-2.1l-1.8-1l-1.8,1V15.9z
		 M97.8,15.9l1.8,1l1.8-1v-2.1l-1.8-1l-1.8,1V15.9z M104.2,12.3c0.1,0.2,0.3,0.3,0.6,0.3c0.2,0,0.5-0.1,0.6-0.3c0,0,0,0,0-0.1
		c0,0,0,0,0,0c0-0.1,0.1-0.2,0.1-0.3c0-0.4-0.3-0.7-0.7-0.7s-0.7,0.3-0.7,0.7c0,0.1,0,0.2,0.1,0.3C104.1,12.2,104.1,12.2,104.2,12.3
		C104.2,12.2,104.2,12.2,104.2,12.3z M103,7.2l1.8,1l1.8-1V5.1l-1.8-1l-1.8,1V7.2z"/>
	<path id="иконка_19_" class="st0" d="M155.3,23.9h-11.4c-0.2,0-0.3-0.1-0.4-0.2c-0.1-0.1-0.1-0.3-0.1-0.4l0.4-1.5
		c0.1-0.2,0.2-0.3,0.4-0.4l2.6-0.4l0.1-1h-8.6c-1,0-1.2-0.6-1.2-1.1V2.1c0-0.7,0.4-1.1,1.1-1.1h22.6c0.8,0,1.3,0.4,1.3,1.1v16.8
		c0,0.3-0.1,1.1-1.4,1.1h-8.4l0.1,1.1l2.5,0.4c0.2,0,0.4,0.2,0.4,0.4l0.4,1.6c0,0.1,0,0.3-0.1,0.4C155.6,23.9,155.4,23.9,155.3,23.9
		z M144.5,22.9h10.1l-0.2-0.6l-2.6-0.4c-0.2,0-0.4-0.2-0.4-0.5l-0.1-1.5h-3.4l-0.1,1.5c0,0.2-0.2,0.4-0.4,0.5l-2.7,0.5L144.5,22.9z
		 M151.9,18.9h8.9c0.3,0,0.4-0.1,0.4-0.1c0,0,0,0,0,0V2.1c0-0.1,0-0.1,0-0.1l0,0c0,0-0.1,0-0.2,0h-22.6c-0.1,0-0.1,0-0.1,0
		c0,0,0,0.1,0,0.1v16.8c0,0,0,0.1,0,0.1c0,0,0.1,0,0.2,0L151.9,18.9L151.9,18.9z M154.8,18c-0.1,0-0.2,0-0.2-0.1l-2.3-1.3
		c-0.2-0.1-0.2-0.3-0.2-0.4v-2.4l-1.2-0.7c-0.3,0.3-0.7,0.5-1.2,0.5c-0.5,0-0.9-0.2-1.2-0.5l-1.2,0.7c0,0,0,0,0,0v2.4
		c0,0.2-0.1,0.3-0.2,0.4l-2.3,1.3c-0.2,0.1-0.3,0.1-0.5,0l-2.3-1.3c-0.2-0.1-0.2-0.3-0.2-0.4v-2.3l-0.8-0.4
		c-0.2-0.1-0.3-0.4-0.2-0.7c0.1-0.2,0.4-0.3,0.7-0.2l0.7,0.4l2.1-1.2c0.2-0.1,0.3-0.1,0.5,0l2,1.2c0,0,0,0,0,0l1.2-0.7
		c0-0.1,0-0.3,0-0.4c0-0.8,0.5-1.4,1.2-1.6V9.1l-2-1.2c-0.2-0.1-0.2-0.3-0.2-0.4V4.8c0-0.2,0.1-0.3,0.2-0.4l2.3-1.3
		c0.2-0.1,0.3-0.1,0.5,0l2.1,1.2l0.8-0.5c0.2-0.1,0.5-0.1,0.7,0.2c0.1,0.2,0.1,0.5-0.2,0.7l-0.8,0.5v2.3c0,0.2-0.1,0.3-0.2,0.4
		l-2,1.2v1.1c0.7,0.2,1.2,0.9,1.2,1.6c0,0.1,0,0.2,0,0.4l1.3,0.7l2-1.2c0.2-0.1,0.3-0.1,0.5,0l2.3,1.3c0.2,0.1,0.2,0.3,0.2,0.4v2.4
		l0.8,0.5c0.2,0.1,0.3,0.4,0.2,0.7c-0.1,0.2-0.4,0.3-0.7,0.2l-0.8-0.5l-2,1.2C155,18,154.9,18,154.8,18z M153,15.9l1.8,1l1.8-1v-2.1
		l-1.8-1l-1.8,1V15.9z M142.7,15.9l1.8,1l1.8-1v-2.1l-1.8-1l-1.8,1V15.9z M149.1,12.3c0.1,0.2,0.3,0.3,0.6,0.3
		c0.2,0,0.5-0.1,0.6-0.3c0,0,0,0,0-0.1c0,0,0,0,0,0c0-0.1,0.1-0.2,0.1-0.3c0-0.4-0.3-0.7-0.7-0.7c-0.4,0-0.7,0.3-0.7,0.7
		c0,0.1,0,0.2,0.1,0.3C149,12.2,149,12.2,149.1,12.3C149.1,12.2,149.1,12.2,149.1,12.3z M147.9,7.2l1.8,1l1.8-1V5.1l-1.8-1l-1.8,1
		V7.2z"/>
	<path id="иконка_18_" class="st0" d="M202.1,23h-11.4c-0.2,0-0.3-0.1-0.4-0.2c-0.1-0.1-0.1-0.3-0.1-0.4l0.4-1.5
		c0.1-0.2,0.2-0.3,0.4-0.4l2.6-0.4l0.1-1h-8.6c-1,0-1.2-0.6-1.2-1.1V1.1c0-0.7,0.4-1.1,1.1-1.1h22.6c0.8,0,1.3,0.4,1.3,1.1v16.8
		c0,0.3-0.1,1.1-1.4,1.1h-8.4l0.1,1.1l2.5,0.4c0.2,0,0.4,0.2,0.4,0.4l0.4,1.6c0,0.1,0,0.3-0.1,0.4C202.4,22.9,202.2,23,202.1,23z
		 M191.3,22h10.1l-0.2-0.6l-2.6-0.4c-0.2,0-0.4-0.2-0.4-0.5l-0.1-1.5h-3.4l-0.1,1.5c0,0.2-0.2,0.4-0.4,0.5l-2.7,0.5L191.3,22z
		 M198.6,18h8.9c0.3,0,0.4-0.1,0.4-0.1c0,0,0,0,0,0V1.1c0-0.1,0-0.1,0-0.1l0,0c0,0-0.1,0-0.2,0h-22.6c-0.1,0-0.1,0-0.1,0
		c0,0,0,0.1,0,0.1v16.8c0,0,0,0.1,0,0.1c0,0,0.1,0,0.2,0L198.6,18L198.6,18z M201.6,17.1c-0.1,0-0.2,0-0.2-0.1l-2.3-1.3
		c-0.2-0.1-0.2-0.3-0.2-0.4v-2.4l-1.2-0.7c-0.3,0.3-0.7,0.5-1.2,0.5c-0.5,0-0.9-0.2-1.2-0.5l-1.2,0.7c0,0,0,0,0,0v2.4
		c0,0.2-0.1,0.3-0.2,0.4l-2.3,1.3c-0.2,0.1-0.3,0.1-0.5,0l-2.3-1.3c-0.2-0.1-0.2-0.3-0.2-0.4v-2.3l-0.8-0.4
		c-0.2-0.1-0.3-0.4-0.2-0.7c0.1-0.2,0.4-0.3,0.7-0.2l0.7,0.4l2.1-1.2c0.2-0.1,0.3-0.1,0.5,0l2,1.2c0,0,0,0,0,0l1.2-0.7
		c0-0.1,0-0.3,0-0.4c0-0.8,0.5-1.4,1.2-1.6V8.2l-2-1.2c-0.2-0.1-0.2-0.3-0.2-0.4V3.9c0-0.2,0.1-0.3,0.2-0.4l2.3-1.3
		c0.2-0.1,0.3-0.1,0.5,0l2.1,1.2l0.8-0.5c0.2-0.1,0.5-0.1,0.7,0.2c0.1,0.2,0.1,0.5-0.2,0.7l-0.8,0.5v2.3c0,0.2-0.1,0.3-0.2,0.4
		l-2,1.2v1.1c0.7,0.2,1.2,0.9,1.2,1.6c0,0.1,0,0.2,0,0.4l1.3,0.7l2-1.2c0.2-0.1,0.3-0.1,0.5,0l2.3,1.3c0.2,0.1,0.2,0.3,0.2,0.4V15
		l0.8,0.5c0.2,0.1,0.3,0.4,0.2,0.7c-0.1,0.2-0.4,0.3-0.7,0.2l-0.8-0.5l-2,1.2C201.8,17.1,201.7,17.1,201.6,17.1z M199.8,15l1.8,1
		l1.8-1v-2.1l-1.8-1l-1.8,1V15z M189.4,15l1.8,1l1.8-1v-2.1l-1.8-1l-1.8,1V15z M195.8,11.3c0.1,0.2,0.3,0.3,0.6,0.3
		c0.2,0,0.5-0.1,0.6-0.3c0,0,0,0,0-0.1c0,0,0,0,0,0c0-0.1,0.1-0.2,0.1-0.3c0-0.4-0.3-0.7-0.7-0.7c-0.4,0-0.7,0.3-0.7,0.7
		c0,0.1,0,0.2,0.1,0.3C195.8,11.2,195.8,11.3,195.8,11.3C195.8,11.3,195.8,11.3,195.8,11.3z M194.6,6.3l1.8,1l1.8-1V4.2l-1.8-1
		l-1.8,1V6.3z"/>
</g>
</svg>
