<?xml version="1.0" encoding="utf-8"?>
<!-- Generator: Adobe Illustrator 19.2.1, SVG Export Plug-In . SVG Version: 6.00 Build 0)  -->
<svg version="1.1" id="Слой_1" xmlns="http://www.w3.org/2000/svg" xmlns:xlink="http://www.w3.org/1999/xlink" x="0px" y="0px"
	 viewBox="0 0 123 113.7" style="enable-background:new 0 0 123 113.7;" xml:space="preserve">
<style type="text/css">
	.st0{opacity:0.4;fill:none;stroke:#F7F4E3;stroke-miterlimit:10;}
</style>
<g>
	<circle class="st0" cx="13.8" cy="3" r="2.5"/>
	<circle class="st0" cx="23.5" cy="3" r="2.5"/>
	<circle class="st0" cx="33.1" cy="3" r="2.5"/>
	<circle class="st0" cx="42.8" cy="3" r="2.5"/>
	<circle class="st0" cx="52.4" cy="3" r="2.5"/>
	<circle class="st0" cx="62.1" cy="3" r="2.5"/>
	<circle class="st0" cx="71.7" cy="3" r="2.5"/>
	<circle class="st0" cx="81.4" cy="3" r="2.5"/>
	<circle class="st0" cx="91" cy="3" r="2.5"/>
	<circle class="st0" cx="100.7" cy="3" r="2.5"/>
	<circle class="st0" cx="110.3" cy="3" r="2.5"/>
	<circle class="st0" cx="120" cy="3" r="2.5"/>
	<circle class="st0" cx="13.8" cy="13" r="2.5"/>
	<circle class="st0" cx="23.5" cy="13" r="2.5"/>
	<circle class="st0" cx="33.1" cy="13" r="2.5"/>
	<circle class="st0" cx="42.8" cy="13" r="2.5"/>
	<circle class="st0" cx="52.4" cy="13" r="2.5"/>
	<circle class="st0" cx="62.1" cy="13" r="2.5"/>
	<circle class="st0" cx="71.7" cy="13" r="2.5"/>
	<circle class="st0" cx="81.4" cy="13" r="2.5"/>
	<circle class="st0" cx="91" cy="13" r="2.5"/>
	<circle class="st0" cx="100.7" cy="13" r="2.5"/>
	<circle class="st0" cx="110.3" cy="13" r="2.5"/>
	<circle class="st0" cx="120" cy="13" r="2.5"/>
	<circle class="st0" cx="13.8" cy="22.6" r="2.5"/>
	<circle class="st0" cx="23.5" cy="22.6" r="2.5"/>
	<circle class="st0" cx="33.1" cy="22.6" r="2.5"/>
	<circle class="st0" cx="42.8" cy="22.6" r="2.5"/>
	<circle class="st0" cx="52.4" cy="22.6" r="2.5"/>
	<circle class="st0" cx="62.1" cy="22.6" r="2.5"/>
	<circle class="st0" cx="71.7" cy="22.6" r="2.5"/>
	<circle class="st0" cx="81.4" cy="22.6" r="2.5"/>
	<circle class="st0" cx="91" cy="22.6" r="2.5"/>
	<circle class="st0" cx="100.7" cy="22.6" r="2.5"/>
	<circle class="st0" cx="110.3" cy="22.6" r="2.5"/>
	<circle class="st0" cx="120" cy="22.6" r="2.5"/>
	<circle class="st0" cx="13.8" cy="32" r="2.5"/>
	<circle class="st0" cx="23.5" cy="32" r="2.5"/>
	<circle class="st0" cx="33.1" cy="32" r="2.5"/>
	<circle class="st0" cx="42.8" cy="32" r="2.5"/>
	<circle class="st0" cx="52.4" cy="32" r="2.5"/>
	<circle class="st0" cx="62.1" cy="32" r="2.5"/>
	<circle class="st0" cx="71.7" cy="32" r="2.5"/>
	<circle class="st0" cx="81.4" cy="32" r="2.5"/>
	<circle class="st0" cx="91" cy="32" r="2.5"/>
	<circle class="st0" cx="100.7" cy="32" r="2.5"/>
	<circle class="st0" cx="110.3" cy="32" r="2.5"/>
	<circle class="st0" cx="120" cy="32" r="2.5"/>
	<circle class="st0" cx="13.8" cy="42" r="2.5"/>
	<circle class="st0" cx="23.5" cy="42" r="2.5"/>
	<circle class="st0" cx="33.1" cy="42" r="2.5"/>
	<circle class="st0" cx="42.8" cy="42" r="2.5"/>
	<circle class="st0" cx="52.4" cy="42" r="2.5"/>
	<circle class="st0" cx="62.1" cy="42" r="2.5"/>
	<circle class="st0" cx="71.7" cy="42" r="2.5"/>
	<circle class="st0" cx="81.4" cy="42" r="2.5"/>
	<circle class="st0" cx="91" cy="42" r="2.5"/>
	<circle class="st0" cx="100.7" cy="42" r="2.5"/>
	<circle class="st0" cx="110.3" cy="42" r="2.5"/>
	<circle class="st0" cx="120" cy="42" r="2.5"/>
	<circle class="st0" cx="13.8" cy="52.2" r="2.5"/>
	<circle class="st0" cx="23.5" cy="52.2" r="2.5"/>
	<circle class="st0" cx="33.1" cy="52.2" r="2.5"/>
	<circle class="st0" cx="42.8" cy="52.2" r="2.5"/>
	<circle class="st0" cx="52.4" cy="52.2" r="2.5"/>
	<circle class="st0" cx="62.1" cy="52.2" r="2.5"/>
	<circle class="st0" cx="71.7" cy="52.2" r="2.5"/>
	<circle class="st0" cx="81.4" cy="52.2" r="2.5"/>
	<circle class="st0" cx="91" cy="52.2" r="2.5"/>
	<circle class="st0" cx="100.7" cy="52.2" r="2.5"/>
	<circle class="st0" cx="110.3" cy="52.2" r="2.5"/>
	<circle class="st0" cx="120" cy="52.2" r="2.5"/>
	<circle class="st0" cx="13.8" cy="62.5" r="2.5"/>
	<circle class="st0" cx="23.5" cy="62.5" r="2.5"/>
	<circle class="st0" cx="33.1" cy="62.5" r="2.5"/>
	<circle class="st0" cx="42.8" cy="62.5" r="2.5"/>
	<circle class="st0" cx="52.4" cy="62.5" r="2.5"/>
	<circle class="st0" cx="62.1" cy="62.5" r="2.5"/>
	<circle class="st0" cx="71.7" cy="62.5" r="2.5"/>
	<circle class="st0" cx="81.4" cy="62.5" r="2.5"/>
	<circle class="st0" cx="91" cy="62.5" r="2.5"/>
	<circle class="st0" cx="100.7" cy="62.5" r="2.5"/>
	<circle class="st0" cx="110.3" cy="62.5" r="2.5"/>
	<circle class="st0" cx="120" cy="62.5" r="2.5"/>
	<circle class="st0" cx="13.8" cy="72.8" r="2.5"/>
	<circle class="st0" cx="23.5" cy="72.8" r="2.5"/>
	<circle class="st0" cx="33.1" cy="72.8" r="2.5"/>
	<circle class="st0" cx="42.8" cy="72.8" r="2.5"/>
	<circle class="st0" cx="52.4" cy="72.8" r="2.5"/>
	<circle class="st0" cx="62.1" cy="72.8" r="2.5"/>
	<circle class="st0" cx="71.7" cy="72.8" r="2.5"/>
	<circle class="st0" cx="81.4" cy="72.8" r="2.5"/>
	<circle class="st0" cx="91" cy="72.8" r="2.5"/>
	<circle class="st0" cx="100.7" cy="72.8" r="2.5"/>
	<circle class="st0" cx="110.3" cy="72.8" r="2.5"/>
	<circle class="st0" cx="120" cy="72.8" r="2.5"/>
	<circle class="st0" cx="13.8" cy="81.9" r="2.5"/>
	<circle class="st0" cx="23.5" cy="81.9" r="2.5"/>
	<circle class="st0" cx="33.1" cy="81.9" r="2.5"/>
	<circle class="st0" cx="42.8" cy="81.9" r="2.5"/>
	<circle class="st0" cx="52.4" cy="81.9" r="2.5"/>
	<circle class="st0" cx="62.1" cy="81.9" r="2.5"/>
	<circle class="st0" cx="71.7" cy="81.9" r="2.5"/>
	<circle class="st0" cx="81.4" cy="81.9" r="2.5"/>
	<circle class="st0" cx="91" cy="81.9" r="2.5"/>
	<circle class="st0" cx="100.7" cy="81.9" r="2.5"/>
	<circle class="st0" cx="110.3" cy="81.9" r="2.5"/>
	<circle class="st0" cx="120" cy="81.9" r="2.5"/>
	<circle class="st0" cx="13.8" cy="91.8" r="2.5"/>
	<circle class="st0" cx="23.5" cy="91.8" r="2.5"/>
	<circle class="st0" cx="33.1" cy="91.8" r="2.5"/>
	<circle class="st0" cx="42.8" cy="91.8" r="2.5"/>
	<circle class="st0" cx="52.4" cy="91.8" r="2.5"/>
	<circle class="st0" cx="62.1" cy="91.8" r="2.5"/>
	<circle class="st0" cx="71.7" cy="91.8" r="2.5"/>
	<circle class="st0" cx="81.4" cy="91.8" r="2.5"/>
	<circle class="st0" cx="91" cy="91.8" r="2.5"/>
	<circle class="st0" cx="100.7" cy="91.8" r="2.5"/>
	<circle class="st0" cx="110.3" cy="91.8" r="2.5"/>
	<circle class="st0" cx="120" cy="91.8" r="2.5"/>
	<circle class="st0" cx="13.8" cy="101.5" r="2.5"/>
	<circle class="st0" cx="23.5" cy="101.5" r="2.5"/>
	<circle class="st0" cx="33.1" cy="101.5" r="2.5"/>
	<circle class="st0" cx="42.8" cy="101.5" r="2.5"/>
	<circle class="st0" cx="52.4" cy="101.5" r="2.5"/>
	<circle class="st0" cx="62.1" cy="101.5" r="2.5"/>
	<circle class="st0" cx="71.7" cy="101.5" r="2.5"/>
	<circle class="st0" cx="81.4" cy="101.5" r="2.5"/>
	<circle class="st0" cx="91" cy="101.5" r="2.5"/>
	<circle class="st0" cx="100.7" cy="101.5" r="2.5"/>
	<circle class="st0" cx="110.3" cy="101.5" r="2.5"/>
	<circle class="st0" cx="120" cy="101.5" r="2.5"/>
	<circle class="st0" cx="13.8" cy="110.7" r="2.5"/>
	<circle class="st0" cx="3" cy="3" r="2.5"/>
	<circle class="st0" cx="3" cy="13" r="2.5"/>
	<circle class="st0" cx="3" cy="22.6" r="2.5"/>
	<circle class="st0" cx="3" cy="32" r="2.5"/>
	<circle class="st0" cx="3" cy="42" r="2.5"/>
	<circle class="st0" cx="3" cy="52.2" r="2.5"/>
	<circle class="st0" cx="3" cy="62.5" r="2.5"/>
	<circle class="st0" cx="3" cy="72.8" r="2.5"/>
	<circle class="st0" cx="3" cy="81.9" r="2.5"/>
	<circle class="st0" cx="3" cy="91.8" r="2.5"/>
	<circle class="st0" cx="3" cy="101.5" r="2.5"/>
	<circle class="st0" cx="3" cy="110.7" r="2.5"/>
	<circle class="st0" cx="23.5" cy="110.7" r="2.5"/>
	<circle class="st0" cx="33.1" cy="110.7" r="2.5"/>
	<circle class="st0" cx="42.8" cy="110.7" r="2.5"/>
	<circle class="st0" cx="52.4" cy="110.7" r="2.5"/>
	<circle class="st0" cx="62.1" cy="110.7" r="2.5"/>
	<circle class="st0" cx="71.7" cy="110.7" r="2.5"/>
	<circle class="st0" cx="81.4" cy="110.7" r="2.5"/>
	<circle class="st0" cx="91" cy="110.7" r="2.5"/>
	<circle class="st0" cx="100.7" cy="110.7" r="2.5"/>
	<circle class="st0" cx="110.3" cy="110.7" r="2.5"/>
	<circle class="st0" cx="120" cy="110.7" r="2.5"/>
</g>
</svg>
